<?xml version="1.0" encoding="UTF-8"?>
<!DOCTYPE svg PUBLIC "-//W3C//DTD SVG 1.1//EN" "http://www.w3.org/Graphics/SVG/1.1/DTD/svg11.dtd">
<svg xmlns="http://www.w3.org/2000/svg" version="1.1" width="499px" height="500px" style="shape-rendering:geometricPrecision; text-rendering:geometricPrecision; image-rendering:optimizeQuality; fill-rule:evenodd; clip-rule:evenodd" xmlns:xlink="http://www.w3.org/1999/xlink">
<g><path style="opacity:1" fill="#f2e6dc" d="M 336.5,87.5 C 336.5,88.8333 336.5,90.1667 336.5,91.5C 332.167,91.5 327.833,91.5 323.5,91.5C 323.5,93.5 323.5,95.5 323.5,97.5C 313.167,97.5 302.833,97.5 292.5,97.5C 292.5,103.833 292.5,110.167 292.5,116.5C 288.167,116.5 283.833,116.5 279.5,116.5C 279.5,118.167 279.5,119.833 279.5,121.5C 264.5,121.5 249.5,121.5 234.5,121.5C 234.5,135.167 234.5,148.833 234.5,162.5C 227.826,162.287 221.159,161.954 214.5,161.5C 214.5,160.5 214.5,159.5 214.5,158.5C 216.163,156.507 217.33,154.174 218,151.5C 223.786,150.598 226.119,147.265 225,141.5C 223.556,139.845 221.722,139.178 219.5,139.5C 218.662,139.158 218.328,138.492 218.5,137.5C 218.83,130.491 215.83,125.491 209.5,122.5C 215.734,116.042 218.567,108.375 218,99.5C 213.667,94.1667 209.333,94.1667 205,99.5C 204.68,90.5008 200.18,86.6674 191.5,88C 190.874,88.7504 190.374,89.5838 190,90.5C 189.379,96.3065 189.712,101.973 191,107.5C 186.431,104.439 182.431,105.106 179,109.5C 178.245,112.303 178.578,114.97 180,117.5C 182.564,119.727 185.397,121.561 188.5,123C 185.965,123.928 184.965,125.762 185.5,128.5C 187.915,128.373 190.249,128.207 192.5,128C 189.923,131.752 188.923,135.919 189.5,140.5C 182.914,142.23 181.914,145.73 186.5,151C 190.782,150.468 193.116,152.302 193.5,156.5C 193.5,158.167 193.5,159.833 193.5,161.5C 179.435,162.37 165.435,163.87 151.5,166C 148.325,166.493 145.659,167.66 143.5,169.5C 135.671,173.008 130.671,179.008 128.5,187.5C 127.167,187.5 125.833,187.5 124.5,187.5C 124.666,177.161 124.5,166.828 124,156.5C 123.5,167.495 123.333,178.495 123.5,189.5C 124.5,189.5 125.5,189.5 126.5,189.5C 126.5,190.167 126.5,190.833 126.5,191.5C 122.935,199.087 120.601,207.087 119.5,215.5C 110.844,213.531 102.511,214.365 94.5,218C 91.7063,219.535 89.7063,221.702 88.5,224.5C 87.5,224.833 86.8333,225.5 86.5,226.5C 85.213,225.232 84.213,225.565 83.5,227.5C 82.3591,230.062 81.5257,232.728 81,235.5C 79.5945,233.636 79.0945,231.803 79.5,230C 80.1667,228 80.8333,226 81.5,224C 78.1832,223.502 74.8499,223.335 71.5,223.5C 71.2297,220.004 70.8963,216.504 70.5,213C 71.8664,210.003 72.533,206.836 72.5,203.5C 76.3985,186.977 82.5652,171.31 91,156.5C 97.1865,147.442 103.353,138.442 109.5,129.5C 130.114,136.935 145.281,130.935 155,111.5C 156.79,104.533 156.956,97.5333 155.5,90.5C 156.117,90.6107 156.617,90.944 157,91.5C 198.772,67.3999 243.272,60.5666 290.5,71C 306.405,75.0231 321.739,80.5231 336.5,87.5 Z"/></g>
<g><path style="opacity:1" fill="#e9ca9c" d="M 142.5,73.5 C 133.392,69.0089 123.726,67.6756 113.5,69.5C 114.263,68.7321 115.263,68.2321 116.5,68C 121.5,67.3333 126.5,67.3333 131.5,68C 135.776,68.8047 139.443,70.6381 142.5,73.5 Z"/></g>
<g><path style="opacity:1" fill="#eebc73" d="M 142.5,73.5 C 142.833,73.5 143.167,73.5 143.5,73.5C 142.878,75.335 141.544,76.5017 139.5,77C 141.577,77.1922 143.577,77.6922 145.5,78.5C 144.675,79.3857 143.675,79.719 142.5,79.5C 143.072,81.9794 143.072,84.3127 142.5,86.5C 144.505,89.0299 145.839,91.8632 146.5,95C 144.924,95.4396 143.59,96.273 142.5,97.5C 140.633,94.7709 139.633,95.1043 139.5,98.5C 138.5,98.5 137.5,98.5 136.5,98.5C 136.5,100.167 136.5,101.833 136.5,103.5C 134.572,99.8243 133.238,95.8243 132.5,91.5C 127.936,87.7489 123.769,87.7489 120,91.5C 119.505,93.4727 119.338,95.4727 119.5,97.5C 117.516,97.6168 115.85,96.9501 114.5,95.5C 113.614,96.325 113.281,97.325 113.5,98.5C 109.09,99.4079 107.257,102.075 108,106.5C 109.129,108.141 110.629,109.141 112.5,109.5C 112.662,111.527 112.495,113.527 112,115.5C 110.247,114.373 108.413,113.373 106.5,112.5C 106.089,113.262 105.923,114.262 106,115.5C 102.894,116.868 100.727,115.868 99.5,112.5C 100.689,111.571 102.022,111.238 103.5,111.5C 102.067,104.626 100.401,104.293 98.5,110.5C 96.9547,111.452 95.288,111.785 93.5,111.5C 93.5,111.167 93.5,110.833 93.5,110.5C 90.5615,96.2322 94.5615,84.3989 105.5,75C 107.436,74.187 109.436,73.687 111.5,73.5C 111.5,72.5 111.5,71.5 111.5,70.5C 111.842,69.6618 112.508,69.3284 113.5,69.5C 123.726,67.6756 133.392,69.0089 142.5,73.5 Z"/></g>
<g><path style="opacity:1" fill="#e8c897" d="M 111.5,70.5 C 111.5,71.5 111.5,72.5 111.5,73.5C 109.436,73.687 107.436,74.187 105.5,75C 94.5615,84.3989 90.5615,96.2322 93.5,110.5C 89.1094,95.4989 93.1094,82.9989 105.5,73C 107.217,71.4412 109.217,70.6079 111.5,70.5 Z"/></g>
<g><path style="opacity:0.907" fill="#575858" d="M 379.5,83.5 C 380.833,83.8333 380.833,84.1667 379.5,84.5C 366.833,84.5 354.167,84.5 341.5,84.5C 340.167,84.5 338.833,84.5 337.5,84.5C 337.5,86.8333 337.5,89.1667 337.5,91.5C 337.167,91.5 336.833,91.5 336.5,91.5C 336.5,90.1667 336.5,88.8333 336.5,87.5C 336.5,86.1667 336.5,84.8333 336.5,83.5C 350.833,83.5 365.167,83.5 379.5,83.5 Z"/></g>
<g><path style="opacity:0.308" fill="#dedad2" d="M 341.5,84.5 C 340.791,85.404 339.791,85.7373 338.5,85.5C 338.5,87.1667 338.5,88.8333 338.5,90.5C 341.385,90.1936 344.052,90.5269 346.5,91.5C 343.5,91.5 340.5,91.5 337.5,91.5C 337.5,89.1667 337.5,86.8333 337.5,84.5C 338.833,84.5 340.167,84.5 341.5,84.5 Z"/></g>
<g><path style="opacity:0.936" fill="#e9d1a8" d="M 379.5,84.5 C 380.833,84.1667 380.833,83.8333 379.5,83.5C 378.964,80.1352 380.297,78.1352 383.5,77.5C 391.435,77.1803 399.435,77.5136 407.5,78.5C 407.5,82.5 407.5,86.5 407.5,90.5C 398.167,90.5 388.833,90.5 379.5,90.5C 379.5,88.5 379.5,86.5 379.5,84.5 Z"/></g>
<g><path style="opacity:1" fill="#ecbc74" d="M 381.5,79.5 C 389.833,79.5 398.167,79.5 406.5,79.5C 406.5,82.8333 406.5,86.1667 406.5,89.5C 398.167,89.5 389.833,89.5 381.5,89.5C 381.5,86.1667 381.5,82.8333 381.5,79.5 Z"/></g>
<g><path style="opacity:1" fill="#393e42" d="M 218.5,137.5 C 215.222,136.191 212.222,134.358 209.5,132C 206.167,131.333 202.833,131.333 199.5,132C 195.348,134.189 192.014,137.022 189.5,140.5C 188.923,135.919 189.923,131.752 192.5,128C 190.249,128.207 187.915,128.373 185.5,128.5C 184.965,125.762 185.965,123.928 188.5,123C 185.397,121.561 182.564,119.727 180,117.5C 178.578,114.97 178.245,112.303 179,109.5C 182.431,105.106 186.431,104.439 191,107.5C 189.712,101.973 189.379,96.3065 190,90.5C 190.374,89.5838 190.874,88.7504 191.5,88C 200.18,86.6674 204.68,90.5008 205,99.5C 209.333,94.1667 213.667,94.1667 218,99.5C 218.567,108.375 215.734,116.042 209.5,122.5C 215.83,125.491 218.83,130.491 218.5,137.5 Z"/></g>
<g><path style="opacity:1" fill="#6e645c" d="M 323.5,97.5 C 323.5,97.8333 323.5,98.1667 323.5,98.5C 313.833,98.5 304.167,98.5 294.5,98.5C 293.833,104.5 293.167,110.5 292.5,116.5C 292.5,110.167 292.5,103.833 292.5,97.5C 302.833,97.5 313.167,97.5 323.5,97.5 Z"/></g>
<g><path style="opacity:1" fill="#e8bc7d" d="M 136.5,103.5 C 136.5,104.5 136.5,105.5 136.5,106.5C 134.9,108.703 133.567,111.036 132.5,113.5C 132.5,111.167 132.5,108.833 132.5,106.5C 130.876,106.36 129.71,107.027 129,108.5C 127.812,107.437 127.312,106.103 127.5,104.5C 125.5,104.5 123.5,104.5 121.5,104.5C 121.5,105.833 121.5,107.167 121.5,108.5C 118.365,108.452 116.698,106.785 116.5,103.5C 115.137,102.121 114.137,102.287 113.5,104C 117.039,108.582 119.373,113.748 120.5,119.5C 121.454,122.221 121.454,124.888 120.5,127.5C 119.522,127.023 118.689,126.357 118,125.5C 116.802,120.073 115.302,114.74 113.5,109.5C 113.245,106.984 112.411,104.65 111,102.5C 110.865,104.922 111.365,107.255 112.5,109.5C 110.629,109.141 109.129,108.141 108,106.5C 107.257,102.075 109.09,99.4079 113.5,98.5C 113.281,97.325 113.614,96.325 114.5,95.5C 115.85,96.9501 117.516,97.6168 119.5,97.5C 119.338,95.4727 119.505,93.4727 120,91.5C 123.769,87.7489 127.936,87.7489 132.5,91.5C 133.238,95.8243 134.572,99.8243 136.5,103.5 Z"/></g>
<g><path style="opacity:1" fill="#f6daa7" d="M 124.5,90.5 C 128.838,90.6219 129.172,90.9553 125.5,91.5C 125.33,92.8221 125.663,93.9887 126.5,95C 124.018,96.9548 123.852,99.1215 126,101.5C 129.508,97.3888 130.008,97.5555 127.5,102C 127.833,102.333 128.167,102.667 128.5,103C 124.638,103.913 120.972,103.58 117.5,102C 119.577,101.808 121.577,101.308 123.5,100.5C 122.26,97.0262 122.593,93.6928 124.5,90.5 Z"/></g>
<g><path style="opacity:0.995" fill="#f1e5db" d="M 350.5,91.5 C 351.473,93.9479 351.806,96.6146 351.5,99.5C 358.522,102.351 364.522,106.684 369.5,112.5C 358.833,112.5 348.167,112.5 337.5,112.5C 337.5,109.5 337.5,106.5 337.5,103.5C 341.833,103.5 346.167,103.5 350.5,103.5C 350.5,99.5 350.5,95.5 350.5,91.5 Z"/></g>
<g><path style="opacity:1" fill="#f2e6dc" d="M 294.5,98.5 C 304.167,98.5 313.833,98.5 323.5,98.5C 323.5,100.167 323.5,101.833 323.5,103.5C 327.833,103.5 332.167,103.5 336.5,103.5C 336.5,106.833 336.5,110.167 336.5,113.5C 348.989,114.495 361.656,114.829 374.5,114.5C 378.174,119.172 381.84,123.839 385.5,128.5C 383.833,128.5 382.167,128.5 380.5,128.5C 380.5,130.167 380.5,131.833 380.5,133.5C 366.167,133.5 351.833,133.5 337.5,133.5C 337.5,136.167 337.5,138.833 337.5,141.5C 333.167,141.5 328.833,141.5 324.5,141.5C 324.5,143.833 324.5,146.167 324.5,148.5C 320.167,148.5 315.833,148.5 311.5,148.5C 311.061,145.531 309.561,144.864 307,146.5C 305.739,146.241 304.739,145.574 304,144.5C 303.505,142.527 303.338,140.527 303.5,138.5C 300.386,137.108 297.386,135.442 294.5,133.5C 294.5,131.833 294.5,130.167 294.5,128.5C 298.5,128.5 302.5,128.5 306.5,128.5C 306.5,124.5 306.5,120.5 306.5,116.5C 302.5,116.5 298.5,116.5 294.5,116.5C 294.5,110.5 294.5,104.5 294.5,98.5 Z"/></g>
<g><path style="opacity:1" fill="#e6be86" d="M 350.5,91.5 C 350.5,95.5 350.5,99.5 350.5,103.5C 346.167,103.5 341.833,103.5 337.5,103.5C 337.167,103.5 336.833,103.5 336.5,103.5C 332.167,103.5 327.833,103.5 323.5,103.5C 323.5,101.833 323.5,100.167 323.5,98.5C 323.5,98.1667 323.5,97.8333 323.5,97.5C 323.5,95.5 323.5,93.5 323.5,91.5C 327.833,91.5 332.167,91.5 336.5,91.5C 336.833,91.5 337.167,91.5 337.5,91.5C 340.5,91.5 343.5,91.5 346.5,91.5C 347.702,90.5946 349.036,90.5946 350.5,91.5 Z"/></g>
<g><path style="opacity:1" fill="#eebc73" d="M 324.5,92.5 C 332.167,92.5 339.833,92.5 347.5,92.5C 347.784,95.7766 347.451,98.9433 346.5,102C 339.174,102.5 331.841,102.666 324.5,102.5C 324.5,99.1667 324.5,95.8333 324.5,92.5 Z"/></g>
<g><path style="opacity:1" fill="#876833" d="M 113.5,109.5 C 113.167,109.5 112.833,109.5 112.5,109.5C 111.365,107.255 110.865,104.922 111,102.5C 112.411,104.65 113.245,106.984 113.5,109.5 Z"/></g>
<g><path style="opacity:0.991" fill="#dfd3c9" d="M 374.5,114.5 C 361.656,114.829 348.989,114.495 336.5,113.5C 351.579,113.832 365.913,113.499 379.5,112.5C 380.15,110.565 380.483,108.565 380.5,106.5C 388.84,106.334 397.173,106.5 405.5,107C 407.389,110.836 408.055,115.003 407.5,119.5C 398.5,119.5 389.5,119.5 380.5,119.5C 380.512,115.554 378.512,113.887 374.5,114.5 Z"/></g>
<g><path style="opacity:1" fill="#e6d0be" d="M 383.5,108.5 C 390.508,108.334 397.508,108.5 404.5,109C 406.344,111.804 407.011,114.97 406.5,118.5C 398.167,118.5 389.833,118.5 381.5,118.5C 381.155,114.885 381.822,111.552 383.5,108.5 Z"/></g>
<g><path style="opacity:1" fill="#8b8580" d="M 336.5,103.5 C 336.833,103.5 337.167,103.5 337.5,103.5C 337.5,106.5 337.5,109.5 337.5,112.5C 348.167,112.5 358.833,112.5 369.5,112.5C 372.833,112.5 376.167,112.5 379.5,112.5C 365.913,113.499 351.579,113.832 336.5,113.5C 336.5,110.167 336.5,106.833 336.5,103.5 Z"/></g>
<g><path style="opacity:1" fill="#e4cfbf" d="M 294.5,98.5 C 294.5,104.5 294.5,110.5 294.5,116.5C 298.5,116.5 302.5,116.5 306.5,116.5C 306.5,120.5 306.5,124.5 306.5,128.5C 302.5,128.5 298.5,128.5 294.5,128.5C 294.5,130.167 294.5,131.833 294.5,133.5C 294.5,138.5 294.5,143.5 294.5,148.5C 293.869,141.593 293.203,135.26 292.5,129.5C 288.265,128.564 283.931,128.231 279.5,128.5C 279.5,126.833 279.5,125.167 279.5,123.5C 279.5,122.833 279.5,122.167 279.5,121.5C 279.5,119.833 279.5,118.167 279.5,116.5C 283.833,116.5 288.167,116.5 292.5,116.5C 293.167,110.5 293.833,104.5 294.5,98.5 Z"/></g>
<g><path style="opacity:1" fill="#8c7e71" d="M 279.5,121.5 C 279.5,122.167 279.5,122.833 279.5,123.5C 264.833,123.5 250.167,123.5 235.5,123.5C 235.5,136.833 235.5,150.167 235.5,163.5C 235.5,169.167 235.5,174.833 235.5,180.5C 234.51,174.69 234.177,168.69 234.5,162.5C 234.5,148.833 234.5,135.167 234.5,121.5C 249.5,121.5 264.5,121.5 279.5,121.5 Z"/></g>
<g><path style="opacity:1" fill="#ecbc77" d="M 143.5,73.5 C 149.726,77.6267 153.726,83.2934 155.5,90.5C 156.956,97.5333 156.79,104.533 155,111.5C 145.281,130.935 130.114,136.935 109.5,129.5C 101.689,125.69 96.3556,119.69 93.5,111.5C 95.288,111.785 96.9547,111.452 98.5,110.5C 100.401,104.293 102.067,104.626 103.5,111.5C 102.022,111.238 100.689,111.571 99.5,112.5C 100.727,115.868 102.894,116.868 106,115.5C 105.923,114.262 106.089,113.262 106.5,112.5C 108.413,113.373 110.247,114.373 112,115.5C 112.495,113.527 112.662,111.527 112.5,109.5C 112.833,109.5 113.167,109.5 113.5,109.5C 115.302,114.74 116.802,120.073 118,125.5C 118.689,126.357 119.522,127.023 120.5,127.5C 121.454,124.888 121.454,122.221 120.5,119.5C 119.373,113.748 117.039,108.582 113.5,104C 114.137,102.287 115.137,102.121 116.5,103.5C 116.698,106.785 118.365,108.452 121.5,108.5C 121.5,107.167 121.5,105.833 121.5,104.5C 123.5,104.5 125.5,104.5 127.5,104.5C 127.312,106.103 127.812,107.437 129,108.5C 129.71,107.027 130.876,106.36 132.5,106.5C 132.5,108.833 132.5,111.167 132.5,113.5C 131.782,115.137 131.616,116.803 132,118.5C 134.002,114.658 135.502,110.658 136.5,106.5C 138.404,104.956 139.238,102.956 139,100.5C 138.148,101.571 137.315,102.571 136.5,103.5C 136.5,101.833 136.5,100.167 136.5,98.5C 137.5,98.5 138.5,98.5 139.5,98.5C 139.633,95.1043 140.633,94.7709 142.5,97.5C 143.59,96.273 144.924,95.4396 146.5,95C 145.839,91.8632 144.505,89.0299 142.5,86.5C 143.072,84.3127 143.072,81.9794 142.5,79.5C 143.675,79.719 144.675,79.3857 145.5,78.5C 143.577,77.6922 141.577,77.1922 139.5,77C 141.544,76.5017 142.878,75.335 143.5,73.5 Z"/></g>
<g><path style="opacity:1" fill="#8a6937" d="M 136.5,106.5 C 135.502,110.658 134.002,114.658 132,118.5C 131.616,116.803 131.782,115.137 132.5,113.5C 133.567,111.036 134.9,108.703 136.5,106.5 Z"/></g>
<g><path style="opacity:1" fill="#8f673a" d="M 136.5,106.5 C 136.5,105.5 136.5,104.5 136.5,103.5C 137.315,102.571 138.148,101.571 139,100.5C 139.238,102.956 138.404,104.956 136.5,106.5 Z"/></g>
<g><path style="opacity:1" fill="#fdfcfb" d="M 292.5,135.5 C 292.5,139.833 292.5,144.167 292.5,148.5C 274.712,141.068 262.379,146.235 255.5,164C 251.638,164.913 247.972,164.58 244.5,163C 246.697,160.352 246.697,157.852 244.5,155.5C 246.132,151.91 247.466,148.243 248.5,144.5C 250.968,145.75 253.301,145.583 255.5,144C 256.573,142.75 256.573,141.416 255.5,140C 255.725,138.379 256.558,137.212 258,136.5C 260.478,135.755 262.978,135.089 265.5,134.5C 268.115,135.269 270.781,135.603 273.5,135.5C 273.5,134.167 273.5,132.833 273.5,131.5C 277.555,131.176 281.555,131.509 285.5,132.5C 287.063,135.029 289.396,136.029 292.5,135.5 Z"/></g>
<g><path style="opacity:1" fill="#817871" d="M 380.5,133.5 C 380.5,134.167 380.167,134.5 379.5,134.5C 365.833,134.5 352.167,134.5 338.5,134.5C 338.5,136.833 338.5,139.167 338.5,141.5C 338.167,141.5 337.833,141.5 337.5,141.5C 337.5,138.833 337.5,136.167 337.5,133.5C 351.833,133.5 366.167,133.5 380.5,133.5 Z"/></g>
<g><path style="opacity:1" fill="#fbfbfa" d="M 294.5,133.5 C 297.386,135.442 300.386,137.108 303.5,138.5C 303.338,140.527 303.505,142.527 304,144.5C 304.739,145.574 305.739,146.241 307,146.5C 309.561,144.864 311.061,145.531 311.5,148.5C 305.833,148.5 300.167,148.5 294.5,148.5C 294.5,143.5 294.5,138.5 294.5,133.5 Z"/></g>
<g><path style="opacity:1" fill="#f1e5db" d="M 379.5,134.5 C 379.989,135.995 380.655,137.329 381.5,138.5C 386.056,140.442 391.056,141.108 396.5,140.5C 399.907,146.309 403.574,151.975 407.5,157.5C 398.5,157.5 389.5,157.5 380.5,157.5C 380.5,159.167 380.5,160.833 380.5,162.5C 366.5,162.5 352.5,162.5 338.5,162.5C 338.5,159.5 338.5,156.5 338.5,153.5C 342.833,153.5 347.167,153.5 351.5,153.5C 351.5,149.5 351.5,145.5 351.5,141.5C 347.167,141.5 342.833,141.5 338.5,141.5C 338.5,139.167 338.5,136.833 338.5,134.5C 352.167,134.5 365.833,134.5 379.5,134.5 Z"/></g>
<g><path style="opacity:1" fill="#949592" d="M 111.5,137.5 C 119.331,137.741 127.331,137.407 135.5,136.5C 136.463,136.97 136.463,137.637 135.5,138.5C 127.378,140.093 119.378,139.76 111.5,137.5 Z"/></g>
<g><path style="opacity:1" fill="#fafbfb" d="M 111.5,137.5 C 119.378,139.76 127.378,140.093 135.5,138.5C 136.686,139.705 136.686,141.039 135.5,142.5C 128.159,143.79 120.826,143.79 113.5,142.5C 112.032,141.221 111.365,139.554 111.5,137.5 Z"/></g>
<g><path style="opacity:1" fill="#76514d" d="M 218.5,137.5 C 218.328,138.492 218.662,139.158 219.5,139.5C 219.665,142.85 219.498,146.183 219,149.5C 218.161,148.376 216.994,147.709 215.5,147.5C 213.488,147.84 211.488,148.173 209.5,148.5C 208.483,144.211 210.15,141.878 214.5,141.5C 214.171,136.505 211.505,133.838 206.5,133.5C 203.679,135.122 200.679,136.289 197.5,137C 196.5,138.667 195.5,140.333 194.5,142C 198.674,142.233 202.341,143.566 205.5,146C 204.167,147.84 204.334,148.34 206,147.5C 208.55,151.763 207.383,154.43 202.5,155.5C 200.354,154.106 198.021,153.44 195.5,153.5C 195.43,157.601 197.43,160.101 201.5,161C 206.382,162.213 210.548,161.046 214,157.5C 214.399,157.728 214.565,158.062 214.5,158.5C 214.5,159.5 214.5,160.5 214.5,161.5C 212.938,163.372 211.938,165.705 211.5,168.5C 210.095,166.093 208.095,164.426 205.5,163.5C 201.199,163.182 197.532,161.515 194.5,158.5C 194.672,157.508 194.338,156.842 193.5,156.5C 193.116,152.302 190.782,150.468 186.5,151C 181.914,145.73 182.914,142.23 189.5,140.5C 192.014,137.022 195.348,134.189 199.5,132C 202.833,131.333 206.167,131.333 209.5,132C 212.222,134.358 215.222,136.191 218.5,137.5 Z"/></g>
<g><path style="opacity:0.908" fill="#e4c49a" d="M 385.5,128.5 C 393.167,128.5 400.833,128.5 408.5,128.5C 408.5,132.5 408.5,136.5 408.5,140.5C 404.5,140.5 400.5,140.5 396.5,140.5C 391.056,141.108 386.056,140.442 381.5,138.5C 380.655,137.329 379.989,135.995 379.5,134.5C 380.167,134.5 380.5,134.167 380.5,133.5C 380.5,131.833 380.5,130.167 380.5,128.5C 382.167,128.5 383.833,128.5 385.5,128.5 Z"/></g>
<g><path style="opacity:1" fill="#edbc74" d="M 381.5,138.5 C 381.274,135.751 381.607,133.084 382.5,130.5C 390.472,129.502 398.472,129.169 406.5,129.5C 406.5,132.833 406.5,136.167 406.5,139.5C 398.082,139.802 389.748,139.469 381.5,138.5 Z"/></g>
<g><path style="opacity:1" fill="#d3bca5" d="M 337.5,141.5 C 337.833,141.5 338.167,141.5 338.5,141.5C 342.833,141.5 347.167,141.5 351.5,141.5C 351.5,145.5 351.5,149.5 351.5,153.5C 347.167,153.5 342.833,153.5 338.5,153.5C 338.167,153.5 337.833,153.5 337.5,153.5C 333.167,153.5 328.833,153.5 324.5,153.5C 324.5,152.167 324.5,150.833 324.5,149.5C 324.5,149.167 324.5,148.833 324.5,148.5C 324.5,146.167 324.5,143.833 324.5,141.5C 328.833,141.5 333.167,141.5 337.5,141.5 Z"/></g>
<g><path style="opacity:1" fill="#787a7c" d="M 112.5,143.5 C 112.5,142.833 112.833,142.5 113.5,142.5C 120.826,143.79 128.159,143.79 135.5,142.5C 135.938,142.435 136.272,142.601 136.5,143C 135.263,143.232 134.263,143.732 133.5,144.5C 126.443,144.76 119.443,144.427 112.5,143.5 Z"/></g>
<g><path style="opacity:1" fill="#d2bebb" d="M 193.5,143.5 C 197.97,143.03 198.47,144.03 195,146.5C 193.961,145.756 193.461,144.756 193.5,143.5 Z"/></g>
<g><path style="opacity:1" fill="#fdfdfc" d="M 112.5,143.5 C 119.443,144.427 126.443,144.76 133.5,144.5C 134.239,144.369 134.906,144.536 135.5,145C 131.118,152.525 125.118,154.192 117.5,150C 115.21,148.223 113.543,146.056 112.5,143.5 Z"/></g>
<g><path style="opacity:1" fill="#f2e6dd" d="M 279.5,123.5 C 279.5,125.167 279.5,126.833 279.5,128.5C 283.931,128.231 288.265,128.564 292.5,129.5C 292.5,131.5 292.5,133.5 292.5,135.5C 289.396,136.029 287.063,135.029 285.5,132.5C 281.555,131.509 277.555,131.176 273.5,131.5C 273.5,132.833 273.5,134.167 273.5,135.5C 270.781,135.603 268.115,135.269 265.5,134.5C 262.978,135.089 260.478,135.755 258,136.5C 256.558,137.212 255.725,138.379 255.5,140C 256.573,141.416 256.573,142.75 255.5,144C 253.301,145.583 250.968,145.75 248.5,144.5C 247.466,148.243 246.132,151.91 244.5,155.5C 246.697,157.852 246.697,160.352 244.5,163C 247.972,164.58 251.638,164.913 255.5,164C 262.379,146.235 274.712,141.068 292.5,148.5C 292.842,149.338 293.508,149.672 294.5,149.5C 302.816,156.961 305.649,166.294 303,177.5C 299.686,186.738 293.186,192.071 283.5,193.5C 283.5,194.5 283.5,195.5 283.5,196.5C 280.379,190.259 277.213,183.925 274,177.5C 269.196,173.095 263.696,169.595 257.5,167C 250.142,165.831 242.809,164.664 235.5,163.5C 235.5,150.167 235.5,136.833 235.5,123.5C 250.167,123.5 264.833,123.5 279.5,123.5 Z"/></g>
<g><path style="opacity:1" fill="#595756" d="M 294.5,148.5 C 300.167,148.5 305.833,148.5 311.5,148.5C 315.833,148.5 320.167,148.5 324.5,148.5C 324.5,148.833 324.5,149.167 324.5,149.5C 320.833,149.5 317.167,149.5 313.5,149.5C 307.167,149.5 300.833,149.5 294.5,149.5C 293.508,149.672 292.842,149.338 292.5,148.5C 292.5,144.167 292.5,139.833 292.5,135.5C 292.5,133.5 292.5,131.5 292.5,129.5C 293.203,135.26 293.869,141.593 294.5,148.5 Z"/></g>
<g><path style="opacity:1" fill="#fdfdfb" d="M 294.5,149.5 C 300.833,149.5 307.167,149.5 313.5,149.5C 314.014,151.366 314.68,153.2 315.5,155C 313.823,157.547 313.156,160.38 313.5,163.5C 314.833,163.5 316.167,163.5 317.5,163.5C 317.5,167.5 317.5,171.5 317.5,175.5C 316.167,175.5 314.833,175.5 313.5,175.5C 313.63,178.992 314.13,182.325 315,185.5C 313.13,187.405 311.63,189.572 310.5,192C 308.423,192.192 306.423,192.692 304.5,193.5C 303.94,195.854 303.273,198.187 302.5,200.5C 299.494,202.176 296.494,203.843 293.5,205.5C 291.056,203.238 288.389,202.904 285.5,204.5C 284.629,201.888 283.963,199.221 283.5,196.5C 283.5,195.5 283.5,194.5 283.5,193.5C 293.186,192.071 299.686,186.738 303,177.5C 305.649,166.294 302.816,156.961 294.5,149.5 Z"/></g>
<g><path style="opacity:1" fill="#82544f" d="M 219.5,139.5 C 221.722,139.178 223.556,139.845 225,141.5C 226.119,147.265 223.786,150.598 218,151.5C 217.33,154.174 216.163,156.507 214.5,158.5C 214.565,158.062 214.399,157.728 214,157.5C 210.548,161.046 206.382,162.213 201.5,161C 197.43,160.101 195.43,157.601 195.5,153.5C 198.021,153.44 200.354,154.106 202.5,155.5C 207.383,154.43 208.55,151.763 206,147.5C 204.334,148.34 204.167,147.84 205.5,146C 202.341,143.566 198.674,142.233 194.5,142C 195.5,140.333 196.5,138.667 197.5,137C 200.679,136.289 203.679,135.122 206.5,133.5C 211.505,133.838 214.171,136.505 214.5,141.5C 210.15,141.878 208.483,144.211 209.5,148.5C 211.488,148.173 213.488,147.84 215.5,147.5C 216.994,147.709 218.161,148.376 219,149.5C 219.498,146.183 219.665,142.85 219.5,139.5 Z"/></g>
<g><path style="opacity:1" fill="#eacfd3" d="M 213.5,144.5 C 214.386,143.224 215.386,143.224 216.5,144.5C 215.575,145.562 214.575,145.562 213.5,144.5 Z"/></g>
<g><path style="opacity:1" fill="#938880" d="M 337.5,153.5 C 337.833,153.5 338.167,153.5 338.5,153.5C 338.5,156.5 338.5,159.5 338.5,162.5C 352.5,162.5 366.5,162.5 380.5,162.5C 366.343,163.496 352.01,163.829 337.5,163.5C 337.5,160.167 337.5,156.833 337.5,153.5 Z"/></g>
<g><path style="opacity:1" fill="#e0bb82" d="M 214.5,161.5 C 221.159,161.954 227.826,162.287 234.5,162.5C 234.177,168.69 234.51,174.69 235.5,180.5C 235.44,181.043 235.107,181.376 234.5,181.5C 233.505,175.872 233.171,170.206 233.5,164.5C 227.171,164.1 220.838,163.767 214.5,163.5C 214.5,162.833 214.5,162.167 214.5,161.5 Z"/></g>
<g><path style="opacity:1" fill="#83514d" d="M 194.5,158.5 C 197.532,161.515 201.199,163.182 205.5,163.5C 207.052,166.334 207.719,169.168 207.5,172C 206.391,172.638 205.225,173.138 204,173.5C 202.073,172.139 199.906,171.306 197.5,171C 195.811,167.038 194.811,162.872 194.5,158.5 Z"/></g>
<g><path style="opacity:1" fill="#895846" d="M 193.5,156.5 C 194.338,156.842 194.672,157.508 194.5,158.5C 194.811,162.872 195.811,167.038 197.5,171C 199.906,171.306 202.073,172.139 204,173.5C 205.225,173.138 206.391,172.638 207.5,172C 207.719,169.168 207.052,166.334 205.5,163.5C 208.095,164.426 210.095,166.093 211.5,168.5C 211.938,165.705 212.938,163.372 214.5,161.5C 214.5,162.167 214.5,162.833 214.5,163.5C 213.807,172.863 208.807,176.363 199.5,174C 194.975,171.115 192.975,166.948 193.5,161.5C 193.5,159.833 193.5,158.167 193.5,156.5 Z"/></g>
<g><path style="opacity:1" fill="#edbc75" d="M 193.5,161.5 C 192.975,166.948 194.975,171.115 199.5,174C 208.807,176.363 213.807,172.863 214.5,163.5C 220.838,163.767 227.171,164.1 233.5,164.5C 233.171,170.206 233.505,175.872 234.5,181.5C 235.107,181.376 235.44,181.043 235.5,180.5C 235.5,174.833 235.5,169.167 235.5,163.5C 242.809,164.664 250.142,165.831 257.5,167C 263.696,169.595 269.196,173.095 274,177.5C 277.213,183.925 280.379,190.259 283.5,196.5C 283.963,199.221 284.629,201.888 285.5,204.5C 287.143,208.3 287.81,212.3 287.5,216.5C 285.843,222.652 282.177,227.152 276.5,230C 274.934,230.765 273.601,230.598 272.5,229.5C 282.808,222.773 283.808,214.939 275.5,206C 272.15,204.514 268.816,203.347 265.5,202.5C 265.389,201.883 265.056,201.383 264.5,201C 259.656,200.242 254.989,198.909 250.5,197C 249.439,193.083 248.439,189.249 247.5,185.5C 218.833,185.5 190.167,185.5 161.5,185.5C 151.552,186.45 141.552,186.784 131.5,186.5C 131.46,183.575 132.293,180.909 134,178.5C 136.679,174.924 139.846,171.924 143.5,169.5C 145.659,167.66 148.325,166.493 151.5,166C 165.435,163.87 179.435,162.37 193.5,161.5 Z"/></g>
<g><path style="opacity:1" fill="#4e4635" d="M 161.5,185.5 C 190.167,185.5 218.833,185.5 247.5,185.5C 247.5,189.833 247.5,194.167 247.5,198.5C 246.517,194.702 246.183,190.702 246.5,186.5C 218.5,186.5 190.5,186.5 162.5,186.5C 162.826,195.017 162.493,203.35 161.5,211.5C 161.5,202.833 161.5,194.167 161.5,185.5 Z"/></g>
<g><path style="opacity:1" fill="#fdfdfc" d="M 306.5,268.5 C 325.871,260.096 331.704,246.096 324,226.5C 321.638,222.973 318.804,219.973 315.5,217.5C 314.152,215.52 312.152,214.353 309.5,214C 312.599,209.065 316.266,204.565 320.5,200.5C 326.143,197.009 331.81,193.509 337.5,190C 353.147,184.833 368.48,185.5 383.5,192C 412.33,207.512 422.83,231.345 415,263.5C 406.63,284.857 391.13,298.023 368.5,303C 341.116,306.612 320.783,296.445 307.5,272.5C 306.571,271.311 306.238,269.978 306.5,268.5 Z"/></g>
<g><path style="opacity:1" fill="#927a56" d="M 128.5,187.5 C 138.522,187.168 148.522,187.501 158.5,188.5C 147.854,189.499 137.187,189.832 126.5,189.5C 125.5,189.5 124.5,189.5 123.5,189.5C 123.333,178.495 123.5,167.495 124,156.5C 124.5,166.828 124.666,177.161 124.5,187.5C 125.833,187.5 127.167,187.5 128.5,187.5 Z"/></g>
<g><path style="opacity:1" fill="#373d43" d="M 247.5,198.5 C 247.5,208.833 247.5,219.167 247.5,229.5C 247.5,232.167 247.5,234.833 247.5,237.5C 221.167,237.5 194.833,237.5 168.5,237.5C 166.167,237.5 163.833,237.5 161.5,237.5C 161.5,229.5 161.5,221.5 161.5,213.5C 161.5,212.833 161.5,212.167 161.5,211.5C 162.493,203.35 162.826,195.017 162.5,186.5C 190.5,186.5 218.5,186.5 246.5,186.5C 246.183,190.702 246.517,194.702 247.5,198.5 Z"/></g>
<g><path style="opacity:1" fill="#d5ab7a" d="M 247.5,185.5 C 248.439,189.249 249.439,193.083 250.5,197C 254.989,198.909 259.656,200.242 264.5,201C 265.056,201.383 265.389,201.883 265.5,202.5C 259.506,201.168 253.506,199.835 247.5,198.5C 247.5,194.167 247.5,189.833 247.5,185.5 Z"/></g>
<g><path style="opacity:1" fill="#ebbb7b" d="M 143.5,169.5 C 139.846,171.924 136.679,174.924 134,178.5C 132.293,180.909 131.46,183.575 131.5,186.5C 141.552,186.784 151.552,186.45 161.5,185.5C 161.5,194.167 161.5,202.833 161.5,211.5C 155.429,209.636 149.429,207.469 143.5,205C 129.845,201.985 123.678,207.485 125,221.5C 125.716,223.879 126.883,225.879 128.5,227.5C 128.5,227.833 128.5,228.167 128.5,228.5C 128.103,229.525 127.437,229.692 126.5,229C 121.904,225.64 119.571,221.14 119.5,215.5C 120.601,207.087 122.935,199.087 126.5,191.5C 126.5,190.833 126.5,190.167 126.5,189.5C 137.187,189.832 147.854,189.499 158.5,188.5C 148.522,187.501 138.522,187.168 128.5,187.5C 130.671,179.008 135.671,173.008 143.5,169.5 Z"/></g>
<g><path style="opacity:1" fill="#eebc72" d="M 126.5,191.5 C 137.698,190.865 148.864,190.199 160,189.5C 160.498,192.482 160.665,195.482 160.5,198.5C 156.535,198.304 153.035,196.97 150,194.5C 148.601,195.227 147.101,195.727 145.5,196C 147.909,197.201 149.909,198.867 151.5,201C 146.412,202.194 139.746,202.86 131.5,203C 130,204.115 128.333,204.948 126.5,205.5C 123.108,212.401 121.942,212.068 123,204.5C 125.354,200.467 126.52,196.134 126.5,191.5 Z"/></g>
<g><path style="opacity:1" fill="#895840" d="M 161.5,211.5 C 161.5,212.167 161.5,212.833 161.5,213.5C 153.287,211.389 145.287,208.723 137.5,205.5C 134.623,206.767 131.623,207.767 128.5,208.5C 125.885,214.757 125.885,221.091 128.5,227.5C 126.883,225.879 125.716,223.879 125,221.5C 123.678,207.485 129.845,201.985 143.5,205C 149.429,207.469 155.429,209.636 161.5,211.5 Z"/></g>
<g><path style="opacity:1" fill="#82524b" d="M 247.5,198.5 C 253.506,199.835 259.506,201.168 265.5,202.5C 268.816,203.347 272.15,204.514 275.5,206C 283.808,214.939 282.808,222.773 272.5,229.5C 266.864,231.689 261.198,232.023 255.5,230.5C 252.936,229.118 250.269,228.785 247.5,229.5C 247.5,219.167 247.5,208.833 247.5,198.5 Z"/></g>
<g><path style="opacity:1" fill="#82524c" d="M 161.5,213.5 C 161.5,221.5 161.5,229.5 161.5,237.5C 163.833,237.5 166.167,237.5 168.5,237.5C 168.5,237.833 168.5,238.167 168.5,238.5C 165.941,238.198 163.607,238.532 161.5,239.5C 154.455,238.324 147.455,236.824 140.5,235C 136.298,233.108 132.298,230.941 128.5,228.5C 128.5,228.167 128.5,227.833 128.5,227.5C 125.885,221.091 125.885,214.757 128.5,208.5C 131.623,207.767 134.623,206.767 137.5,205.5C 145.287,208.723 153.287,211.389 161.5,213.5 Z"/></g>
<g><path style="opacity:1" fill="#f2e6dc" d="M 72.5,203.5 C 72.533,206.836 71.8664,210.003 70.5,213C 70.8963,216.504 71.2297,220.004 71.5,223.5C 74.8499,223.335 78.1832,223.502 81.5,224C 80.8333,226 80.1667,228 79.5,230C 79.0945,231.803 79.5945,233.636 81,235.5C 81.5257,232.728 82.3591,230.062 83.5,227.5C 84.213,225.565 85.213,225.232 86.5,226.5C 78.7991,241.595 81.7991,254.095 95.5,264C 102.91,268.372 110.577,272.205 118.5,275.5C 118.833,275.5 119.167,275.5 119.5,275.5C 128.643,280.164 138.143,284.164 148,287.5C 148.566,285.277 149.4,283.277 150.5,281.5C 151.036,284.665 150.203,287.331 148,289.5C 147.187,291.436 146.687,293.436 146.5,295.5C 166.833,295.5 187.167,295.5 207.5,295.5C 207.5,291.833 207.5,288.167 207.5,284.5C 209.082,287.876 209.749,291.542 209.5,295.5C 209.5,295.833 209.5,296.167 209.5,296.5C 210.225,298.785 211.558,300.618 213.5,302C 211.341,302.912 209.175,303.745 207,304.5C 205.796,303.529 205.296,302.529 205.5,301.5C 204.914,301.709 204.414,302.043 204,302.5C 199.36,299.215 194.193,297.548 188.5,297.5C 163.551,293.388 147.385,303.388 140,327.5C 139.333,340.167 139.333,352.833 140,365.5C 143.478,379.969 151.978,390.136 165.5,396C 167.473,396.495 169.473,396.662 171.5,396.5C 173.265,397.461 175.265,397.795 177.5,397.5C 177.211,401.106 177.544,404.606 178.5,408C 212.832,408.5 247.165,408.667 281.5,408.5C 281.5,414.5 281.5,420.5 281.5,426.5C 285.833,426.5 290.167,426.5 294.5,426.5C 228.001,441.667 169.834,426.001 120,379.5C 119.827,385.016 119.327,390.349 118.5,395.5C 119.358,363.175 119.692,330.842 119.5,298.5C 114.833,298.5 110.167,298.5 105.5,298.5C 105.5,319.833 105.5,341.167 105.5,362.5C 79.6042,329.486 66.6042,291.819 66.5,249.5C 65.8928,233.685 67.8928,218.351 72.5,203.5 Z"/></g>
<g><path style="opacity:1" fill="#8b865c" d="M 119.5,215.5 C 119.571,221.14 121.904,225.64 126.5,229C 127.437,229.692 128.103,229.525 128.5,228.5C 132.298,230.941 136.298,233.108 140.5,235C 147.455,236.824 154.455,238.324 161.5,239.5C 161.5,240.833 161.5,242.167 161.5,243.5C 168.655,244.329 175.989,244.829 183.5,245C 188.577,248.196 193.577,251.363 198.5,254.5C 196.87,259.083 194.87,263.417 192.5,267.5C 192.389,266.883 192.056,266.383 191.5,266C 179.278,263.718 166.945,264.052 154.5,267C 152.293,268.792 150.959,271.126 150.5,274C 149.049,273.737 147.716,273.904 146.5,274.5C 147.748,277.494 147.748,280.494 146.5,283.5C 139.577,280.734 132.577,278.234 125.5,276C 123.527,275.505 121.527,275.338 119.5,275.5C 119.167,275.5 118.833,275.5 118.5,275.5C 118.586,274.504 118.252,273.671 117.5,273C 110.617,272.361 108.617,269.194 111.5,263.5C 111.167,262.167 110.833,260.833 110.5,259.5C 110.602,264.572 108.269,266.405 103.5,265C 85.143,256.389 80.143,242.889 88.5,224.5C 89.7063,221.702 91.7063,219.535 94.5,218C 102.511,214.365 110.844,213.531 119.5,215.5 Z"/></g>
<g><path style="opacity:1" fill="#8b865c" d="M 315.5,217.5 C 318.804,219.973 321.638,222.973 324,226.5C 331.704,246.096 325.871,260.096 306.5,268.5C 303.968,269.596 301.635,270.929 299.5,272.5C 288.612,277.11 277.612,281.444 266.5,285.5C 255.058,289.589 243.392,292.922 231.5,295.5C 229.959,294.714 228.626,293.714 227.5,292.5C 224.944,283.826 221.61,275.493 217.5,267.5C 215.313,263.955 213.646,260.121 212.5,256C 212.78,254.605 213.447,253.438 214.5,252.5C 218.167,250 221.833,247.5 225.5,245C 233.011,244.829 240.345,244.329 247.5,243.5C 248.323,240.023 248.823,236.356 249,232.5C 250.897,230.984 253.064,230.317 255.5,230.5C 261.198,232.023 266.864,231.689 272.5,229.5C 273.601,230.598 274.934,230.765 276.5,230C 282.177,227.152 285.843,222.652 287.5,216.5C 291.932,215.267 296.432,214.267 301,213.5C 306.051,214.137 310.884,215.47 315.5,217.5 Z"/></g>
<g><path style="opacity:1" fill="#818183" d="M 377.5,217.5 C 379.544,218.031 381.211,219.198 382.5,221C 380.228,220.923 378.562,219.757 377.5,217.5 Z"/></g>
<g><path style="opacity:1" fill="#88898b" d="M 390.5,230.5 C 387.605,228.798 385.772,226.464 385,223.5C 387.454,225.441 389.287,227.775 390.5,230.5 Z"/></g>
<g><path style="opacity:1" fill="#818181" d="M 357.5,227.5 C 352.54,226.511 347.54,225.678 342.5,225C 347.92,223.985 352.92,224.819 357.5,227.5 Z"/></g>
<g><path style="opacity:1" fill="#818181" d="M 357.5,227.5 C 361.272,227.884 364.272,229.55 366.5,232.5C 363.331,231.083 360.331,229.417 357.5,227.5 Z"/></g>
<g><path style="opacity:1" fill="#7b7b7b" d="M 366.5,232.5 C 367.756,232.461 368.756,232.961 369.5,234C 368.002,234.585 367.002,234.085 366.5,232.5 Z"/></g>
<g><path style="opacity:1" fill="#7e7e7e" d="M 390.5,230.5 C 392.446,231.254 393.279,232.588 393,234.5C 391.519,233.529 390.685,232.196 390.5,230.5 Z"/></g>
<g><path style="opacity:1" fill="#706e5c" d="M 255.5,230.5 C 253.064,230.317 250.897,230.984 249,232.5C 248.823,236.356 248.323,240.023 247.5,243.5C 247.5,241.833 247.5,240.167 247.5,238.5C 221.167,238.5 194.833,238.5 168.5,238.5C 168.5,238.167 168.5,237.833 168.5,237.5C 194.833,237.5 221.167,237.5 247.5,237.5C 247.5,234.833 247.5,232.167 247.5,229.5C 250.269,228.785 252.936,229.118 255.5,230.5 Z"/></g>
<g><path style="opacity:1" fill="#7f8081" d="M 397.5,242.5 C 395.825,240.821 394.992,238.821 395,236.5C 396.663,238.158 397.496,240.158 397.5,242.5 Z"/></g>
<g><path style="opacity:1" fill="#8c8c8c" d="M 376.5,242.5 C 374.554,241.746 373.721,240.412 374,238.5C 375.481,239.471 376.315,240.804 376.5,242.5 Z"/></g>
<g><path style="opacity:1" fill="#3e3f39" d="M 168.5,238.5 C 194.833,238.5 221.167,238.5 247.5,238.5C 247.5,240.167 247.5,241.833 247.5,243.5C 218.833,243.5 190.167,243.5 161.5,243.5C 161.5,242.167 161.5,240.833 161.5,239.5C 163.607,238.532 165.941,238.198 168.5,238.5 Z"/></g>
<g><path style="opacity:1" fill="#363c42" d="M 163.5,239.5 C 190.508,239.167 217.508,239.5 244.5,240.5C 242.922,241.298 241.256,241.798 239.5,242C 214.169,242.5 188.836,242.667 163.5,242.5C 163.5,241.5 163.5,240.5 163.5,239.5 Z"/></g>
<g><path style="opacity:1" fill="#838485" d="M 350.5,244.5 C 347.784,244.322 345.117,243.822 342.5,243C 345.482,242.297 348.149,242.797 350.5,244.5 Z"/></g>
<g><path style="opacity:1" fill="#818181" d="M 376.5,242.5 C 378.085,243.002 378.585,244.002 378,245.5C 376.961,244.756 376.461,243.756 376.5,242.5 Z"/></g>
<g><path style="opacity:1" fill="#7f7f7f" d="M 397.5,242.5 C 401.612,249.899 403.112,257.899 402,266.5C 401.466,258.294 399.966,250.294 397.5,242.5 Z"/></g>
<g><path style="opacity:1" fill="#7d7d7d" d="M 350.5,244.5 C 353.358,244.595 355.691,245.762 357.5,248C 354.973,247.404 352.64,246.237 350.5,244.5 Z"/></g>
<g><path style="opacity:1" fill="#8f8866" d="M 88.5,224.5 C 80.143,242.889 85.143,256.389 103.5,265C 108.269,266.405 110.602,264.572 110.5,259.5C 110.833,260.833 111.167,262.167 111.5,263.5C 108.617,269.194 110.617,272.361 117.5,273C 118.252,273.671 118.586,274.504 118.5,275.5C 110.577,272.205 102.91,268.372 95.5,264C 81.7991,254.095 78.7991,241.595 86.5,226.5C 86.8333,225.5 87.5,224.833 88.5,224.5 Z"/></g>
<g><path style="opacity:1" fill="#838383" d="M 380.5,249.5 C 384.017,254.584 385.184,260.251 384,266.5C 383.15,260.748 381.983,255.081 380.5,249.5 Z"/></g>
<g><path style="opacity:1" fill="#868686" d="M 362.5,254.5 C 360.554,253.746 359.721,252.412 360,250.5C 361.481,251.471 362.315,252.804 362.5,254.5 Z"/></g>
<g><path style="opacity:1" fill="#736c45" d="M 161.5,243.5 C 190.167,243.5 218.833,243.5 247.5,243.5C 240.345,244.329 233.011,244.829 225.5,245C 221.833,247.5 218.167,250 214.5,252.5C 213.447,253.438 212.78,254.605 212.5,256C 213.646,260.121 215.313,263.955 217.5,267.5C 214.169,267.018 211.503,268.018 209.5,270.5C 207.847,270.66 206.514,271.326 205.5,272.5C 201.178,271.171 196.845,269.837 192.5,268.5C 192.5,268.167 192.5,267.833 192.5,267.5C 194.87,263.417 196.87,259.083 198.5,254.5C 193.577,251.363 188.577,248.196 183.5,245C 175.989,244.829 168.655,244.329 161.5,243.5 Z"/></g>
<g><path style="opacity:1" fill="#cb826e" d="M 351.5,260.5 C 342.671,253.69 336.337,255.524 332.5,266C 334.193,268.22 335.193,270.72 335.5,273.5C 331.296,269.939 330.463,265.605 333,260.5C 338.007,254.792 343.841,253.959 350.5,258C 351.252,258.671 351.586,259.504 351.5,260.5 Z"/></g>
<g><path style="opacity:1" fill="#d77457" d="M 351.5,260.5 C 353.988,264.359 353.988,268.359 351.5,272.5C 348.395,272.782 345.562,273.782 343,275.5C 340.73,274.14 338.23,273.473 335.5,273.5C 335.193,270.72 334.193,268.22 332.5,266C 336.337,255.524 342.671,253.69 351.5,260.5 Z"/></g>
<g><path style="opacity:1" fill="#9ea1a2" d="M 362.5,254.5 C 365.387,258.047 366.387,262.047 365.5,266.5C 364.68,262.369 363.68,258.369 362.5,254.5 Z"/></g>
<g><path style="opacity:1" fill="#fbfbfa" d="M 192.5,268.5 C 196.845,269.837 201.178,271.171 205.5,272.5C 205.263,273.791 205.596,274.791 206.5,275.5C 206.963,278.482 207.296,281.482 207.5,284.5C 207.5,288.167 207.5,291.833 207.5,295.5C 187.167,295.5 166.833,295.5 146.5,295.5C 146.687,293.436 147.187,291.436 148,289.5C 150.203,287.331 151.036,284.665 150.5,281.5C 151.023,278.11 151.857,274.777 153,271.5C 159.878,267.407 167.378,265.741 175.5,266.5C 181.315,266.352 186.982,267.018 192.5,268.5 Z"/></g>
<g><path style="opacity:1" fill="#8c8966" d="M 192.5,267.5 C 192.5,267.833 192.5,268.167 192.5,268.5C 186.982,267.018 181.315,266.352 175.5,266.5C 167.378,265.741 159.878,267.407 153,271.5C 151.857,274.777 151.023,278.11 150.5,281.5C 149.4,283.277 148.566,285.277 148,287.5C 138.143,284.164 128.643,280.164 119.5,275.5C 121.527,275.338 123.527,275.505 125.5,276C 132.577,278.234 139.577,280.734 146.5,283.5C 147.748,280.494 147.748,277.494 146.5,274.5C 147.716,273.904 149.049,273.737 150.5,274C 150.959,271.126 152.293,268.792 154.5,267C 166.945,264.052 179.278,263.718 191.5,266C 192.056,266.383 192.389,266.883 192.5,267.5 Z"/></g>
<g><path style="opacity:1" fill="#c2a899" d="M 209.5,270.5 C 209.938,270.435 210.272,270.601 210.5,271C 207.894,271.45 206.561,272.95 206.5,275.5C 205.596,274.791 205.263,273.791 205.5,272.5C 206.514,271.326 207.847,270.66 209.5,270.5 Z"/></g>
<g><path style="opacity:1" fill="#aeafb1" d="M 190.5,274.5 C 191.812,276.743 192.478,279.41 192.5,282.5C 192.167,285.167 191.833,287.833 191.5,290.5C 190.505,285.208 190.172,279.875 190.5,274.5 Z"/></g>
<g><path style="opacity:1" fill="#81534c" d="M 217.5,267.5 C 221.61,275.493 224.944,283.826 227.5,292.5C 221.46,293.285 215.46,294.285 209.5,295.5C 209.749,291.542 209.082,287.876 207.5,284.5C 207.296,281.482 206.963,278.482 206.5,275.5C 206.561,272.95 207.894,271.45 210.5,271C 210.272,270.601 209.938,270.435 209.5,270.5C 211.503,268.018 214.169,267.018 217.5,267.5 Z"/></g>
<g><path style="opacity:1" fill="#d3bfa8" d="M 266.5,285.5 C 266.804,289.215 266.137,292.715 264.5,296C 250.171,296.5 235.837,296.667 221.5,296.5C 217.5,296.5 213.5,296.5 209.5,296.5C 209.5,296.167 209.5,295.833 209.5,295.5C 215.46,294.285 221.46,293.285 227.5,292.5C 228.626,293.714 229.959,294.714 231.5,295.5C 243.392,292.922 255.058,289.589 266.5,285.5 Z"/></g>
<g><path style="opacity:1" fill="#f1e2d3" d="M 299.5,272.5 C 300.562,273.575 300.562,274.575 299.5,275.5C 297.018,276.897 294.352,277.731 291.5,278C 292.696,278.654 292.696,279.154 291.5,279.5C 290.833,279.167 290.167,278.833 289.5,278.5C 282.647,281.627 275.647,284.293 268.5,286.5C 268.659,289.325 268.659,292.159 268.5,295C 269.108,295.87 269.941,296.37 271,296.5C 275.81,296.587 280.476,296.253 285,295.5C 286.194,296.43 287.527,297.097 289,297.5C 293.689,295.227 298.523,294.894 303.5,296.5C 303.5,300.833 303.5,305.167 303.5,309.5C 292.5,309.5 281.5,309.5 270.5,309.5C 270.831,338.338 270.498,367.005 269.5,395.5C 267.572,397.113 265.238,398.113 262.5,398.5C 260.556,397.811 258.556,397.311 256.5,397C 255.427,395.687 254.76,394.187 254.5,392.5C 255.617,365.762 255.784,339.095 255,312.5C 254.667,311.833 254.333,311.167 254,310.5C 248.667,310.5 243.333,310.5 238,310.5C 233.389,313.207 228.722,312.873 224,309.5C 222.665,305.248 221.831,300.914 221.5,296.5C 235.837,296.667 250.171,296.5 264.5,296C 266.137,292.715 266.804,289.215 266.5,285.5C 277.612,281.444 288.612,277.11 299.5,272.5 Z"/></g>
<g><path style="opacity:1" fill="#d4bda7" d="M 118.5,395.5 C 114.213,396.695 109.88,396.695 105.5,395.5C 105.5,384.5 105.5,373.5 105.5,362.5C 105.5,341.167 105.5,319.833 105.5,298.5C 110.167,298.5 114.833,298.5 119.5,298.5C 119.692,330.842 119.358,363.175 118.5,395.5 Z"/></g>
<g><path style="opacity:1" fill="#f2e6dc" d="M 313.5,149.5 C 317.167,149.5 320.833,149.5 324.5,149.5C 324.5,150.833 324.5,152.167 324.5,153.5C 328.833,153.5 333.167,153.5 337.5,153.5C 337.5,156.833 337.5,160.167 337.5,163.5C 351.657,164.496 365.99,164.829 380.5,164.5C 380.5,166.167 380.5,167.833 380.5,169.5C 389.5,169.5 398.5,169.5 407.5,169.5C 407.5,165.5 407.5,161.5 407.5,157.5C 434.784,207.875 438.951,260.209 420,314.5C 416.409,323.607 412.242,332.44 407.5,341C 412.019,341.175 416.353,341.675 420.5,342.5C 415.5,342.5 410.5,342.5 405.5,342.5C 405.5,331.5 405.5,320.5 405.5,309.5C 374.662,309.169 343.995,309.502 313.5,310.5C 312.506,320.653 312.172,330.986 312.5,341.5C 302.167,341.5 291.833,341.5 281.5,341.5C 281.5,363.167 281.5,384.833 281.5,406.5C 247.5,406.5 213.5,406.5 179.5,406.5C 179.5,403.5 179.5,400.5 179.5,397.5C 181.099,397.768 182.432,397.434 183.5,396.5C 202.969,392.863 214.136,381.196 217,361.5C 217.667,351.167 217.667,340.833 217,330.5C 213.694,314.035 204.194,303.035 188.5,297.5C 194.193,297.548 199.36,299.215 204,302.5C 204.414,302.043 204.914,301.709 205.5,301.5C 205.296,302.529 205.796,303.529 207,304.5C 209.175,303.745 211.341,302.912 213.5,302C 211.558,300.618 210.225,298.785 209.5,296.5C 213.5,296.5 217.5,296.5 221.5,296.5C 221.831,300.914 222.665,305.248 224,309.5C 228.722,312.873 233.389,313.207 238,310.5C 243.333,310.5 248.667,310.5 254,310.5C 254.333,311.167 254.667,311.833 255,312.5C 255.784,339.095 255.617,365.762 254.5,392.5C 254.76,394.187 255.427,395.687 256.5,397C 258.556,397.311 260.556,397.811 262.5,398.5C 265.238,398.113 267.572,397.113 269.5,395.5C 270.498,367.005 270.831,338.338 270.5,309.5C 281.5,309.5 292.5,309.5 303.5,309.5C 303.5,305.167 303.5,300.833 303.5,296.5C 298.523,294.894 293.689,295.227 289,297.5C 287.527,297.097 286.194,296.43 285,295.5C 280.476,296.253 275.81,296.587 271,296.5C 269.941,296.37 269.108,295.87 268.5,295C 268.659,292.159 268.659,289.325 268.5,286.5C 275.647,284.293 282.647,281.627 289.5,278.5C 290.167,278.833 290.833,279.167 291.5,279.5C 292.696,279.154 292.696,278.654 291.5,278C 294.352,277.731 297.018,276.897 299.5,275.5C 300.562,274.575 300.562,273.575 299.5,272.5C 301.635,270.929 303.968,269.596 306.5,268.5C 306.238,269.978 306.571,271.311 307.5,272.5C 320.783,296.445 341.116,306.612 368.5,303C 391.13,298.023 406.63,284.857 415,263.5C 422.83,231.345 412.33,207.512 383.5,192C 368.48,185.5 353.147,184.833 337.5,190C 331.81,193.509 326.143,197.009 320.5,200.5C 316.266,204.565 312.599,209.065 309.5,214C 312.152,214.353 314.152,215.52 315.5,217.5C 310.884,215.47 306.051,214.137 301,213.5C 296.432,214.267 291.932,215.267 287.5,216.5C 287.81,212.3 287.143,208.3 285.5,204.5C 288.389,202.904 291.056,203.238 293.5,205.5C 296.494,203.843 299.494,202.176 302.5,200.5C 303.273,198.187 303.94,195.854 304.5,193.5C 306.423,192.692 308.423,192.192 310.5,192C 311.63,189.572 313.13,187.405 315,185.5C 314.13,182.325 313.63,178.992 313.5,175.5C 314.833,175.5 316.167,175.5 317.5,175.5C 317.5,171.5 317.5,167.5 317.5,163.5C 316.167,163.5 314.833,163.5 313.5,163.5C 313.156,160.38 313.823,157.547 315.5,155C 314.68,153.2 314.014,151.366 313.5,149.5 Z"/></g>
<g><path style="opacity:1" fill="#c97f6c" d="M 351.5,272.5 C 348.05,276.295 343.716,277.461 338.5,276C 337.058,275.623 336.058,274.79 335.5,273.5C 338.23,273.473 340.73,274.14 343,275.5C 345.562,273.782 348.395,272.782 351.5,272.5 Z"/></g>
<g><path style="opacity:1" fill="#7c7c7c" d="M 374.5,215.5 C 376.027,215.427 377.027,216.094 377.5,217.5C 375.973,217.573 374.973,216.906 374.5,215.5 Z"/></g>
<g><path style="opacity:1" fill="#818183" d="M 364.5,210.5 C 368.42,211.127 371.753,212.793 374.5,215.5C 370.849,214.341 367.515,212.674 364.5,210.5 Z"/></g>
<g><path style="opacity:1" fill="#8c8c8d" d="M 364.5,210.5 C 357.247,208.783 349.914,207.45 342.5,206.5C 350.32,205.469 357.653,206.802 364.5,210.5 Z"/></g>
<g><path style="opacity:1" fill="#d0baa5" d="M 407.5,157.5 C 407.5,161.5 407.5,165.5 407.5,169.5C 398.5,169.5 389.5,169.5 380.5,169.5C 380.5,167.833 380.5,166.167 380.5,164.5C 365.99,164.829 351.657,164.496 337.5,163.5C 352.01,163.829 366.343,163.496 380.5,162.5C 380.5,160.833 380.5,159.167 380.5,157.5C 389.5,157.5 398.5,157.5 407.5,157.5 Z"/></g>
<g><path style="opacity:1" fill="#d4bba3" d="M 295.5,308.5 C 286.651,308.174 277.984,308.507 269.5,309.5C 268.325,309.281 267.325,309.614 266.5,310.5C 267.189,312.444 267.689,314.444 268,316.5C 268.667,338.833 268.667,361.167 268,383.5C 266.768,386.3 266.101,389.3 266,392.5C 264.301,393.406 262.467,393.739 260.5,393.5C 260.827,391.512 261.16,389.512 261.5,387.5C 261.658,385.681 260.991,384.348 259.5,383.5C 258.3,357.498 258.3,331.498 259.5,305.5C 252.855,304.785 246.689,304.785 241,305.5C 239.028,304.695 237.528,303.361 236.5,301.5C 236.887,300.28 237.72,299.613 239,299.5C 258.173,299.587 277.34,299.587 296.5,299.5C 300.666,303.002 300.332,306.002 295.5,308.5 Z"/></g>
<g><path style="opacity:1" fill="#efcea2" d="M 405.5,342.5 C 405.5,345.167 405.5,347.833 405.5,350.5C 405.667,362.171 405.5,373.838 405,385.5C 393.247,386.488 381.414,386.821 369.5,386.5C 350.659,386.83 331.993,386.497 313.5,385.5C 343.338,385.831 373.005,385.498 402.5,384.5C 404.49,360.523 405.157,336.19 404.5,311.5C 376.167,311.5 347.833,311.5 319.5,311.5C 317.379,311.325 315.379,311.659 313.5,312.5C 313.5,311.833 313.5,311.167 313.5,310.5C 343.995,309.502 374.662,309.169 405.5,309.5C 405.5,320.5 405.5,331.5 405.5,342.5 Z"/></g>
<g><path style="opacity:1" fill="#d1bca8" d="M 295.5,308.5 C 300.332,306.002 300.666,303.002 296.5,299.5C 277.34,299.587 258.173,299.587 239,299.5C 237.72,299.613 236.887,300.28 236.5,301.5C 237.528,303.361 239.028,304.695 241,305.5C 246.689,304.785 252.855,304.785 259.5,305.5C 258.3,331.498 258.3,357.498 259.5,383.5C 260.991,384.348 261.658,385.681 261.5,387.5C 261.16,389.512 260.827,391.512 260.5,393.5C 262.467,393.739 264.301,393.406 266,392.5C 266.101,389.3 266.768,386.3 268,383.5C 268.667,361.167 268.667,338.833 268,316.5C 267.689,314.444 267.189,312.444 266.5,310.5C 267.325,309.614 268.325,309.281 269.5,309.5C 269.5,338.167 269.5,366.833 269.5,395.5C 265.167,395.5 260.833,395.5 256.5,395.5C 256.5,366.5 256.5,337.5 256.5,308.5C 246.167,308.5 235.833,308.5 225.5,308.5C 225.5,305.167 225.5,301.833 225.5,298.5C 250.5,298.5 275.5,298.5 300.5,298.5C 300.5,301.833 300.5,305.167 300.5,308.5C 298.833,308.5 297.167,308.5 295.5,308.5 Z"/></g>
<g><path style="opacity:1" fill="#edbc73" d="M 319.5,311.5 C 347.833,311.5 376.167,311.5 404.5,311.5C 405.157,336.19 404.49,360.523 402.5,384.5C 373.456,384.825 344.456,384.492 315.5,383.5C 314.334,360.174 314.167,336.84 315,313.5C 316.622,312.901 318.122,312.234 319.5,311.5 Z"/></g>
<g><path style="opacity:1" fill="#e3b97a" d="M 372.5,318.5 C 372.5,319.167 372.167,319.5 371.5,319.5C 365.557,315.627 359.224,314.794 352.5,317C 357.019,317.175 361.353,317.675 365.5,318.5C 360.32,318.697 355.32,318.697 350.5,318.5C 347.345,318.984 345.012,320.651 343.5,323.5C 343.97,324.463 344.637,324.463 345.5,323.5C 344.833,327.5 344.167,331.5 343.5,335.5C 342.07,335.421 340.736,335.754 339.5,336.5C 339.167,335 338.833,333.5 338.5,332C 338.569,330.014 339.235,328.514 340.5,327.5C 339.61,329.782 339.444,332.115 340,334.5C 340.662,332.187 341.162,329.854 341.5,327.5C 341.662,323.521 342.996,320.021 345.5,317C 344.366,315.984 344.699,315.317 346.5,315C 353.524,314.169 360.524,314.336 367.5,315.5C 369.319,316.32 370.986,317.32 372.5,318.5 Z"/></g>
<g><path style="opacity:1" fill="#957044" d="M 371.5,319.5 C 371.5,319.833 371.5,320.167 371.5,320.5C 370.833,320.5 370.167,320.5 369.5,320.5C 368.486,319.326 367.153,318.66 365.5,318.5C 361.353,317.675 357.019,317.175 352.5,317C 359.224,314.794 365.557,315.627 371.5,319.5 Z"/></g>
<g><path style="opacity:1" fill="#8b6435" d="M 350.5,318.5 C 348.64,319.939 346.973,321.605 345.5,323.5C 344.637,324.463 343.97,324.463 343.5,323.5C 345.012,320.651 347.345,318.984 350.5,318.5 Z"/></g>
<g><path style="opacity:1" fill="#b9915b" d="M 372.5,318.5 C 373.158,319.398 373.824,320.398 374.5,321.5C 375.086,321.291 375.586,320.957 376,320.5C 377.167,325 378.333,329.5 379.5,334C 379.472,335.07 379.139,335.903 378.5,336.5C 378.085,330.229 375.751,324.896 371.5,320.5C 371.5,320.167 371.5,319.833 371.5,319.5C 372.167,319.5 372.5,319.167 372.5,318.5 Z"/></g>
<g><path style="opacity:1" fill="#d3bca5" d="M 188.5,297.5 C 204.194,303.035 213.694,314.035 217,330.5C 217.667,340.833 217.667,351.167 217,361.5C 214.136,381.196 202.969,392.863 183.5,396.5C 179.5,396.5 175.5,396.5 171.5,396.5C 169.473,396.662 167.473,396.495 165.5,396C 151.978,390.136 143.478,379.969 140,365.5C 139.333,352.833 139.333,340.167 140,327.5C 147.385,303.388 163.551,293.388 188.5,297.5 Z"/></g>
<g><path style="opacity:1" fill="#f2e6dc" d="M 172.5,307.5 C 190.19,306.684 200.69,315.017 204,332.5C 204.861,344.21 204.527,355.877 203,367.5C 195.097,384.803 182.264,389.969 164.5,383C 159.796,378.633 156.296,373.466 154,367.5C 152.512,354.868 152.179,342.201 153,329.5C 155.516,318.492 162.016,311.158 172.5,307.5 Z"/></g>
<g><path style="opacity:1" fill="#e4bc80" d="M 369.5,320.5 C 370.167,320.5 370.833,320.5 371.5,320.5C 375.751,324.896 378.085,330.229 378.5,336.5C 377.475,336.897 377.308,337.563 378,338.5C 379.302,339.085 380.469,339.751 381.5,340.5C 366.833,340.5 352.167,340.5 337.5,340.5C 349.989,339.505 362.656,339.171 375.5,339.5C 375.357,337.738 375.691,336.071 376.5,334.5C 375.675,333.614 374.675,333.281 373.5,333.5C 372.955,330.187 372.455,326.854 372,323.5C 371.586,323.957 371.086,324.291 370.5,324.5C 369.571,323.311 369.238,321.978 369.5,320.5 Z"/></g>
<g><path style="opacity:1" fill="#845e2e" d="M 340.5,327.5 C 340.833,327.5 341.167,327.5 341.5,327.5C 341.162,329.854 340.662,332.187 340,334.5C 339.444,332.115 339.61,329.782 340.5,327.5 Z"/></g>
<g><path style="opacity:1" fill="#fdfaf7" d="M 175.5,336.5 C 178.272,336.22 180.772,336.887 183,338.5C 186.234,337.536 188.067,338.869 188.5,342.5C 190.39,342.297 191.89,342.963 193,344.5C 193.336,347.538 194.169,350.372 195.5,353C 194.153,356.116 192.987,359.282 192,362.5C 190.989,363.337 189.822,363.67 188.5,363.5C 188.117,367.354 186.117,368.687 182.5,367.5C 181.312,368.84 179.812,369.507 178,369.5C 174.923,368.015 171.756,367.181 168.5,367C 167.167,366.333 167.167,365.667 168.5,365C 166.552,364.017 164.718,362.85 163,361.5C 160.785,355.346 161.118,349.346 164,343.5C 165.011,342.663 166.178,342.33 167.5,342.5C 168.018,338.491 170.185,337.158 174,338.5C 175.03,338.164 175.53,337.497 175.5,336.5 Z"/></g>
<g><path style="opacity:1" fill="#fefdfa" d="M 337.5,341.5 C 351.833,341.5 366.167,341.5 380.5,341.5C 380.809,350.261 380.142,358.928 378.5,367.5C 372.533,377.785 363.533,381.619 351.5,379C 347.076,377.068 343.409,374.234 340.5,370.5C 337.762,361.072 336.762,351.406 337.5,341.5 Z"/></g>
<g><path style="opacity:1" fill="#f1e6de" d="M 174.5,342.5 C 185.54,341.704 190.04,346.704 188,357.5C 186.642,360.788 184.142,362.288 180.5,362C 175.005,364.686 170.838,362.52 168,355.5C 166.973,349.554 169.14,345.221 174.5,342.5 Z"/></g>
<g><path style="opacity:1" fill="#e6d1c0" d="M 405.5,342.5 C 410.5,342.5 415.5,342.5 420.5,342.5C 420.5,345.167 420.5,347.833 420.5,350.5C 420.167,350.5 419.833,350.5 419.5,350.5C 414.833,350.5 410.167,350.5 405.5,350.5C 405.5,347.833 405.5,345.167 405.5,342.5 Z"/></g>
<g><path style="opacity:1" fill="#fff6dd" d="M 337.5,341.5 C 337.5,341.167 337.5,340.833 337.5,340.5C 352.167,340.5 366.833,340.5 381.5,340.5C 381.698,348.534 381.365,356.534 380.5,364.5C 379.833,365.5 379.167,366.5 378.5,367.5C 380.142,358.928 380.809,350.261 380.5,341.5C 366.167,341.5 351.833,341.5 337.5,341.5 Z"/></g>
<g><path style="opacity:1" fill="#fafbfa" d="M 405.5,350.5 C 410.167,350.5 414.833,350.5 419.5,350.5C 419.5,375.5 419.5,400.5 419.5,425.5C 381.167,425.5 342.833,425.5 304.5,425.5C 302.833,425.5 301.167,425.5 299.5,425.5C 309.65,421.614 319.816,417.614 330,413.5C 330.383,414.056 330.883,414.389 331.5,414.5C 345.849,414.833 360.182,414.499 374.5,413.5C 360.85,412.501 347.183,412.167 333.5,412.5C 335.611,411.264 337.611,409.764 339.5,408C 342.882,407.824 346.215,407.324 349.5,406.5C 348.271,405.719 346.938,405.219 345.5,405C 346.731,403.595 348.064,402.429 349.5,401.5C 370.177,401.833 390.844,401.5 411.5,400.5C 392.845,399.5 374.179,399.167 355.5,399.5C 359.846,394.821 364.512,390.488 369.5,386.5C 381.414,386.821 393.247,386.488 405,385.5C 405.5,373.838 405.667,362.171 405.5,350.5 Z"/></g>
<g><path style="opacity:1" fill="#f2e4db" d="M 313.5,385.5 C 331.993,386.497 350.659,386.83 369.5,386.5C 364.512,390.488 359.846,394.821 355.5,399.5C 347.14,399.169 338.807,399.502 330.5,400.5C 336.798,401.496 343.132,401.83 349.5,401.5C 348.064,402.429 346.731,403.595 345.5,405C 346.938,405.219 348.271,405.719 349.5,406.5C 346.215,407.324 342.882,407.824 339.5,408C 337.611,409.764 335.611,411.264 333.5,412.5C 332.167,412.5 331.5,413.167 331.5,414.5C 330.883,414.389 330.383,414.056 330,413.5C 319.816,417.614 309.65,421.614 299.5,425.5C 293.833,425.5 288.167,425.5 282.5,425.5C 282.5,419.833 282.5,414.167 282.5,408.5C 292.001,408.971 301.334,408.471 310.5,407C 301.173,406.5 291.839,406.334 282.5,406.5C 282.333,387.83 282.5,369.164 283,350.5C 284.067,349.809 285.234,349.309 286.5,349C 285.62,347.644 285.286,346.144 285.5,344.5C 286.5,344.5 287.5,344.5 288.5,344.5C 288.714,346.144 288.38,347.644 287.5,349C 295.749,350.406 304.083,350.906 312.5,350.5C 312.172,362.345 312.505,374.012 313.5,385.5 Z"/></g>
<g><path style="opacity:1" fill="#e7bd81" d="M 319.5,311.5 C 318.122,312.234 316.622,312.901 315,313.5C 314.167,336.84 314.334,360.174 315.5,383.5C 344.456,384.492 373.456,384.825 402.5,384.5C 373.005,385.498 343.338,385.831 313.5,385.5C 313.5,361.167 313.5,336.833 313.5,312.5C 315.379,311.659 317.379,311.325 319.5,311.5 Z"/></g>
<g><path style="opacity:1" fill="#eac085" d="M 355.5,349.5 C 361.597,348.263 364.43,350.597 364,356.5C 363.333,357.167 362.667,357.833 362,358.5C 361.502,361.817 361.335,365.15 361.5,368.5C 360.167,368.5 358.833,368.5 357.5,368.5C 357.665,365.15 357.498,361.817 357,358.5C 354.341,355.882 353.841,352.882 355.5,349.5 Z"/></g>
<g><path style="opacity:1" fill="#e9c28a" d="M 380.5,364.5 C 380.662,366.527 380.495,368.527 380,370.5C 375.552,375.319 370.386,378.819 364.5,381C 356.474,382.562 349.474,380.729 343.5,375.5C 342.048,374.06 341.048,372.394 340.5,370.5C 343.409,374.234 347.076,377.068 351.5,379C 363.533,381.619 372.533,377.785 378.5,367.5C 379.167,366.5 379.833,365.5 380.5,364.5 Z"/></g>
<g><path style="opacity:1" fill="#b3b2b2" d="M 355.5,399.5 C 374.179,399.167 392.845,399.5 411.5,400.5C 390.844,401.5 370.177,401.833 349.5,401.5C 343.132,401.83 336.798,401.496 330.5,400.5C 338.807,399.502 347.14,399.169 355.5,399.5 Z"/></g>
<g><path style="opacity:1" fill="#d4775a" d="M 318.5,400.5 C 327.307,400.465 329.64,404.298 325.5,412C 319.226,415.294 315.56,413.46 314.5,406.5C 314.866,403.744 316.2,401.744 318.5,400.5 Z"/></g>
<g><path style="opacity:1" fill="#eadacc" d="M 313.5,310.5 C 313.5,311.167 313.5,311.833 313.5,312.5C 313.5,336.833 313.5,361.167 313.5,385.5C 312.505,374.012 312.172,362.345 312.5,350.5C 304.083,350.906 295.749,350.406 287.5,349C 288.38,347.644 288.714,346.144 288.5,344.5C 287.5,344.5 286.5,344.5 285.5,344.5C 285.286,346.144 285.62,347.644 286.5,349C 285.234,349.309 284.067,349.809 283,350.5C 282.5,369.164 282.333,387.83 282.5,406.5C 291.839,406.334 301.173,406.5 310.5,407C 301.334,408.471 292.001,408.971 282.5,408.5C 282.5,414.167 282.5,419.833 282.5,425.5C 288.167,425.5 293.833,425.5 299.5,425.5C 301.167,425.5 302.833,425.5 304.5,425.5C 304.5,425.833 304.5,426.167 304.5,426.5C 301.167,426.5 297.833,426.5 294.5,426.5C 290.167,426.5 285.833,426.5 281.5,426.5C 281.5,420.5 281.5,414.5 281.5,408.5C 247.165,408.667 212.832,408.5 178.5,408C 177.544,404.606 177.211,401.106 177.5,397.5C 175.265,397.795 173.265,397.461 171.5,396.5C 175.5,396.5 179.5,396.5 183.5,396.5C 182.432,397.434 181.099,397.768 179.5,397.5C 179.5,400.5 179.5,403.5 179.5,406.5C 213.5,406.5 247.5,406.5 281.5,406.5C 281.5,384.833 281.5,363.167 281.5,341.5C 291.833,341.5 302.167,341.5 312.5,341.5C 312.172,330.986 312.506,320.653 313.5,310.5 Z"/></g>
<g><path style="opacity:1" fill="#a5a6a8" d="M 333.5,412.5 C 347.183,412.167 360.85,412.501 374.5,413.5C 360.182,414.499 345.849,414.833 331.5,414.5C 331.5,413.167 332.167,412.5 333.5,412.5 Z"/></g>
<g><path style="opacity:1" fill="#a5a6a8" d="M 388.5,412.5 C 395.863,412.169 403.197,412.503 410.5,413.5C 406.833,413.833 403.167,414.167 399.5,414.5C 395.435,414.489 391.768,413.822 388.5,412.5 Z"/></g>
<g><path style="opacity:0.976" fill="#dcd7d4" d="M 419.5,350.5 C 419.833,350.5 420.167,350.5 420.5,350.5C 420.5,375.833 420.5,401.167 420.5,426.5C 381.833,426.5 343.167,426.5 304.5,426.5C 304.5,426.167 304.5,425.833 304.5,425.5C 342.833,425.5 381.167,425.5 419.5,425.5C 419.5,400.5 419.5,375.5 419.5,350.5 Z"/></g>
</svg>
