<?xml version="1.0" encoding="UTF-8"?>
<!DOCTYPE svg PUBLIC "-//W3C//DTD SVG 1.1//EN" "http://www.w3.org/Graphics/SVG/1.1/DTD/svg11.dtd">
<svg xmlns="http://www.w3.org/2000/svg" version="1.1" width="500px" height="500px" style="shape-rendering:geometricPrecision; text-rendering:geometricPrecision; image-rendering:optimizeQuality; fill-rule:evenodd; clip-rule:evenodd" xmlns:xlink="http://www.w3.org/1999/xlink">
<g><path style="opacity:1" fill="#f3aea7" d="M 238.5,78.5 C 265.169,78.3334 291.835,78.5 318.5,79C 319.658,95.4259 319.824,111.926 319,128.5C 292.239,129.661 265.405,129.828 238.5,129C 237.173,112.167 237.173,95.3334 238.5,78.5 Z M 281.5,98.5 C 279.899,101.55 278.899,104.884 278.5,108.5C 277.391,108.443 276.391,108.11 275.5,107.5C 276.234,106.292 276.567,104.959 276.5,103.5C 278.102,99.7607 279.102,95.7607 279.5,91.5C 280.5,91.5 281.5,91.5 282.5,91.5C 282.007,93.8056 281.674,96.139 281.5,98.5 Z M 293.5,98.5 C 294.842,99.793 296.509,100.626 298.5,101C 299.747,102.494 299.747,103.994 298.5,105.5C 295.141,106.849 291.808,108.182 288.5,109.5C 288.414,108.504 288.748,107.671 289.5,107C 291.842,105.829 294.176,104.662 296.5,103.5C 293.912,101.842 291.245,100.175 288.5,98.5C 290.095,97.5661 291.761,97.5661 293.5,98.5 Z M 262.5,99.5 C 262.297,101.044 261.63,102.378 260.5,103.5C 260.957,104.298 261.624,104.631 262.5,104.5C 264.853,105.34 266.853,106.674 268.5,108.5C 265.16,108.396 261.827,107.396 258.5,105.5C 256.909,101.735 258.242,99.7353 262.5,99.5 Z"/></g>
<g><path style="opacity:1" fill="#fd8578" d="M 239.5,80.5 C 265.5,80.5 291.5,80.5 317.5,80.5C 317.5,96.1667 317.5,111.833 317.5,127.5C 291.5,127.5 265.5,127.5 239.5,127.5C 239.5,111.833 239.5,96.1667 239.5,80.5 Z M 281.5,98.5 C 279.899,101.55 278.899,104.884 278.5,108.5C 277.391,108.443 276.391,108.11 275.5,107.5C 276.234,106.292 276.567,104.959 276.5,103.5C 278.102,99.7607 279.102,95.7607 279.5,91.5C 280.5,91.5 281.5,91.5 282.5,91.5C 282.007,93.8056 281.674,96.139 281.5,98.5 Z M 293.5,98.5 C 294.842,99.793 296.509,100.626 298.5,101C 299.747,102.494 299.747,103.994 298.5,105.5C 295.141,106.849 291.808,108.182 288.5,109.5C 288.414,108.504 288.748,107.671 289.5,107C 291.842,105.829 294.176,104.662 296.5,103.5C 293.912,101.842 291.245,100.175 288.5,98.5C 290.095,97.5661 291.761,97.5661 293.5,98.5 Z M 262.5,99.5 C 262.297,101.044 261.63,102.378 260.5,103.5C 260.957,104.298 261.624,104.631 262.5,104.5C 264.853,105.34 266.853,106.674 268.5,108.5C 265.16,108.396 261.827,107.396 258.5,105.5C 256.909,101.735 258.242,99.7353 262.5,99.5 Z"/></g>
<g><path style="opacity:1" fill="#f2dd9c" d="M 140.5,98.5 C 140.167,98.5 139.833,98.5 139.5,98.5C 139.5,94.8333 139.5,91.1667 139.5,87.5C 138.167,87.5 136.833,87.5 135.5,87.5C 120.496,87.3334 105.496,87.5001 90.5,88C 89.1711,98.5981 89.1711,109.098 90.5,119.5C 99.9856,120.494 109.652,120.827 119.5,120.5C 119.5,120.833 119.5,121.167 119.5,121.5C 109.167,121.5 98.8333,121.5 88.5,121.5C 87.8669,109.414 88.5335,97.581 90.5,86C 106.813,85.7732 123.146,85.7732 139.5,86C 140.464,90.0659 140.797,94.2325 140.5,98.5 Z"/></g>
<g><path style="opacity:1" fill="#fad05d" d="M 135.5,87.5 C 136.209,88.404 137.209,88.7373 138.5,88.5C 138.5,98.8333 138.5,109.167 138.5,119.5C 122.5,119.5 106.5,119.5 90.5,119.5C 89.1711,109.098 89.1711,98.5981 90.5,88C 105.496,87.5001 120.496,87.3334 135.5,87.5 Z M 118.5,95.5 C 118.5,95.8333 118.5,96.1667 118.5,96.5C 120.141,99.8874 120.474,103.554 119.5,107.5C 118.167,107.5 117.5,106.833 117.5,105.5C 119.102,102.466 118.769,99.7991 116.5,97.5C 116.389,96.8826 116.056,96.3826 115.5,96C 113.527,95.5045 111.527,95.3379 109.5,95.5C 108.508,95.6716 107.842,95.3382 107.5,94.5C 111.385,92.9842 115.052,93.3175 118.5,95.5 Z"/></g>
<g><path style="opacity:0.576" fill="#f8e09c" d="M 118.5,95.5 C 115.052,93.3175 111.385,92.9842 107.5,94.5C 107.611,93.8826 107.944,93.3826 108.5,93C 111.167,92.3333 113.833,92.3333 116.5,93C 117.381,93.7083 118.047,94.5416 118.5,95.5 Z"/></g>
<g><path style="opacity:1" fill="#f1aaa1" d="M 281.5,98.5 C 281.674,96.139 282.007,93.8056 282.5,91.5C 281.5,91.5 280.5,91.5 279.5,91.5C 279.102,95.7607 278.102,99.7607 276.5,103.5C 276.08,98.3375 277.08,93.5041 279.5,89C 280.793,88.51 282.127,88.3433 283.5,88.5C 283.841,92.1595 283.175,95.4928 281.5,98.5 Z"/></g>
<g><path style="opacity:1" fill="#f4d67f" d="M 109.5,95.5 C 111.527,95.3379 113.527,95.5045 115.5,96C 116.056,96.3826 116.389,96.8826 116.5,97.5C 114.234,97.1412 112.401,97.8078 111,99.5C 110.586,99.0426 110.086,98.7093 109.5,98.5C 107.143,103.785 108.809,106.452 114.5,106.5C 108.364,107.861 105.864,105.195 107,98.5C 108.045,97.6266 108.878,96.6266 109.5,95.5 Z"/></g>
<g><path style="opacity:1" fill="#374d5e" d="M 140.5,98.5 C 164.833,98.5 189.167,98.5 213.5,98.5C 211.095,99.7682 208.428,100.435 205.5,100.5C 205.5,102.5 205.5,104.5 205.5,106.5C 203.473,106.662 201.473,106.495 199.5,106C 198.833,104.333 198.167,102.667 197.5,101C 179.5,100.333 161.5,100.333 143.5,101C 142.78,103.491 142.113,105.991 141.5,108.5C 141.167,108.5 140.833,108.5 140.5,108.5C 140.5,105.167 140.5,101.833 140.5,98.5 Z"/></g>
<g><path style="opacity:0.745" fill="#fae5e0" d="M 262.5,104.5 C 261.624,104.631 260.957,104.298 260.5,103.5C 261.63,102.378 262.297,101.044 262.5,99.5C 263.937,98.2745 265.604,97.2745 267.5,96.5C 268.5,96.8333 269.167,97.5 269.5,98.5C 268.088,99.8064 266.421,100.64 264.5,101C 263.177,101.816 262.511,102.983 262.5,104.5 Z"/></g>
<g><path style="opacity:1" fill="#f9d05d" d="M 116.5,97.5 C 116.5,100.167 116.5,102.833 116.5,105.5C 115.833,105.833 115.167,106.167 114.5,106.5C 108.809,106.452 107.143,103.785 109.5,98.5C 110.086,98.7093 110.586,99.0426 111,99.5C 112.401,97.8078 114.234,97.1412 116.5,97.5 Z"/></g>
<g><path style="opacity:1" fill="#f3e29f" d="M 118.5,96.5 C 120.586,97.1485 121.586,98.6485 121.5,101C 120.923,103.137 120.59,105.304 120.5,107.5C 120.167,107.5 119.833,107.5 119.5,107.5C 120.474,103.554 120.141,99.8874 118.5,96.5 Z"/></g>
<g><path style="opacity:1" fill="#2d4a65" d="M 213.5,98.5 C 214.833,98.5 216.167,98.5 217.5,98.5C 217.5,123.167 217.5,147.833 217.5,172.5C 217.822,178.358 217.489,184.025 216.5,189.5C 216.5,183.5 216.5,177.5 216.5,171.5C 216.5,150.5 216.5,129.5 216.5,108.5C 191.5,108.5 166.5,108.5 141.5,108.5C 142.113,105.991 142.78,103.491 143.5,101C 161.5,100.333 179.5,100.333 197.5,101C 198.167,102.667 198.833,104.333 199.5,106C 201.473,106.495 203.473,106.662 205.5,106.5C 205.5,104.5 205.5,102.5 205.5,100.5C 208.428,100.435 211.095,99.7682 213.5,98.5 Z"/></g>
<g><path style="opacity:1" fill="#f7d991" d="M 116.5,97.5 C 118.769,99.7991 119.102,102.466 117.5,105.5C 117.167,105.5 116.833,105.5 116.5,105.5C 116.5,102.833 116.5,100.167 116.5,97.5 Z"/></g>
<g><path style="opacity:1" fill="#4d61af" d="M 192.5,101.5 C 193.833,101.5 195.167,101.5 196.5,101.5C 196.5,102.833 196.5,104.167 196.5,105.5C 195.167,105.5 193.833,105.5 192.5,105.5C 192.5,104.167 192.5,102.833 192.5,101.5 Z"/></g>
<g><path style="opacity:1" fill="#c5bb8b" d="M 200.5,101.5 C 201.5,101.5 202.5,101.5 203.5,101.5C 203.5,102.833 203.5,104.167 203.5,105.5C 202.5,105.5 201.5,105.5 200.5,105.5C 200.5,104.167 200.5,102.833 200.5,101.5 Z"/></g>
<g><path style="opacity:1" fill="#efa296" d="M 293.5,98.5 C 291.761,97.5661 290.095,97.5661 288.5,98.5C 291.245,100.175 293.912,101.842 296.5,103.5C 294.176,104.662 291.842,105.829 289.5,107C 288.748,107.671 288.414,108.504 288.5,109.5C 287.609,108.739 286.942,107.739 286.5,106.5C 288.5,105.5 290.5,104.5 292.5,103.5C 290.954,102.316 289.287,101.316 287.5,100.5C 285.776,96.3878 287.11,94.8878 291.5,96C 292.381,96.7083 293.047,97.5416 293.5,98.5 Z"/></g>
<g><path style="opacity:1" fill="#b9888f" d="M 207.5,101.5 C 209.912,101.694 210.912,103.027 210.5,105.5C 207.046,105.733 206.046,104.4 207.5,101.5 Z"/></g>
<g><path style="opacity:0.808" fill="#fdf6d5" d="M 107.5,94.5 C 107.842,95.3382 108.508,95.6716 109.5,95.5C 108.878,96.6266 108.045,97.6266 107,98.5C 105.864,105.195 108.364,107.861 114.5,106.5C 115.167,106.167 115.833,105.833 116.5,105.5C 116.833,105.5 117.167,105.5 117.5,105.5C 117.5,106.833 118.167,107.5 119.5,107.5C 119.833,107.5 120.167,107.5 120.5,107.5C 123.044,108.708 124.378,110.708 124.5,113.5C 121.916,113.431 119.916,112.265 118.5,110C 107.08,111.746 102.08,106.913 103.5,95.5C 104.959,95.5674 106.292,95.2341 107.5,94.5 Z"/></g>
<g><path style="opacity:1" fill="#122a43" d="M 140.5,108.5 C 140.833,108.5 141.167,108.5 141.5,108.5C 166.5,108.5 191.5,108.5 216.5,108.5C 216.5,129.5 216.5,150.5 216.5,171.5C 215.503,151.674 215.17,131.674 215.5,111.5C 214.5,111.5 213.5,111.5 212.5,111.5C 212.478,132.183 212.644,152.85 213,173.5C 208.844,176.567 207.678,175.734 209.5,171C 209.225,168.069 208.559,165.235 207.5,162.5C 205.518,161.784 203.851,160.617 202.5,159C 204.221,158.261 205.887,157.427 207.5,156.5C 205.167,155.167 202.833,155.167 200.5,156.5C 200.709,157.086 201.043,157.586 201.5,158C 199.671,158.273 198.171,159.107 197,160.5C 195.493,159.465 193.993,159.632 192.5,161C 196.332,162.625 200.332,163.625 204.5,164C 197.93,165.257 191.263,166.091 184.5,166.5C 172.443,164.97 160.443,163.97 148.5,163.5C 158.855,163.832 169.188,163.499 179.5,162.5C 179.376,161.893 179.043,161.56 178.5,161.5C 168.675,160.67 158.675,160.17 148.5,160C 148.833,159.667 149.167,159.333 149.5,159C 148.207,158.51 146.873,158.343 145.5,158.5C 145.785,160.288 145.452,161.955 144.5,163.5C 142.936,160.864 141.603,161.031 140.5,164C 137.291,164.878 134.291,166.211 131.5,168C 130.269,169.183 130.269,170.349 131.5,171.5C 132.852,170.104 134.519,169.437 136.5,169.5C 141.481,170.165 146.481,170.665 151.5,171C 145.48,172.295 145.313,173.128 151,173.5C 159.145,172.651 167.311,172.318 175.5,172.5C 175.141,174.766 175.808,176.599 177.5,178C 184.242,178.042 188.909,178.542 191.5,179.5C 191.33,180.822 191.663,181.989 192.5,183C 189.24,183.784 186.073,183.617 183,182.5C 181.43,183.358 179.763,184.025 178,184.5C 171.975,182.697 165.808,181.364 159.5,180.5C 158.052,179.646 156.719,178.646 155.5,177.5C 154.019,178.48 152.685,179.647 151.5,181C 154.651,180.988 157.318,181.988 159.5,184C 148.595,184.002 137.928,183.835 127.5,183.5C 128.529,181.136 128.529,178.803 127.5,176.5C 128.01,174.912 129.01,173.745 130.5,173C 129.944,172.617 129.611,172.117 129.5,171.5C 129.843,169.517 129.176,168.183 127.5,167.5C 127.5,166.167 127.5,164.833 127.5,163.5C 128.586,163.38 129.253,162.713 129.5,161.5C 129.457,160.584 129.124,159.917 128.5,159.5C 128.125,158.207 127.792,156.874 127.5,155.5C 129.048,155.179 129.715,154.179 129.5,152.5C 139.891,152.291 149.557,152.958 158.5,154.5C 158.318,152.409 158.652,150.409 159.5,148.5C 158.833,148.167 158.167,147.833 157.5,147.5C 150.682,148.095 144.015,148.761 137.5,149.5C 133.958,149.813 130.625,149.479 127.5,148.5C 129.048,148.179 129.715,147.179 129.5,145.5C 131.6,145.477 133.433,146.144 135,147.5C 136.059,147.37 136.892,146.87 137.5,146C 136.039,139.082 136.372,132.249 138.5,125.5C 139.5,125.5 140.5,125.5 141.5,125.5C 139.772,131.664 139.106,137.997 139.5,144.5C 140.5,144.5 141.5,144.5 142.5,144.5C 142.137,142.089 143.137,140.589 145.5,140C 142.972,139.002 142.972,138.169 145.5,137.5C 147.055,137.722 148.389,138.389 149.5,139.5C 150.429,138.311 150.762,136.978 150.5,135.5C 151.5,135.5 152.5,135.5 153.5,135.5C 154.642,137.972 156.642,138.972 159.5,138.5C 159.472,140.582 160.139,142.416 161.5,144C 164.696,144.805 167.696,144.638 170.5,143.5C 171.5,143.5 172.5,143.5 173.5,143.5C 175.549,143.294 175.883,142.461 174.5,141C 170.5,140.667 166.5,140.333 162.5,140C 172.307,139.045 181.974,138.212 191.5,137.5C 193.833,137.5 196.167,137.5 198.5,137.5C 198.146,134.579 199.146,132.246 201.5,130.5C 199.842,129.172 198.009,128.172 196,127.5C 194.93,127.528 194.097,127.861 193.5,128.5C 181.803,128.254 170.136,128.587 158.5,129.5C 145.167,130.167 145.167,130.833 158.5,131.5C 155.695,132.319 152.695,132.819 149.5,133C 146.635,136.325 144.635,135.825 143.5,131.5C 144.5,131.5 145.5,131.5 146.5,131.5C 146.227,129.549 146.893,128.049 148.5,127C 153.823,126.501 159.156,126.334 164.5,126.5C 164.281,125.325 164.614,124.325 165.5,123.5C 169.442,124.6 173.442,124.767 177.5,124C 175.167,123.667 172.833,123.333 170.5,123C 171.665,121.916 172.998,121.083 174.5,120.5C 175.386,119.675 175.719,118.675 175.5,117.5C 172.975,118.64 170.308,119.307 167.5,119.5C 167.586,118.504 167.252,117.671 166.5,117C 163.724,115.963 160.89,115.13 158,114.5C 152.296,116.184 146.463,116.851 140.5,116.5C 140.5,113.833 140.5,111.167 140.5,108.5 Z"/></g>
<g><path style="opacity:1" fill="#9b8d73" d="M 139.5,98.5 C 139.833,98.5 140.167,98.5 140.5,98.5C 140.5,101.833 140.5,105.167 140.5,108.5C 140.5,111.167 140.5,113.833 140.5,116.5C 143.641,117.321 146.975,117.821 150.5,118C 146.517,118.026 142.85,118.86 139.5,120.5C 139.5,113.167 139.5,105.833 139.5,98.5 Z"/></g>
<g><path style="opacity:1" fill="#fddfd8" d="M 275.5,107.5 C 276.391,108.11 277.391,108.443 278.5,108.5C 277.908,111.127 277.575,113.794 277.5,116.5C 276.167,116.5 274.833,116.5 273.5,116.5C 273.405,113.303 274.072,110.303 275.5,107.5 Z"/></g>
<g><path style="opacity:1" fill="#3c4445" d="M 167.5,119.5 C 159.006,120.193 150.34,120.193 141.5,119.5C 141.5,120.833 141.5,122.167 141.5,123.5C 139.435,123.483 137.435,123.15 135.5,122.5C 133.5,122.5 131.5,122.5 129.5,122.5C 129.158,121.662 128.492,121.328 127.5,121.5C 125.167,121.5 122.833,121.5 120.5,121.5C 120.5,142.167 120.5,162.833 120.5,183.5C 120.5,184.5 120.5,185.5 120.5,186.5C 120.5,187.5 120.5,188.5 120.5,189.5C 120.167,189.5 119.833,189.5 119.5,189.5C 119.5,166.833 119.5,144.167 119.5,121.5C 119.5,121.167 119.5,120.833 119.5,120.5C 126.167,120.5 132.833,120.5 139.5,120.5C 142.85,118.86 146.517,118.026 150.5,118C 146.975,117.821 143.641,117.321 140.5,116.5C 146.463,116.851 152.296,116.184 158,114.5C 160.89,115.13 163.724,115.963 166.5,117C 167.252,117.671 167.586,118.504 167.5,119.5 Z"/></g>
<g><path style="opacity:1" fill="#edd17b" d="M 135.5,87.5 C 136.833,87.5 138.167,87.5 139.5,87.5C 139.5,91.1667 139.5,94.8333 139.5,98.5C 139.5,105.833 139.5,113.167 139.5,120.5C 132.833,120.5 126.167,120.5 119.5,120.5C 109.652,120.827 99.9856,120.494 90.5,119.5C 106.5,119.5 122.5,119.5 138.5,119.5C 138.5,109.167 138.5,98.8333 138.5,88.5C 137.209,88.7373 136.209,88.404 135.5,87.5 Z"/></g>
<g><path style="opacity:1" fill="#91a0ae" d="M 127.5,121.5 C 128.492,121.328 129.158,121.662 129.5,122.5C 129.719,123.675 129.386,124.675 128.5,125.5C 127.571,124.311 127.238,122.978 127.5,121.5 Z"/></g>
<g><path style="opacity:1" fill="#172c4c" d="M 158.5,131.5 C 170.807,132.585 183.141,132.752 195.5,132C 196.883,130.539 196.549,129.706 194.5,129.5C 194.167,129.5 193.833,129.5 193.5,129.5C 193.5,129.167 193.5,128.833 193.5,128.5C 194.097,127.861 194.93,127.528 196,127.5C 198.009,128.172 199.842,129.172 201.5,130.5C 199.146,132.246 198.146,134.579 198.5,137.5C 196.167,137.5 193.833,137.5 191.5,137.5C 191.5,136.833 191.5,136.167 191.5,135.5C 179.098,134.824 166.598,134.158 154,133.5C 153.536,134.094 153.369,134.761 153.5,135.5C 152.5,135.5 151.5,135.5 150.5,135.5C 150.762,136.978 150.429,138.311 149.5,139.5C 148.389,138.389 147.055,137.722 145.5,137.5C 142.972,138.169 142.972,139.002 145.5,140C 143.137,140.589 142.137,142.089 142.5,144.5C 141.5,144.5 140.5,144.5 139.5,144.5C 139.106,137.997 139.772,131.664 141.5,125.5C 140.5,125.5 139.5,125.5 138.5,125.5C 136.372,132.249 136.039,139.082 137.5,146C 136.892,146.87 136.059,147.37 135,147.5C 133.433,146.144 131.6,145.477 129.5,145.5C 129.44,144.957 129.107,144.624 128.5,144.5C 127.571,145.689 127.238,147.022 127.5,148.5C 130.625,149.479 133.958,149.813 137.5,149.5C 144.015,148.761 150.682,148.095 157.5,147.5C 158.167,147.833 158.833,148.167 159.5,148.5C 158.652,150.409 158.318,152.409 158.5,154.5C 149.557,152.958 139.891,152.291 129.5,152.5C 127.952,152.821 127.285,153.821 127.5,155.5C 127.792,156.874 128.125,158.207 128.5,159.5C 127.766,160.708 127.433,162.041 127.5,163.5C 127.5,164.833 127.5,166.167 127.5,167.5C 127.157,169.483 127.824,170.817 129.5,171.5C 129.611,172.117 129.944,172.617 130.5,173C 129.01,173.745 128.01,174.912 127.5,176.5C 128.529,178.803 128.529,181.136 127.5,183.5C 125.824,184.183 125.157,185.517 125.5,187.5C 123.708,187.634 122.042,187.301 120.5,186.5C 120.5,185.5 120.5,184.5 120.5,183.5C 121.151,182.909 121.818,182.243 122.5,181.5C 124.544,182.98 125.878,182.48 126.5,180C 126.223,178.108 125.223,176.775 123.5,176C 125.147,160.059 126.147,143.893 126.5,127.5C 127.522,127.855 128.189,128.522 128.5,129.5C 127.167,130.833 127.167,132.167 128.5,133.5C 127.766,134.708 127.433,136.041 127.5,137.5C 127.285,139.179 127.952,140.179 129.5,140.5C 130.473,140.013 131.473,139.513 132.5,139C 131.167,137.333 131.167,135.667 132.5,134C 131.833,133.667 131.167,133.333 130.5,133C 131.672,132.581 132.672,131.915 133.5,131C 131.893,129.951 131.227,128.451 131.5,126.5C 134.5,126.833 135.833,125.5 135.5,122.5C 137.435,123.15 139.435,123.483 141.5,123.5C 141.5,122.167 141.5,120.833 141.5,119.5C 150.34,120.193 159.006,120.193 167.5,119.5C 170.308,119.307 172.975,118.64 175.5,117.5C 175.719,118.675 175.386,119.675 174.5,120.5C 172.998,121.083 171.665,121.916 170.5,123C 172.833,123.333 175.167,123.667 177.5,124C 173.442,124.767 169.442,124.6 165.5,123.5C 164.614,124.325 164.281,125.325 164.5,126.5C 159.156,126.334 153.823,126.501 148.5,127C 146.893,128.049 146.227,129.549 146.5,131.5C 145.5,131.5 144.5,131.5 143.5,131.5C 144.635,135.825 146.635,136.325 149.5,133C 152.695,132.819 155.695,132.319 158.5,131.5 Z"/></g>
<g><path style="opacity:1" fill="#112b44" d="M 127.5,121.5 C 127.238,122.978 127.571,124.311 128.5,125.5C 129.386,124.675 129.719,123.675 129.5,122.5C 131.5,122.5 133.5,122.5 135.5,122.5C 135.833,125.5 134.5,126.833 131.5,126.5C 131.227,128.451 131.893,129.951 133.5,131C 132.672,131.915 131.672,132.581 130.5,133C 131.167,133.333 131.833,133.667 132.5,134C 131.167,135.667 131.167,137.333 132.5,139C 131.473,139.513 130.473,140.013 129.5,140.5C 129.715,138.821 129.048,137.821 127.5,137.5C 127.433,136.041 127.766,134.708 128.5,133.5C 129.833,132.167 129.833,130.833 128.5,129.5C 128.189,128.522 127.522,127.855 126.5,127.5C 126.147,143.893 125.147,160.059 123.5,176C 125.223,176.775 126.223,178.108 126.5,180C 125.878,182.48 124.544,182.98 122.5,181.5C 121.818,182.243 121.151,182.909 120.5,183.5C 120.5,162.833 120.5,142.167 120.5,121.5C 122.833,121.5 125.167,121.5 127.5,121.5 Z"/></g>
<g><path style="opacity:1" fill="#7c7f61" d="M 158.5,129.5 C 158.5,130.167 158.5,130.833 158.5,131.5C 145.167,130.833 145.167,130.167 158.5,129.5 Z"/></g>
<g><path style="opacity:1" fill="#192a2e" d="M 193.5,128.5 C 193.5,128.833 193.5,129.167 193.5,129.5C 183.478,129.168 173.478,129.501 163.5,130.5C 168.667,130.833 173.833,131.167 179,131.5C 184.546,131.495 189.712,130.828 194.5,129.5C 196.549,129.706 196.883,130.539 195.5,132C 183.141,132.752 170.807,132.585 158.5,131.5C 158.5,130.833 158.5,130.167 158.5,129.5C 170.136,128.587 181.803,128.254 193.5,128.5 Z"/></g>
<g><path style="opacity:1" fill="#82825b" d="M 193.5,129.5 C 193.833,129.5 194.167,129.5 194.5,129.5C 189.712,130.828 184.546,131.495 179,131.5C 173.833,131.167 168.667,130.833 163.5,130.5C 173.478,129.501 183.478,129.168 193.5,129.5 Z"/></g>
<g><path style="opacity:1" fill="#778da0" d="M 128.5,129.5 C 129.833,130.833 129.833,132.167 128.5,133.5C 127.167,132.167 127.167,130.833 128.5,129.5 Z"/></g>
<g><path style="opacity:1" fill="#4354a2" d="M 191.5,135.5 C 191.5,136.167 191.5,136.833 191.5,137.5C 144.833,136.833 144.833,136.167 191.5,135.5 Z"/></g>
<g><path style="opacity:1" fill="#122853" d="M 191.5,135.5 C 144.833,136.167 144.833,136.833 191.5,137.5C 181.974,138.212 172.307,139.045 162.5,140C 166.5,140.333 170.5,140.667 174.5,141C 175.883,142.461 175.549,143.294 173.5,143.5C 171.71,142.003 169.544,141.336 167,141.5C 165.5,141.833 164,142.167 162.5,142.5C 165.086,143.48 167.753,143.813 170.5,143.5C 167.696,144.638 164.696,144.805 161.5,144C 160.139,142.416 159.472,140.582 159.5,138.5C 156.642,138.972 154.642,137.972 153.5,135.5C 153.369,134.761 153.536,134.094 154,133.5C 166.598,134.158 179.098,134.824 191.5,135.5 Z"/></g>
<g><path style="opacity:1" fill="#99afc2" d="M 127.5,137.5 C 129.048,137.821 129.715,138.821 129.5,140.5C 127.952,140.179 127.285,139.179 127.5,137.5 Z"/></g>
<g><path style="opacity:1" fill="#9d7581" d="M 147.5,141.5 C 151.226,141.177 154.893,141.511 158.5,142.5C 156.667,142.833 154.833,143.167 153,143.5C 150.705,143.453 148.871,142.787 147.5,141.5 Z"/></g>
<g><path style="opacity:1" fill="#4c5daa" d="M 173.5,143.5 C 172.5,143.5 171.5,143.5 170.5,143.5C 167.753,143.813 165.086,143.48 162.5,142.5C 164,142.167 165.5,141.833 167,141.5C 169.544,141.336 171.71,142.003 173.5,143.5 Z"/></g>
<g><path style="opacity:1" fill="#8da4b2" d="M 129.5,145.5 C 129.715,147.179 129.048,148.179 127.5,148.5C 127.238,147.022 127.571,145.689 128.5,144.5C 129.107,144.624 129.44,144.957 129.5,145.5 Z"/></g>
<g><path style="opacity:1" fill="#3f3e79" d="M 256.5,141.5 C 256.369,142.239 256.536,142.906 257,143.5C 262.372,142.067 267.538,142.734 272.5,145.5C 273.842,143.995 275.508,143.328 277.5,143.5C 277.5,144.5 277.5,145.5 277.5,146.5C 279.792,146.244 281.959,146.577 284,147.5C 285.333,152.654 286.5,157.821 287.5,163C 286.932,164.604 285.932,165.27 284.5,165C 283.22,162.868 283.22,160.702 284.5,158.5C 283.311,157.571 281.978,157.238 280.5,157.5C 280.448,159.903 280.781,162.236 281.5,164.5C 279.425,164.698 277.425,164.865 275.5,165C 274.597,161.771 273.263,158.938 271.5,156.5C 269.383,155.986 267.216,155.653 265,155.5C 260.545,156.485 256.045,157.152 251.5,157.5C 243.903,156.004 241.07,151.337 243,143.5C 247.041,139.075 251.541,138.408 256.5,141.5 Z"/></g>
<g><path style="opacity:1" fill="#3b4f9c" d="M 137.5,149.5 C 142.844,149.334 148.177,149.501 153.5,150C 150.861,151.118 148.027,151.618 145,151.5C 142.071,151.475 139.571,150.809 137.5,149.5 Z"/></g>
<g><path style="opacity:1" fill="#888462" d="M 160.5,149.5 C 165.875,149.172 171.208,149.505 176.5,150.5C 173.833,150.833 171.167,151.167 168.5,151.5C 165.41,151.478 162.743,150.812 160.5,149.5 Z"/></g>
<g><path style="opacity:1" fill="#c4d9e3" d="M 129.5,152.5 C 129.715,154.179 129.048,155.179 127.5,155.5C 127.285,153.821 127.952,152.821 129.5,152.5 Z"/></g>
<g><path style="opacity:1" fill="#4552a1" d="M 164.5,155.5 C 168.555,155.176 172.555,155.509 176.5,156.5C 174.5,156.833 172.5,157.167 170.5,157.5C 168.048,157.461 166.048,156.794 164.5,155.5 Z"/></g>
<g><path style="opacity:1" fill="#926775" d="M 183.5,155.5 C 187.555,155.176 191.555,155.509 195.5,156.5C 193.5,156.833 191.5,157.167 189.5,157.5C 187.048,157.461 185.048,156.794 183.5,155.5 Z"/></g>
<g><path style="opacity:1" fill="#92936f" d="M 146.5,155.5 C 150.555,155.176 154.555,155.509 158.5,156.5C 156.5,156.833 154.5,157.167 152.5,157.5C 150.048,157.461 148.048,156.794 146.5,155.5 Z"/></g>
<g><path style="opacity:1" fill="#96a6b7" d="M 128.5,159.5 C 129.124,159.917 129.457,160.584 129.5,161.5C 129.253,162.713 128.586,163.38 127.5,163.5C 127.433,162.041 127.766,160.708 128.5,159.5 Z"/></g>
<g><path style="opacity:1" fill="#f6bfab" d="M 271.5,156.5 C 272.76,162.248 274.26,167.915 276,173.5C 276.21,170.766 277.044,168.266 278.5,166C 280.367,165.289 281.867,165.789 283,167.5C 283.499,172.489 283.666,177.489 283.5,182.5C 281.938,180.628 280.938,178.295 280.5,175.5C 278.837,174.125 277.503,174.458 276.5,176.5C 274.668,175.752 273.001,174.752 271.5,173.5C 271.094,174.557 271.094,175.891 271.5,177.5C 270.5,177.5 269.5,177.5 268.5,177.5C 268.33,176.178 268.663,175.011 269.5,174C 258.731,169.023 259.064,164.857 270.5,161.5C 270.5,160.167 270.5,158.833 270.5,157.5C 264.509,157.966 258.509,158.299 252.5,158.5C 252.5,163.833 252.5,169.167 252.5,174.5C 251.662,174.158 251.328,173.492 251.5,172.5C 251.5,167.5 251.5,162.5 251.5,157.5C 256.045,157.152 260.545,156.485 265,155.5C 267.216,155.653 269.383,155.986 271.5,156.5 Z"/></g>
<g><path style="opacity:1" fill="#46467a" d="M 288.5,172.5 C 287.833,173.5 287.167,174.5 286.5,175.5C 285.778,175.918 285.278,176.584 285,177.5C 284.667,173.833 284.333,170.167 284,166.5C 283.292,165.619 282.458,164.953 281.5,164.5C 280.781,162.236 280.448,159.903 280.5,157.5C 281.978,157.238 283.311,157.571 284.5,158.5C 283.22,160.702 283.22,162.868 284.5,165C 285.932,165.27 286.932,164.604 287.5,163C 286.5,157.821 285.333,152.654 284,147.5C 281.959,146.577 279.792,146.244 277.5,146.5C 277.5,145.5 277.5,144.5 277.5,143.5C 275.508,143.328 273.842,143.995 272.5,145.5C 267.538,142.734 262.372,142.067 257,143.5C 256.536,142.906 256.369,142.239 256.5,141.5C 260.683,139.924 264.683,140.257 268.5,142.5C 272.958,139.326 276.625,139.992 279.5,144.5C 281.535,145.041 283.535,145.708 285.5,146.5C 286.188,150.209 287.688,153.543 290,156.5C 290.849,162 290.349,167.333 288.5,172.5 Z"/></g>
<g><path style="opacity:1" fill="#7b899d" d="M 127.5,167.5 C 129.176,168.183 129.843,169.517 129.5,171.5C 127.824,170.817 127.157,169.483 127.5,167.5 Z"/></g>
<g><path style="opacity:1" fill="#4d4063" d="M 271.5,156.5 C 273.263,158.938 274.597,161.771 275.5,165C 277.425,164.865 279.425,164.698 281.5,164.5C 282.458,164.953 283.292,165.619 284,166.5C 284.333,170.167 284.667,173.833 285,177.5C 285.278,176.584 285.778,175.918 286.5,175.5C 286.834,178.491 285.834,180.824 283.5,182.5C 283.666,177.489 283.499,172.489 283,167.5C 281.867,165.789 280.367,165.289 278.5,166C 277.044,168.266 276.21,170.766 276,173.5C 274.26,167.915 272.76,162.248 271.5,156.5 Z"/></g>
<g><path style="opacity:1" fill="#dbe7ee" d="M 217.5,172.5 C 228.833,172.5 240.167,172.5 251.5,172.5C 251.328,173.492 251.662,174.158 252.5,174.5C 252.761,179.111 253.928,183.444 256,187.5C 258.969,190.954 262.802,192.454 267.5,192C 265.618,192.198 263.952,192.698 262.5,193.5C 258.732,194.137 255.899,196.137 254,199.5C 249.731,208.816 245.564,218.149 241.5,227.5C 240.833,227.5 240.5,227.833 240.5,228.5C 239.595,232.144 237.262,233.311 233.5,232C 223.5,225.333 213.5,218.667 203.5,212C 196.906,209.811 192.906,211.978 191.5,218.5C 192.833,218.5 194.167,218.5 195.5,218.5C 196.468,221.044 198.135,223.211 200.5,225C 203.361,224.97 205.695,225.803 207.5,227.5C 199.535,226.22 195.369,229.553 195,237.5C 194.329,238.252 193.496,238.586 192.5,238.5C 188.783,230.045 185.283,221.379 182,212.5C 180.989,211.663 179.822,211.33 178.5,211.5C 160.833,211.5 143.167,211.5 125.5,211.5C 129.166,222.166 132.833,232.833 136.5,243.5C 132.262,245.901 128.762,249.234 126,253.5C 125.503,256.146 125.336,258.813 125.5,261.5C 114.162,261.333 102.828,261.5 91.5,262C 87.5266,265.294 87.5266,268.46 91.5,271.5C 94.2869,272.477 97.2869,272.81 100.5,272.5C 100.5,283.167 100.5,293.833 100.5,304.5C 91.6222,305.575 83.4555,308.575 76,313.5C 72.4111,319.872 71.5778,326.539 73.5,333.5C 77.3437,358.759 80.6771,384.092 83.5,409.5C 71.1667,409.5 58.8333,409.5 46.5,409.5C 43.8753,384.942 40.7086,360.276 37,335.5C 34.2558,324.39 37.4225,315.557 46.5,309C 59.2174,303.877 71.7174,298.377 84,292.5C 84.0692,278.112 84.7359,263.779 86,249.5C 88.1145,245.052 91.2811,241.552 95.5,239C 100.674,237.446 105.841,235.946 111,234.5C 115.792,219.998 119.958,205.331 123.5,190.5C 121.901,190.768 120.568,190.434 119.5,189.5C 119.833,189.5 120.167,189.5 120.5,189.5C 152.5,189.5 184.5,189.5 216.5,189.5C 217.489,184.025 217.822,178.358 217.5,172.5 Z"/></g>
<g><path style="opacity:1" fill="#192b46" d="M 216.5,171.5 C 216.5,177.5 216.5,183.5 216.5,189.5C 184.5,189.5 152.5,189.5 120.5,189.5C 120.5,188.5 120.5,187.5 120.5,186.5C 122.042,187.301 123.708,187.634 125.5,187.5C 125.157,185.517 125.824,184.183 127.5,183.5C 137.928,183.835 148.595,184.002 159.5,184C 157.318,181.988 154.651,180.988 151.5,181C 152.685,179.647 154.019,178.48 155.5,177.5C 156.719,178.646 158.052,179.646 159.5,180.5C 165.808,181.364 171.975,182.697 178,184.5C 179.763,184.025 181.43,183.358 183,182.5C 186.073,183.617 189.24,183.784 192.5,183C 191.663,181.989 191.33,180.822 191.5,179.5C 188.909,178.542 184.242,178.042 177.5,178C 175.808,176.599 175.141,174.766 175.5,172.5C 167.311,172.318 159.145,172.651 151,173.5C 145.313,173.128 145.48,172.295 151.5,171C 146.481,170.665 141.481,170.165 136.5,169.5C 134.519,169.437 132.852,170.104 131.5,171.5C 130.269,170.349 130.269,169.183 131.5,168C 134.291,166.211 137.291,164.878 140.5,164C 141.603,161.031 142.936,160.864 144.5,163.5C 145.452,161.955 145.785,160.288 145.5,158.5C 146.873,158.343 148.207,158.51 149.5,159C 149.167,159.333 148.833,159.667 148.5,160C 158.675,160.17 168.675,160.67 178.5,161.5C 168.111,160.859 158.111,161.526 148.5,163.5C 160.443,163.97 172.443,164.97 184.5,166.5C 191.263,166.091 197.93,165.257 204.5,164C 200.332,163.625 196.332,162.625 192.5,161C 193.993,159.632 195.493,159.465 197,160.5C 198.171,159.107 199.671,158.273 201.5,158C 201.043,157.586 200.709,157.086 200.5,156.5C 202.833,155.167 205.167,155.167 207.5,156.5C 205.887,157.427 204.221,158.261 202.5,159C 203.851,160.617 205.518,161.784 207.5,162.5C 208.559,165.235 209.225,168.069 209.5,171C 207.678,175.734 208.844,176.567 213,173.5C 212.644,152.85 212.478,132.183 212.5,111.5C 213.5,111.5 214.5,111.5 215.5,111.5C 215.17,131.674 215.503,151.674 216.5,171.5 Z"/></g>
<g><path style="opacity:1" fill="#273a75" d="M 142.5,166.5 C 151.839,166.334 161.173,166.5 170.5,167C 172.256,167.202 173.922,167.702 175.5,168.5C 164.167,169.833 152.833,169.833 141.5,168.5C 141.863,167.817 142.196,167.15 142.5,166.5 Z"/></g>
<g><path style="opacity:1" fill="#a19d7d" d="M 182.5,161.5 C 185.722,161.108 188.722,161.608 191.5,163C 190,163.167 188.5,163.333 187,163.5C 185.014,163.431 183.514,162.765 182.5,161.5 Z"/></g>
<g><path style="opacity:1" fill="#8a5c67" d="M 178.5,161.5 C 179.043,161.56 179.376,161.893 179.5,162.5C 169.188,163.499 158.855,163.832 148.5,163.5C 158.111,161.526 168.111,160.859 178.5,161.5 Z"/></g>
<g><path style="opacity:1" fill="#fdbea3" d="M 283.5,182.5 C 283.5,185.5 283.5,188.5 283.5,191.5C 285.415,191.216 287.081,191.549 288.5,192.5C 283.793,192.57 280.126,194.57 277.5,198.5C 276.833,198.833 276.167,199.167 275.5,199.5C 270.344,201.873 267.677,200.207 267.5,194.5C 265.955,193.548 264.288,193.215 262.5,193.5C 263.952,192.698 265.618,192.198 267.5,192C 262.802,192.454 258.969,190.954 256,187.5C 253.928,183.444 252.761,179.111 252.5,174.5C 252.5,169.167 252.5,163.833 252.5,158.5C 258.509,158.299 264.509,157.966 270.5,157.5C 270.5,158.833 270.5,160.167 270.5,161.5C 259.064,164.857 258.731,169.023 269.5,174C 268.663,175.011 268.33,176.178 268.5,177.5C 269.5,177.5 270.5,177.5 271.5,177.5C 271.094,175.891 271.094,174.557 271.5,173.5C 273.001,174.752 274.668,175.752 276.5,176.5C 277.503,174.458 278.837,174.125 280.5,175.5C 280.938,178.295 281.938,180.628 283.5,182.5 Z"/></g>
<g><path style="opacity:1" fill="#6e6274" d="M 136.5,174.5 C 142.206,174.171 147.872,174.505 153.5,175.5C 150.667,175.833 147.833,176.167 145,176.5C 141.748,176.481 138.915,175.814 136.5,174.5 Z"/></g>
<g><path style="opacity:1" fill="#7b8478" d="M 158.5,174.5 C 163.875,174.172 169.208,174.505 174.5,175.5C 171.833,175.833 169.167,176.167 166.5,176.5C 163.41,176.478 160.743,175.812 158.5,174.5 Z"/></g>
<g><path style="opacity:1" fill="#736576" d="M 179.5,174.5 C 184.875,174.172 190.208,174.505 195.5,175.5C 192.833,175.833 190.167,176.167 187.5,176.5C 184.41,176.478 181.743,175.812 179.5,174.5 Z"/></g>
<g><path style="opacity:1" fill="#f08e85" d="M 288.5,192.5 C 295.416,193.039 300.916,196.039 305,201.5C 307.481,212.717 308.981,224.05 309.5,235.5C 307.156,224.336 304.989,213.002 303,201.5C 299.918,200.091 297.085,198.258 294.5,196C 290.928,194.595 287.261,194.262 283.5,195C 281.609,196.442 279.609,197.609 277.5,198.5C 280.126,194.57 283.793,192.57 288.5,192.5 Z"/></g>
<g><path style="opacity:1" fill="#a7aef1" d="M 361.5,175.5 C 346.5,175.5 331.5,175.5 316.5,175.5C 316.5,186.167 316.5,196.833 316.5,207.5C 331.5,207.5 346.5,207.5 361.5,207.5C 346.342,208.496 331.009,208.83 315.5,208.5C 315.5,203.5 315.5,198.5 315.5,193.5C 315.5,187.167 315.5,180.833 315.5,174.5C 331.009,174.17 346.342,174.504 361.5,175.5 Z"/></g>
<g><path style="opacity:1" fill="#fd8477" d="M 275.5,199.5 C 276.167,199.167 276.833,198.833 277.5,198.5C 279.609,197.609 281.609,196.442 283.5,195C 287.261,194.262 290.928,194.595 294.5,196C 297.085,198.258 299.918,200.091 303,201.5C 304.989,213.002 307.156,224.336 309.5,235.5C 310.051,238.807 310.384,242.14 310.5,245.5C 308.799,245.966 307.299,245.966 306,245.5C 305.833,246.167 305.667,246.833 305.5,247.5C 306.612,249.39 307.446,251.39 308,253.5C 309.131,252.396 309.965,252.729 310.5,254.5C 309.652,256.409 309.318,258.409 309.5,260.5C 303.5,260.5 297.5,260.5 291.5,260.5C 294.127,257.419 296.127,253.919 297.5,250C 297.095,249.055 296.428,248.388 295.5,248C 291.573,247.276 287.906,246.109 284.5,244.5C 283.093,241.935 280.926,240.269 278,239.5C 277.429,235.955 278.096,232.622 280,229.5C 280.671,225.483 281.004,221.483 281,217.5C 277.329,224.809 274.496,232.476 272.5,240.5C 271.386,243.449 269.386,245.615 266.5,247C 261.809,247.772 257.142,248.605 252.5,249.5C 251.5,249.5 250.5,249.5 249.5,249.5C 249.5,245.5 249.5,241.5 249.5,237.5C 251.01,229.716 251.677,221.716 251.5,213.5C 252.294,210.198 252.96,206.865 253.5,203.5C 257.795,204.048 259.295,202.381 258,198.5C 260.009,197.097 262.009,195.763 264,194.5C 264.833,194.833 265.667,195.167 266.5,195.5C 265.271,196.281 263.938,196.781 262.5,197C 265.525,197.154 267.191,198.654 267.5,201.5C 270.698,202.036 273.365,201.369 275.5,199.5 Z"/></g>
<g><path style="opacity:1" fill="#dbe7ef" d="M 288.5,172.5 C 301.011,173.01 308.844,179.343 312,191.5C 313.113,192.305 314.279,192.972 315.5,193.5C 315.5,198.5 315.5,203.5 315.5,208.5C 331.009,208.83 346.342,208.496 361.5,207.5C 361.5,203.833 361.5,200.167 361.5,196.5C 369.814,197.916 378.147,199.416 386.5,201C 393.476,204.77 397.642,210.603 399,218.5C 399.708,234.757 400.874,250.924 402.5,267C 421.109,271.87 439.442,277.537 457.5,284C 464.815,290.618 467.315,298.784 465,308.5C 459.813,342.254 455.313,375.921 451.5,409.5C 435.833,409.5 420.167,409.5 404.5,409.5C 406.671,390.139 409.171,370.806 412,351.5C 414.232,338.588 409.065,330.588 396.5,327.5C 397.853,324.863 398.519,322.03 398.5,319C 397.775,313.857 397.441,308.69 397.5,303.5C 393.956,303.761 392.122,302.095 392,298.5C 387.845,296.994 385.011,298.327 383.5,302.5C 381.115,304.884 379.115,307.55 377.5,310.5C 376.833,308.167 376.167,305.833 375.5,303.5C 375.567,302.041 375.234,300.708 374.5,299.5C 374.621,294.274 374.288,288.941 373.5,283.5C 371.008,280.837 368.674,278.004 366.5,275C 363.639,275.03 361.305,274.197 359.5,272.5C 360.167,272.5 360.5,272.167 360.5,271.5C 361.75,271.423 362.583,270.756 363,269.5C 363.703,267.071 363.537,264.738 362.5,262.5C 358.576,260.877 354.243,259.877 349.5,259.5C 347.612,250.607 345.112,241.94 342,233.5C 338.338,225.728 332.171,222.061 323.5,222.5C 319.169,222.929 314.835,223.262 310.5,223.5C 311.875,230.995 312.542,238.662 312.5,246.5C 312.003,242.69 311.003,239.024 309.5,235.5C 308.981,224.05 307.481,212.717 305,201.5C 300.916,196.039 295.416,193.039 288.5,192.5C 287.081,191.549 285.415,191.216 283.5,191.5C 283.5,188.5 283.5,185.5 283.5,182.5C 285.834,180.824 286.834,178.491 286.5,175.5C 287.167,174.5 287.833,173.5 288.5,172.5 Z"/></g>
<g><path style="opacity:1" fill="#6f76de" d="M 361.5,175.5 C 362.456,182.433 362.456,189.433 361.5,196.5C 361.5,200.167 361.5,203.833 361.5,207.5C 346.5,207.5 331.5,207.5 316.5,207.5C 316.5,196.833 316.5,186.167 316.5,175.5C 331.5,175.5 346.5,175.5 361.5,175.5 Z"/></g>
<g><path style="opacity:1" fill="#606bef" d="M 317.5,176.5 C 331.833,176.5 346.167,176.5 360.5,176.5C 360.5,186.5 360.5,196.5 360.5,206.5C 347.163,206.667 333.829,206.5 320.5,206C 319.107,204.829 318.273,203.329 318,201.5C 317.5,193.173 317.334,184.84 317.5,176.5 Z"/></g>
<g><path style="opacity:1" fill="#868bde" d="M 333.5,183.5 C 333.512,190.239 334.179,196.905 335.5,203.5C 333.533,203.739 331.699,203.406 330,202.5C 329.502,199.518 329.335,196.518 329.5,193.5C 330.317,195.969 330.817,198.635 331,201.5C 332.183,202.731 333.349,202.731 334.5,201.5C 332.922,198.437 332.256,195.104 332.5,191.5C 332.503,188.645 332.836,185.978 333.5,183.5 Z"/></g>
<g><path style="opacity:1" fill="#e3eafd" d="M 334.5,182.5 C 333.833,182.5 333.5,182.833 333.5,183.5C 332.836,185.978 332.503,188.645 332.5,191.5C 332.256,195.104 332.922,198.437 334.5,201.5C 333.349,202.731 332.183,202.731 331,201.5C 330.817,198.635 330.317,195.969 329.5,193.5C 328.167,192.167 328.167,190.833 329.5,189.5C 330.317,187.031 330.817,184.365 331,181.5C 332.756,180.015 333.923,180.348 334.5,182.5 Z"/></g>
<g><path style="opacity:1" fill="#dfe5ff" d="M 347.5,199.5 C 346.837,202.423 345.17,203.09 342.5,201.5C 342.624,200.893 342.957,200.56 343.5,200.5C 346.195,194.127 345.861,187.793 342.5,181.5C 344.006,180.253 345.506,180.253 347,181.5C 348.229,187.55 348.396,193.55 347.5,199.5 Z"/></g>
<g><path style="opacity:1" fill="#848ade" d="M 334.5,182.5 C 333.923,180.348 332.756,180.015 331,181.5C 330.817,184.365 330.317,187.031 329.5,189.5C 329.335,186.482 329.502,183.482 330,180.5C 331.699,179.594 333.533,179.261 335.5,179.5C 335.737,180.791 335.404,181.791 334.5,182.5 Z"/></g>
<g><path style="opacity:1" fill="#6e72da" d="M 347.5,199.5 C 348.396,193.55 348.229,187.55 347,181.5C 345.506,180.253 344.006,180.253 342.5,181.5C 345.861,187.793 346.195,194.127 343.5,200.5C 343.704,194.24 343.037,188.073 341.5,182C 341.585,180.893 341.919,179.893 342.5,179C 344.433,178.749 346.266,178.249 348,177.5C 348.692,178.025 349.192,178.692 349.5,179.5C 348.236,183.479 348.236,187.479 349.5,191.5C 349.036,194.349 348.369,197.016 347.5,199.5 Z"/></g>
<g><path style="opacity:1" fill="#abb4ba" d="M 178.5,211.5 C 184.83,228.156 191.163,244.822 197.5,261.5C 179.5,261.5 161.5,261.5 143.5,261.5C 141.68,255.21 139.346,249.21 136.5,243.5C 132.833,232.833 129.166,222.166 125.5,211.5C 143.167,211.5 160.833,211.5 178.5,211.5 Z"/></g>
<g><path style="opacity:1" fill="#f2b29a" d="M 240.5,228.5 C 240.833,231.167 241.167,233.833 241.5,236.5C 239.304,236.41 237.137,236.077 235,235.5C 230.633,238.56 226.966,237.893 224,233.5C 224.794,229.222 223.294,228.056 219.5,230C 218.874,230.75 218.374,231.584 218,232.5C 217.502,230.473 217.669,228.473 218.5,226.5C 218.42,224.67 217.587,223.337 216,222.5C 214.156,223.914 212.656,225.747 211.5,228C 212.414,229.406 213.08,230.906 213.5,232.5C 211.5,230.833 209.5,229.167 207.5,227.5C 205.695,225.803 203.361,224.97 200.5,225C 198.135,223.211 196.468,221.044 195.5,218.5C 194.167,218.5 192.833,218.5 191.5,218.5C 192.906,211.978 196.906,209.811 203.5,212C 213.5,218.667 223.5,225.333 233.5,232C 237.262,233.311 239.595,232.144 240.5,228.5 Z"/></g>
<g><path style="opacity:1" fill="#ec7d78" d="M 262.5,193.5 C 264.288,193.215 265.955,193.548 267.5,194.5C 267.677,200.207 270.344,201.873 275.5,199.5C 273.365,201.369 270.698,202.036 267.5,201.5C 267.191,198.654 265.525,197.154 262.5,197C 263.938,196.781 265.271,196.281 266.5,195.5C 265.667,195.167 264.833,194.833 264,194.5C 262.009,195.763 260.009,197.097 258,198.5C 259.295,202.381 257.795,204.048 253.5,203.5C 252.96,206.865 252.294,210.198 251.5,213.5C 249.424,216.139 247.258,218.806 245,221.5C 244.599,224.699 243.766,227.699 242.5,230.5C 241.596,229.791 241.263,228.791 241.5,227.5C 245.564,218.149 249.731,208.816 254,199.5C 255.899,196.137 258.732,194.137 262.5,193.5 Z"/></g>
<g><path style="opacity:1" fill="#ccd9e2" d="M 362.5,262.5 C 361.833,262.5 361.167,262.5 360.5,262.5C 349.346,261.505 338.012,261.172 326.5,261.5C 326.94,255.179 325.94,249.179 323.5,243.5C 318.937,241.458 315.771,242.792 314,247.5C 313.617,246.944 313.117,246.611 312.5,246.5C 312.542,238.662 311.875,230.995 310.5,223.5C 314.835,223.262 319.169,222.929 323.5,222.5C 332.171,222.061 338.338,225.728 342,233.5C 345.112,241.94 347.612,250.607 349.5,259.5C 354.243,259.877 358.576,260.877 362.5,262.5 Z"/></g>
<g><path style="opacity:1" fill="#8c96a0" d="M 178.5,211.5 C 179.822,211.33 180.989,211.663 182,212.5C 185.283,221.379 188.783,230.045 192.5,238.5C 194.371,244.971 196.704,251.304 199.5,257.5C 202.086,258.48 204.753,258.813 207.5,258.5C 216.833,258.5 226.167,258.5 235.5,258.5C 235.5,259.5 235.5,260.5 235.5,261.5C 222.833,261.5 210.167,261.5 197.5,261.5C 191.163,244.822 184.83,228.156 178.5,211.5 Z"/></g>
<g><path style="opacity:1" fill="#f16b5f" d="M 251.5,213.5 C 251.677,221.716 251.01,229.716 249.5,237.5C 248.761,237.631 248.094,237.464 247.5,237C 245.946,234.713 244.279,232.546 242.5,230.5C 243.766,227.699 244.599,224.699 245,221.5C 247.258,218.806 249.424,216.139 251.5,213.5 Z"/></g>
<g><path style="opacity:1" fill="#f99280" d="M 284.5,244.5 C 280.308,243.616 276.308,242.283 272.5,240.5C 274.496,232.476 277.329,224.809 281,217.5C 281.004,221.483 280.671,225.483 280,229.5C 278.096,232.622 277.429,235.955 278,239.5C 280.926,240.269 283.093,241.935 284.5,244.5 Z"/></g>
<g><path style="opacity:1" fill="#f7ae93" d="M 240.5,228.5 C 240.5,227.833 240.833,227.5 241.5,227.5C 241.263,228.791 241.596,229.791 242.5,230.5C 244.279,232.546 245.946,234.713 247.5,237C 248.094,237.464 248.761,237.631 249.5,237.5C 249.5,241.5 249.5,245.5 249.5,249.5C 250.5,249.5 251.5,249.5 252.5,249.5C 252.5,249.833 252.5,250.167 252.5,250.5C 246.934,250.579 241.434,251.246 236,252.5C 233.213,252.211 230.713,251.211 228.5,249.5C 222.471,244.801 217.471,239.134 213.5,232.5C 213.08,230.906 212.414,229.406 211.5,228C 212.656,225.747 214.156,223.914 216,222.5C 217.587,223.337 218.42,224.67 218.5,226.5C 217.669,228.473 217.502,230.473 218,232.5C 218.374,231.584 218.874,230.75 219.5,230C 223.294,228.056 224.794,229.222 224,233.5C 226.966,237.893 230.633,238.56 235,235.5C 237.137,236.077 239.304,236.41 241.5,236.5C 241.167,233.833 240.833,231.167 240.5,228.5 Z"/></g>
<g><path style="opacity:1" fill="#ced7df" d="M 207.5,227.5 C 209.5,229.167 211.5,230.833 213.5,232.5C 217.471,239.134 222.471,244.801 228.5,249.5C 228.67,250.822 228.337,251.989 227.5,253C 225.167,253.667 222.833,253.667 220.5,253C 218.854,251.344 216.854,250.511 214.5,250.5C 212.159,251.182 209.826,251.849 207.5,252.5C 207.5,254.5 207.5,256.5 207.5,258.5C 204.753,258.813 202.086,258.48 199.5,257.5C 196.704,251.304 194.371,244.971 192.5,238.5C 193.496,238.586 194.329,238.252 195,237.5C 195.369,229.553 199.535,226.22 207.5,227.5 Z"/></g>
<g><path style="opacity:1" fill="#fdbb9e" d="M 272.5,240.5 C 276.308,242.283 280.308,243.616 284.5,244.5C 287.906,246.109 291.573,247.276 295.5,248C 296.428,248.388 297.095,249.055 297.5,250C 296.127,253.919 294.127,257.419 291.5,260.5C 290.833,260.5 290.167,260.5 289.5,260.5C 279.42,260.923 269.42,260.423 259.5,259C 260.938,258.781 262.271,258.281 263.5,257.5C 262.167,256.5 260.833,255.5 259.5,254.5C 261.678,253.343 263.678,252.01 265.5,250.5C 261.194,249.577 256.861,249.577 252.5,250.5C 252.5,250.167 252.5,249.833 252.5,249.5C 257.142,248.605 261.809,247.772 266.5,247C 269.386,245.615 271.386,243.449 272.5,240.5 Z"/></g>
<g><path style="opacity:1" fill="#f38a81" d="M 309.5,235.5 C 311.003,239.024 312.003,242.69 312.5,246.5C 313.426,251.463 314.092,256.463 314.5,261.5C 306.167,261.5 297.833,261.5 289.5,261.5C 289.5,261.167 289.5,260.833 289.5,260.5C 290.167,260.5 290.833,260.5 291.5,260.5C 297.5,260.5 303.5,260.5 309.5,260.5C 309.318,258.409 309.652,256.409 310.5,254.5C 309.965,252.729 309.131,252.396 308,253.5C 307.446,251.39 306.612,249.39 305.5,247.5C 305.667,246.833 305.833,246.167 306,245.5C 307.299,245.966 308.799,245.966 310.5,245.5C 310.384,242.14 310.051,238.807 309.5,235.5 Z"/></g>
<g><path style="opacity:1" fill="#ccd8e1" d="M 136.5,243.5 C 139.346,249.21 141.68,255.21 143.5,261.5C 137.5,261.5 131.5,261.5 125.5,261.5C 125.336,258.813 125.503,256.146 126,253.5C 128.762,249.234 132.262,245.901 136.5,243.5 Z"/></g>
<g><path style="opacity:1" fill="#dad6c8" d="M 326.5,261.5 C 326.167,261.5 325.833,261.5 325.5,261.5C 325.665,258.482 325.498,255.482 325,252.5C 324.722,251.584 324.222,250.918 323.5,250.5C 323.784,248.585 323.451,246.919 322.5,245.5C 320.183,244.058 318.016,244.392 316,246.5C 315.501,251.489 315.334,256.489 315.5,261.5C 315.167,261.5 314.833,261.5 314.5,261.5C 314.092,256.463 313.426,251.463 312.5,246.5C 313.117,246.611 313.617,246.944 314,247.5C 315.771,242.792 318.937,241.458 323.5,243.5C 325.94,249.179 326.94,255.179 326.5,261.5 Z"/></g>
<g><path style="opacity:1" fill="#f9c3ac" d="M 228.5,249.5 C 230.713,251.211 233.213,252.211 236,252.5C 241.434,251.246 246.934,250.579 252.5,250.5C 256.861,249.577 261.194,249.577 265.5,250.5C 263.678,252.01 261.678,253.343 259.5,254.5C 260.833,255.5 262.167,256.5 263.5,257.5C 262.271,258.281 260.938,258.781 259.5,259C 269.42,260.423 279.42,260.923 289.5,260.5C 289.5,260.833 289.5,261.167 289.5,261.5C 271.5,261.5 253.5,261.5 235.5,261.5C 235.5,260.5 235.5,259.5 235.5,258.5C 226.167,258.5 216.833,258.5 207.5,258.5C 207.5,256.5 207.5,254.5 207.5,252.5C 209.826,251.849 212.159,251.182 214.5,250.5C 216.854,250.511 218.854,251.344 220.5,253C 222.833,253.667 225.167,253.667 227.5,253C 228.337,251.989 228.67,250.822 228.5,249.5 Z"/></g>
<g><path style="opacity:1" fill="#e9d294" d="M 322.5,245.5 C 320.856,245.286 319.356,245.62 318,246.5C 317.462,251.171 316.962,255.838 316.5,260.5C 318.833,260.5 321.167,260.5 323.5,260.5C 323.5,257.167 323.5,253.833 323.5,250.5C 324.222,250.918 324.722,251.584 325,252.5C 325.498,255.482 325.665,258.482 325.5,261.5C 322.167,261.5 318.833,261.5 315.5,261.5C 315.334,256.489 315.501,251.489 316,246.5C 318.016,244.392 320.183,244.058 322.5,245.5 Z"/></g>
<g><path style="opacity:1" fill="#f9d062" d="M 322.5,245.5 C 323.451,246.919 323.784,248.585 323.5,250.5C 323.5,253.833 323.5,257.167 323.5,260.5C 321.167,260.5 318.833,260.5 316.5,260.5C 316.962,255.838 317.462,251.171 318,246.5C 319.356,245.62 320.856,245.286 322.5,245.5 Z"/></g>
<g><path style="opacity:1" fill="#272759" d="M 125.5,261.5 C 131.5,261.5 137.5,261.5 143.5,261.5C 161.5,261.5 179.5,261.5 197.5,261.5C 210.167,261.5 222.833,261.5 235.5,261.5C 253.5,261.5 271.5,261.5 289.5,261.5C 297.833,261.5 306.167,261.5 314.5,261.5C 314.833,261.5 315.167,261.5 315.5,261.5C 318.833,261.5 322.167,261.5 325.5,261.5C 325.833,261.5 326.167,261.5 326.5,261.5C 338.012,261.172 349.346,261.505 360.5,262.5C 342.83,262.333 325.164,262.5 307.5,263C 306.833,263.667 306.167,264.333 305.5,265C 307.361,266.028 308.695,267.528 309.5,269.5C 323.661,270.167 337.661,270.833 351.5,271.5C 342.833,271.5 334.167,271.5 325.5,271.5C 300.833,271.5 276.167,271.5 251.5,271.5C 269.326,270.503 287.326,270.17 305.5,270.5C 305.5,269.5 305.5,268.5 305.5,267.5C 303.058,267.646 302.391,266.813 303.5,265C 279.793,264.626 256.126,264.293 232.5,264C 234.339,265.132 236.339,265.965 238.5,266.5C 239.386,267.325 239.719,268.325 239.5,269.5C 235.351,268.92 231.684,269.586 228.5,271.5C 182.833,271.5 137.167,271.5 91.5,271.5C 87.5266,268.46 87.5266,265.294 91.5,262C 102.828,261.5 114.162,261.333 125.5,261.5 Z"/></g>
<g><path style="opacity:1" fill="#151b56" d="M 93.5,262.5 C 134.691,262.007 175.858,262.674 217,264.5C 220.167,264.833 223.333,265.167 226.5,265.5C 227.509,267.185 227.009,268.518 225,269.5C 223.941,269.37 223.108,268.87 222.5,268C 216.5,267.667 210.5,267.333 204.5,267C 203.333,266.5 202.5,265.667 202,264.5C 201.506,266.134 201.34,267.801 201.5,269.5C 167.53,270.658 131.53,270.825 93.5,270C 91.1116,267.597 91.1116,265.097 93.5,262.5 Z"/></g>
<g><path style="opacity:1" fill="#151b55" d="M 360.5,262.5 C 361.167,262.5 361.833,262.5 362.5,262.5C 363.537,264.738 363.703,267.071 363,269.5C 362.583,270.756 361.75,271.423 360.5,271.5C 357.5,271.5 354.5,271.5 351.5,271.5C 337.661,270.833 323.661,270.167 309.5,269.5C 308.695,267.528 307.361,266.028 305.5,265C 306.167,264.333 306.833,263.667 307.5,263C 325.164,262.5 342.83,262.333 360.5,262.5 Z"/></g>
<g><path style="opacity:1" fill="#151a56" d="M 251.5,271.5 C 243.833,271.5 236.167,271.5 228.5,271.5C 231.684,269.586 235.351,268.92 239.5,269.5C 239.719,268.325 239.386,267.325 238.5,266.5C 236.339,265.965 234.339,265.132 232.5,264C 256.126,264.293 279.793,264.626 303.5,265C 302.391,266.813 303.058,267.646 305.5,267.5C 305.5,268.5 305.5,269.5 305.5,270.5C 287.326,270.17 269.326,270.503 251.5,271.5 Z"/></g>
<g><path style="opacity:1" fill="#707897" d="M 91.5,271.5 C 137.167,271.5 182.833,271.5 228.5,271.5C 236.167,271.5 243.833,271.5 251.5,271.5C 251.5,272.167 251.5,272.833 251.5,273.5C 249.833,273.5 248.167,273.5 246.5,273.5C 216.671,272.502 186.671,272.169 156.5,272.5C 156.167,272.5 155.833,272.5 155.5,272.5C 152.833,272.5 150.167,272.5 147.5,272.5C 139.833,272.5 132.167,272.5 124.5,272.5C 119.5,272.5 114.5,272.5 109.5,272.5C 106.833,272.5 104.167,272.5 101.5,272.5C 101.167,272.5 100.833,272.5 100.5,272.5C 97.2869,272.81 94.2869,272.477 91.5,271.5 Z"/></g>
<g><path style="opacity:1" fill="#cbd8e2" d="M 124.5,272.5 C 132.167,272.5 139.833,272.5 147.5,272.5C 147.5,283.5 147.5,294.5 147.5,305.5C 144.351,305.211 141.351,305.711 138.5,307C 133.531,311.102 130.198,316.269 128.5,322.5C 122.833,323.167 117.167,323.833 111.5,324.5C 110.503,316.862 110.169,309.196 110.5,301.5C 114.68,300.23 118.846,298.897 123,297.5C 123.426,289.156 123.926,280.823 124.5,272.5 Z"/></g>
<g><path style="opacity:1" fill="#cbd7e2" d="M 156.5,272.5 C 186.671,272.169 216.671,272.502 246.5,273.5C 238.562,274.429 230.896,276.095 223.5,278.5C 208.773,280.536 195.44,285.87 183.5,294.5C 181.91,294.628 180.577,295.295 179.5,296.5C 178.607,299.084 178.274,301.751 178.5,304.5C 171.167,304.5 163.833,304.5 156.5,304.5C 156.5,293.833 156.5,283.167 156.5,272.5 Z"/></g>
<g><path style="opacity:1" fill="#dae6ef" d="M 109.5,272.5 C 114.5,272.5 119.5,272.5 124.5,272.5C 123.926,280.823 123.426,289.156 123,297.5C 118.846,298.897 114.68,300.23 110.5,301.5C 110.167,301.5 109.833,301.5 109.5,301.5C 109.5,291.833 109.5,282.167 109.5,272.5 Z"/></g>
<g><path style="opacity:1" fill="#c2767d" d="M 251.5,271.5 C 276.167,271.5 300.833,271.5 325.5,271.5C 325.5,271.833 325.5,272.167 325.5,272.5C 322.167,272.5 318.833,272.5 315.5,272.5C 312.167,272.5 308.833,272.5 305.5,272.5C 304.833,272.5 304.167,272.5 303.5,272.5C 300.833,272.5 298.167,272.5 295.5,272.5C 295.5,275.5 295.5,278.5 295.5,281.5C 289.87,280.007 284.537,278.007 279.5,275.5C 270.204,274.363 260.871,273.696 251.5,273.5C 251.5,272.833 251.5,272.167 251.5,271.5 Z"/></g>
<g><path style="opacity:1" fill="#fb857a" d="M 279.5,275.5 C 278.048,274.698 276.382,274.198 274.5,274C 281.158,273.5 287.825,273.334 294.5,273.5C 294.5,275.167 294.5,276.833 294.5,278.5C 289.709,276.859 284.709,275.859 279.5,275.5 Z"/></g>
<g><path style="opacity:1" fill="#cad7e4" d="M 359.5,272.5 C 361.305,274.197 363.639,275.03 366.5,275C 368.674,278.004 371.008,280.837 373.5,283.5C 374.288,288.941 374.621,294.274 374.5,299.5C 373.833,298.833 373.167,298.167 372.5,297.5C 371.551,295.223 370.218,293.223 368.5,291.5C 366.597,289.372 364.931,287.039 363.5,284.5C 362.635,283.417 361.635,283.251 360.5,284C 356.454,288.845 353.12,294.012 350.5,299.5C 350.5,290.5 350.5,281.5 350.5,272.5C 353.5,272.5 356.5,272.5 359.5,272.5 Z"/></g>
<g><path style="opacity:1" fill="#cbd7e1" d="M 325.5,272.5 C 331.167,272.5 336.833,272.5 342.5,272.5C 343.14,282.558 342.473,292.225 340.5,301.5C 338.983,301.511 337.816,302.177 337,303.5C 331.22,314.233 331.054,324.899 336.5,335.5C 338.044,342.019 340.044,348.353 342.5,354.5C 342.5,372.833 342.5,391.167 342.5,409.5C 339.813,409.664 337.146,409.497 334.5,409C 335.337,407.989 335.67,406.822 335.5,405.5C 333.801,405.473 332.467,404.806 331.5,403.5C 331.5,402.833 331.5,402.167 331.5,401.5C 332.943,400.665 333.943,399.332 334.5,397.5C 335.896,389.776 335.73,382.109 334,374.5C 329.054,365.109 321.221,361.109 310.5,362.5C 309.494,355.75 307.494,349.417 304.5,343.5C 304.196,334.416 304.529,325.416 305.5,316.5C 308.112,314.948 309.445,312.614 309.5,309.5C 312.404,307.945 315.07,305.945 317.5,303.5C 318.885,302.426 320.051,301.093 321,299.5C 323.365,290.646 324.865,281.646 325.5,272.5 Z"/></g>
<g><path style="opacity:1" fill="#f8867b" d="M 305.5,272.5 C 308.833,272.5 312.167,272.5 315.5,272.5C 315.666,278.176 315.499,283.843 315,289.5C 314.617,290.056 314.117,290.389 313.5,290.5C 311.289,289.877 309.289,288.877 307.5,287.5C 307.217,286.711 306.717,286.044 306,285.5C 305.501,281.179 305.334,276.846 305.5,272.5 Z"/></g>
<g><path style="opacity:1" fill="#82909e" d="M 325.5,272.5 C 325.5,272.167 325.5,271.833 325.5,271.5C 334.167,271.5 342.833,271.5 351.5,271.5C 354.5,271.5 357.5,271.5 360.5,271.5C 360.5,272.167 360.167,272.5 359.5,272.5C 356.5,272.5 353.5,272.5 350.5,272.5C 350.5,281.5 350.5,290.5 350.5,299.5C 349.612,302.054 349.279,304.721 349.5,307.5C 346.01,306.363 343.01,304.363 340.5,301.5C 342.473,292.225 343.14,282.558 342.5,272.5C 336.833,272.5 331.167,272.5 325.5,272.5 Z"/></g>
<g><path style="opacity:1" fill="#abb5ba" d="M 101.5,272.5 C 104.167,272.5 106.833,272.5 109.5,272.5C 109.5,282.167 109.5,291.833 109.5,301.5C 109.5,337.5 109.5,373.5 109.5,409.5C 107.508,409.283 105.342,409.283 103,409.5C 102.722,408.584 102.222,407.918 101.5,407.5C 101.5,362.5 101.5,317.5 101.5,272.5 Z"/></g>
<g><path style="opacity:1" fill="#57538c" d="M 246.5,273.5 C 248.167,273.5 249.833,273.5 251.5,273.5C 260.871,273.696 270.204,274.363 279.5,275.5C 284.537,278.007 289.87,280.007 295.5,281.5C 296.128,288.913 295.461,295.913 293.5,302.5C 289.445,302.176 285.445,302.509 281.5,303.5C 269.819,307.172 257.819,309.672 245.5,311C 243.184,312.298 241.184,313.798 239.5,315.5C 239.5,315.833 239.5,316.167 239.5,316.5C 238.35,321.316 238.184,326.316 239,331.5C 241.045,335.868 242.045,340.534 242,345.5C 243.522,347.741 244.855,350.074 246,352.5C 247.372,359.982 249.039,367.315 251,374.5C 252.011,375.337 253.178,375.67 254.5,375.5C 255.573,376.251 255.74,377.251 255,378.5C 254.005,379.066 253.172,379.733 252.5,380.5C 248.213,381.648 244.213,383.315 240.5,385.5C 239.033,386.292 237.7,386.292 236.5,385.5C 233.545,379.26 230.878,372.927 228.5,366.5C 228.665,363.482 228.498,360.482 228,357.5C 227.29,356.027 226.124,355.36 224.5,355.5C 222.933,348.165 220.433,341.165 217,334.5C 216.276,327.716 214.943,321.049 213,314.5C 212.148,313.429 211.315,312.429 210.5,311.5C 210.379,306.736 211.712,302.403 214.5,298.5C 218.318,295.182 221.985,291.682 225.5,288C 230.34,285.081 235.006,281.914 239.5,278.5C 234.208,277.823 228.874,277.823 223.5,278.5C 230.896,276.095 238.562,274.429 246.5,273.5 Z"/></g>
<g><path style="opacity:1" fill="#d09392" d="M 303.5,272.5 C 304.167,272.5 304.833,272.5 305.5,272.5C 305.334,276.846 305.501,281.179 306,285.5C 306.717,286.044 307.217,286.711 307.5,287.5C 306.391,287.443 305.391,287.11 304.5,286.5C 303.559,281.93 303.226,277.263 303.5,272.5 Z"/></g>
<g><path style="opacity:1" fill="#3d3e78" d="M 210.5,311.5 C 209.833,311.5 209.5,311.833 209.5,312.5C 208.326,313.514 207.66,314.847 207.5,316.5C 206.54,339.686 206.873,363.019 208.5,386.5C 201.5,386.5 194.5,386.5 187.5,386.5C 183.302,358.992 180.969,331.325 180.5,303.5C 180.647,300.208 181.647,297.208 183.5,294.5C 195.44,285.87 208.773,280.536 223.5,278.5C 228.874,277.823 234.208,277.823 239.5,278.5C 235.006,281.914 230.34,285.081 225.5,288C 221.985,291.682 218.318,295.182 214.5,298.5C 211.712,302.403 210.379,306.736 210.5,311.5 Z"/></g>
<g><path style="opacity:1" fill="#5d557f" d="M 304.5,286.5 C 305.391,287.11 306.391,287.443 307.5,287.5C 309.289,288.877 311.289,289.877 313.5,290.5C 313.5,291.833 313.5,293.167 313.5,294.5C 311.023,297.315 308.023,299.315 304.5,300.5C 304.5,295.833 304.5,291.167 304.5,286.5 Z"/></g>
<g><path style="opacity:1" fill="#f3cc73" d="M 315.5,272.5 C 318.833,272.5 322.167,272.5 325.5,272.5C 324.865,281.646 323.365,290.646 321,299.5C 320.051,301.093 318.885,302.426 317.5,303.5C 317.893,300.584 318.893,297.917 320.5,295.5C 318.516,293.239 316.183,292.906 313.5,294.5C 313.5,293.167 313.5,291.833 313.5,290.5C 314.117,290.389 314.617,290.056 315,289.5C 315.499,283.843 315.666,278.176 315.5,272.5 Z"/></g>
<g><path style="opacity:1" fill="#fbd05b" d="M 317.5,275.5 C 319.167,275.5 320.833,275.5 322.5,275.5C 322.666,280.179 322.499,284.845 322,289.5C 320.258,292.943 318.425,292.776 316.5,289C 317.09,286.804 317.757,284.638 318.5,282.5C 317.626,280.253 317.292,277.92 317.5,275.5 Z"/></g>
<g><path style="opacity:1" fill="#676ed6" d="M 368.5,291.5 C 365.926,290.339 363.76,288.672 362,286.5C 359.5,287.667 357.667,289.5 356.5,292C 358.647,293.951 360.314,296.284 361.5,299C 360.056,299.781 358.723,299.614 357.5,298.5C 356.855,297.354 356.022,296.354 355,295.5C 354.164,297.842 352.83,299.842 351,301.5C 352.291,312.116 349.458,313.782 342.5,306.5C 342.167,307 341.833,307.5 341.5,308C 343.396,311.286 343.896,314.786 343,318.5C 341.825,314.456 339.992,310.789 337.5,307.5C 336.573,309.113 335.739,310.779 335,312.5C 334.501,317.489 334.334,322.489 334.5,327.5C 335.75,330.006 336.416,332.673 336.5,335.5C 331.054,324.899 331.22,314.233 337,303.5C 337.816,302.177 338.983,301.511 340.5,301.5C 343.01,304.363 346.01,306.363 349.5,307.5C 349.279,304.721 349.612,302.054 350.5,299.5C 353.12,294.012 356.454,288.845 360.5,284C 361.635,283.251 362.635,283.417 363.5,284.5C 364.931,287.039 366.597,289.372 368.5,291.5 Z"/></g>
<g><path style="opacity:1" fill="#f8cf63" d="M 317.5,303.5 C 315.07,305.945 312.404,307.945 309.5,309.5C 307.883,310.038 306.216,310.371 304.5,310.5C 304.5,307.167 304.5,303.833 304.5,300.5C 308.023,299.315 311.023,297.315 313.5,294.5C 316.183,292.906 318.516,293.239 320.5,295.5C 318.893,297.917 317.893,300.584 317.5,303.5 Z"/></g>
<g><path style="opacity:1" fill="#5d5778" d="M 293.5,302.5 C 293.5,302.833 293.5,303.167 293.5,303.5C 286.817,303.835 280.483,305.169 274.5,307.5C 273.5,307.5 272.5,307.5 271.5,307.5C 267.186,308.608 262.853,309.608 258.5,310.5C 252.038,311.699 245.704,313.365 239.5,315.5C 241.184,313.798 243.184,312.298 245.5,311C 257.819,309.672 269.819,307.172 281.5,303.5C 285.445,302.509 289.445,302.176 293.5,302.5 Z"/></g>
<g><path style="opacity:1" fill="#d4e0f8" d="M 396.5,327.5 C 395.494,331.726 394.16,335.726 392.5,339.5C 393.085,334.485 393.752,329.485 394.5,324.5C 396.419,320.731 396.919,316.731 396,312.5C 394.09,307.683 391.924,303.016 389.5,298.5C 387.471,299.844 385.471,301.177 383.5,302.5C 385.011,298.327 387.845,296.994 392,298.5C 392.122,302.095 393.956,303.761 397.5,303.5C 397.441,308.69 397.775,313.857 398.5,319C 398.519,322.03 397.853,324.863 396.5,327.5 Z"/></g>
<g><path style="opacity:1" fill="#ccd9e2" d="M 100.5,304.5 C 100.5,311.5 100.5,318.5 100.5,325.5C 92.1996,326.579 83.8663,327.412 75.5,328C 73.8078,329.401 73.1412,331.234 73.5,333.5C 71.5778,326.539 72.4111,319.872 76,313.5C 83.4555,308.575 91.6222,305.575 100.5,304.5 Z"/></g>
<g><path style="opacity:1" fill="#83959f" d="M 147.5,272.5 C 150.167,272.5 152.833,272.5 155.5,272.5C 155.5,318.167 155.5,363.833 155.5,409.5C 152.833,409.5 150.167,409.5 147.5,409.5C 147.5,374.833 147.5,340.167 147.5,305.5C 147.5,294.5 147.5,283.5 147.5,272.5 Z"/></g>
<g><path style="opacity:1" fill="#e0c57d" d="M 293.5,303.5 C 295.388,305.988 296.055,308.988 295.5,312.5C 294.5,312.5 293.5,312.5 292.5,312.5C 294.202,310.2 294.868,307.533 294.5,304.5C 287.833,305.5 281.167,306.5 274.5,307.5C 280.483,305.169 286.817,303.835 293.5,303.5 Z"/></g>
<g><path style="opacity:1" fill="#6164db" d="M 368.5,291.5 C 370.218,293.223 371.551,295.223 372.5,297.5C 373.106,304.247 370.773,309.581 365.5,313.5C 364.626,315.747 364.292,318.08 364.5,320.5C 360.378,320.292 356.378,319.792 352.5,319C 351.258,320.875 349.924,322.709 348.5,324.5C 347.695,328.038 347.695,331.705 348.5,335.5C 345.813,335.664 343.146,335.497 340.5,335C 342.473,334.505 344.473,334.338 346.5,334.5C 346.5,333.167 346.5,331.833 346.5,330.5C 343.482,330.665 340.482,330.498 337.5,330C 340.226,329.818 342.893,329.318 345.5,328.5C 341.857,326.942 338.19,326.609 334.5,327.5C 334.334,322.489 334.501,317.489 335,312.5C 335.739,310.779 336.573,309.113 337.5,307.5C 339.992,310.789 341.825,314.456 343,318.5C 343.896,314.786 343.396,311.286 341.5,308C 341.833,307.5 342.167,307 342.5,306.5C 349.458,313.782 352.291,312.116 351,301.5C 352.83,299.842 354.164,297.842 355,295.5C 356.022,296.354 356.855,297.354 357.5,298.5C 358.723,299.614 360.056,299.781 361.5,299C 360.314,296.284 358.647,293.951 356.5,292C 357.667,289.5 359.5,287.667 362,286.5C 363.76,288.672 365.926,290.339 368.5,291.5 Z"/></g>
<g><path style="opacity:1" fill="#bcced8" d="M 183.5,294.5 C 181.647,297.208 180.647,300.208 180.5,303.5C 179.72,315.885 179.387,328.218 179.5,340.5C 182.148,355.428 184.315,370.428 186,385.5C 186.383,386.056 186.883,386.389 187.5,386.5C 188.434,388.239 188.434,389.905 187.5,391.5C 184.341,394.582 180.675,396.916 176.5,398.5C 175.614,399.325 175.281,400.325 175.5,401.5C 174.5,402.167 173.5,402.833 172.5,403.5C 171.29,403.932 170.29,404.599 169.5,405.5C 169.833,406.833 170.167,408.167 170.5,409.5C 165.833,409.5 161.167,409.5 156.5,409.5C 156.5,374.5 156.5,339.5 156.5,304.5C 163.833,304.5 171.167,304.5 178.5,304.5C 178.274,301.751 178.607,299.084 179.5,296.5C 180.577,295.295 181.91,294.628 183.5,294.5 Z"/></g>
<g><path style="opacity:1" fill="#fad05e" d="M 292.5,312.5 C 291.833,312.5 291.167,312.5 290.5,312.5C 280.478,312.832 270.478,312.499 260.5,311.5C 264.107,310.511 267.774,310.177 271.5,310.5C 271.5,309.5 271.5,308.5 271.5,307.5C 272.5,307.5 273.5,307.5 274.5,307.5C 281.167,306.5 287.833,305.5 294.5,304.5C 294.868,307.533 294.202,310.2 292.5,312.5 Z"/></g>
<g><path style="opacity:1" fill="#bbcdd7" d="M 109.5,301.5 C 109.833,301.5 110.167,301.5 110.5,301.5C 110.169,309.196 110.503,316.862 111.5,324.5C 117.167,323.833 122.833,323.167 128.5,322.5C 130.198,316.269 133.531,311.102 138.5,307C 141.351,305.711 144.351,305.211 147.5,305.5C 147.5,340.167 147.5,374.833 147.5,409.5C 134.833,409.5 122.167,409.5 109.5,409.5C 109.5,373.5 109.5,337.5 109.5,301.5 Z"/></g>
<g><path style="opacity:1" fill="#e7cb79" d="M 271.5,307.5 C 271.5,308.5 271.5,309.5 271.5,310.5C 267.774,310.177 264.107,310.511 260.5,311.5C 270.478,312.499 280.478,312.832 290.5,312.5C 282.35,313.493 274.017,313.826 265.5,313.5C 263.5,313.5 261.5,313.5 259.5,313.5C 258.89,312.609 258.557,311.609 258.5,310.5C 262.853,309.608 267.186,308.608 271.5,307.5 Z"/></g>
<g><path style="opacity:1" fill="#404c54" d="M 309.5,309.5 C 309.445,312.614 308.112,314.948 305.5,316.5C 304.539,314.735 304.205,312.735 304.5,310.5C 306.216,310.371 307.883,310.038 309.5,309.5 Z"/></g>
<g><path style="opacity:1" fill="#65664b" d="M 290.5,312.5 C 291.167,312.5 291.833,312.5 292.5,312.5C 293.5,312.5 294.5,312.5 295.5,312.5C 295.5,312.833 295.5,313.167 295.5,313.5C 285.352,314.742 275.352,314.742 265.5,313.5C 274.017,313.826 282.35,313.493 290.5,312.5 Z"/></g>
<g><path style="opacity:1" fill="#3b4d5d" d="M 259.5,313.5 C 261.5,313.5 263.5,313.5 265.5,313.5C 275.352,314.742 285.352,314.742 295.5,313.5C 295.5,314.5 295.5,315.5 295.5,316.5C 292.941,316.198 290.607,316.532 288.5,317.5C 285.5,317.5 282.5,317.5 279.5,317.5C 274.156,317.666 268.823,317.499 263.5,317C 261.676,316.34 260.343,315.173 259.5,313.5 Z"/></g>
<g><path style="opacity:1" fill="#bbcdd7" d="M 258.5,310.5 C 258.557,311.609 258.89,312.609 259.5,313.5C 260.343,315.173 261.676,316.34 263.5,317C 268.823,317.499 274.156,317.666 279.5,317.5C 279.5,338.5 279.5,359.5 279.5,380.5C 277.833,380.5 276.167,380.5 274.5,380.5C 274.5,384.833 274.5,389.167 274.5,393.5C 270.298,393.183 266.298,393.517 262.5,394.5C 261.442,393.4 260.608,392.066 260,390.5C 259.184,389.177 258.017,388.511 256.5,388.5C 256.167,385.833 255.833,383.167 255.5,380.5C 254.5,380.5 253.5,380.5 252.5,380.5C 253.172,379.733 254.005,379.066 255,378.5C 255.74,377.251 255.573,376.251 254.5,375.5C 251.103,364.143 247.603,352.81 244,341.5C 241.404,333.355 239.904,325.021 239.5,316.5C 239.5,316.167 239.5,315.833 239.5,315.5C 245.704,313.365 252.038,311.699 258.5,310.5 Z"/></g>
<g><path style="opacity:1" fill="#0b2032" d="M 279.5,317.5 C 282.5,317.5 285.5,317.5 288.5,317.5C 288.5,338.5 288.5,359.5 288.5,380.5C 285.5,380.5 282.5,380.5 279.5,380.5C 279.5,359.5 279.5,338.5 279.5,317.5 Z"/></g>
<g><path style="opacity:1" fill="#acb6bc" d="M 303.5,272.5 C 303.226,277.263 303.559,281.93 304.5,286.5C 304.5,291.167 304.5,295.833 304.5,300.5C 304.5,303.833 304.5,307.167 304.5,310.5C 304.205,312.735 304.539,314.735 305.5,316.5C 304.529,325.416 304.196,334.416 304.5,343.5C 304.5,360.167 304.5,376.833 304.5,393.5C 303.527,395.948 303.194,398.615 303.5,401.5C 309.5,401.5 315.5,401.5 321.5,401.5C 321.298,403.95 321.631,406.283 322.5,408.5C 313.696,408.974 304.862,409.974 296,411.5C 294.305,410.843 292.472,410.843 290.5,411.5C 288.97,411.36 287.97,410.693 287.5,409.5C 288.473,407.052 288.806,404.385 288.5,401.5C 291.167,401.5 293.833,401.5 296.5,401.5C 296.5,398.833 296.5,396.167 296.5,393.5C 295.5,393.5 294.5,393.5 293.5,393.5C 293.5,393.167 293.5,392.833 293.5,392.5C 295.491,367.856 296.157,342.856 295.5,317.5C 293.5,317.5 291.5,317.5 289.5,317.5C 289.5,338.5 289.5,359.5 289.5,380.5C 289.167,380.5 288.833,380.5 288.5,380.5C 288.5,359.5 288.5,338.5 288.5,317.5C 290.607,316.532 292.941,316.198 295.5,316.5C 295.5,315.5 295.5,314.5 295.5,313.5C 295.5,313.167 295.5,312.833 295.5,312.5C 296.055,308.988 295.388,305.988 293.5,303.5C 293.5,303.167 293.5,302.833 293.5,302.5C 295.461,295.913 296.128,288.913 295.5,281.5C 295.5,278.5 295.5,275.5 295.5,272.5C 298.167,272.5 300.833,272.5 303.5,272.5 Z"/></g>
<g><path style="opacity:1" fill="#263d52" d="M 280.5,318.5 C 281.833,318.5 283.167,318.5 284.5,318.5C 284.5,338.833 284.5,359.167 284.5,379.5C 283.167,379.5 281.833,379.5 280.5,379.5C 280.5,359.167 280.5,338.833 280.5,318.5 Z"/></g>
<g><path style="opacity:1" fill="#5f60d1" d="M 372.5,297.5 C 373.167,298.167 373.833,298.833 374.5,299.5C 375.234,300.708 375.567,302.041 375.5,303.5C 375.335,306.518 375.502,309.518 376,312.5C 376.717,311.956 377.217,311.289 377.5,310.5C 379.115,307.55 381.115,304.884 383.5,302.5C 385.471,301.177 387.471,299.844 389.5,298.5C 391.924,303.016 394.09,307.683 396,312.5C 396.919,316.731 396.419,320.731 394.5,324.5C 393.067,326.519 391.733,328.686 390.5,331C 390.957,331.414 391.291,331.914 391.5,332.5C 388.719,334.963 385.886,337.297 383,339.5C 382.259,336.438 382.425,333.438 383.5,330.5C 383.135,329.098 382.301,328.098 381,327.5C 378.684,327.066 376.684,326.066 375,324.5C 372.337,326.334 369.837,328.334 367.5,330.5C 365.803,328.695 364.97,326.361 365,323.5C 364.503,325.81 364.337,328.143 364.5,330.5C 362.833,330.5 361.167,330.5 359.5,330.5C 356.67,330.306 354.004,329.639 351.5,328.5C 350.645,331.711 349.645,334.878 348.5,338C 345.246,337.865 342.08,338.031 339,338.5C 338.148,337.429 337.315,336.429 336.5,335.5C 336.416,332.673 335.75,330.006 334.5,327.5C 338.19,326.609 341.857,326.942 345.5,328.5C 342.893,329.318 340.226,329.818 337.5,330C 340.482,330.498 343.482,330.665 346.5,330.5C 346.5,331.833 346.5,333.167 346.5,334.5C 344.473,334.338 342.473,334.505 340.5,335C 343.146,335.497 345.813,335.664 348.5,335.5C 347.695,331.705 347.695,328.038 348.5,324.5C 349.924,322.709 351.258,320.875 352.5,319C 356.378,319.792 360.378,320.292 364.5,320.5C 364.292,318.08 364.626,315.747 365.5,313.5C 370.773,309.581 373.106,304.247 372.5,297.5 Z"/></g>
<g><path style="opacity:1" fill="#99a0da" d="M 375.5,303.5 C 376.167,305.833 376.833,308.167 377.5,310.5C 377.217,311.289 376.717,311.956 376,312.5C 375.502,309.518 375.335,306.518 375.5,303.5 Z"/></g>
<g><path style="opacity:1" fill="#5d56bd" d="M 394.5,324.5 C 393.752,329.485 393.085,334.485 392.5,339.5C 391.266,343.994 390.266,348.661 389.5,353.5C 387.318,354.3 385.651,355.8 384.5,358C 382.341,358.912 380.175,359.745 378,360.5C 376.812,359.437 376.312,358.103 376.5,356.5C 373.618,357.77 370.618,358.77 367.5,359.5C 366.389,354.584 366.222,349.584 367,344.5C 367.5,344 368,343.5 368.5,343C 367.422,342.326 366.755,341.326 366.5,340C 367.748,337.743 369.415,335.743 371.5,334C 369.613,333.837 368.113,334.671 367,336.5C 366.322,334.402 366.489,332.402 367.5,330.5C 369.837,328.334 372.337,326.334 375,324.5C 376.684,326.066 378.684,327.066 381,327.5C 382.301,328.098 383.135,329.098 383.5,330.5C 382.425,333.438 382.259,336.438 383,339.5C 385.886,337.297 388.719,334.963 391.5,332.5C 391.291,331.914 390.957,331.414 390.5,331C 391.733,328.686 393.067,326.519 394.5,324.5 Z"/></g>
<g><path style="opacity:1" fill="#cbd8e2" d="M 396.5,327.5 C 409.065,330.588 414.232,338.588 412,351.5C 409.171,370.806 406.671,390.139 404.5,409.5C 396.833,409.5 389.167,409.5 381.5,409.5C 382.248,402.191 382.582,394.858 382.5,387.5C 382.5,384.5 382.5,381.5 382.5,378.5C 383.483,374.702 383.817,370.702 383.5,366.5C 381.708,366.634 380.042,366.301 378.5,365.5C 378.5,364.167 378.5,362.833 378.5,361.5C 383.849,361.152 387.515,358.485 389.5,353.5C 390.266,348.661 391.266,343.994 392.5,339.5C 394.16,335.726 395.494,331.726 396.5,327.5 Z"/></g>
<g><path style="opacity:1" fill="#bccdd7" d="M 100.5,272.5 C 100.833,272.5 101.167,272.5 101.5,272.5C 101.5,317.5 101.5,362.5 101.5,407.5C 96.2545,409.292 90.5879,410.126 84.5,410C 66.1697,410.5 47.8364,410.667 29.5,410.5C 29.5,413.5 29.5,416.5 29.5,419.5C 28.5206,416.375 28.1872,413.042 28.5,409.5C 34.5,409.5 40.5,409.5 46.5,409.5C 58.8333,409.5 71.1667,409.5 83.5,409.5C 80.6771,384.092 77.3437,358.759 73.5,333.5C 73.1412,331.234 73.8078,329.401 75.5,328C 83.8663,327.412 92.1996,326.579 100.5,325.5C 100.5,318.5 100.5,311.5 100.5,304.5C 100.5,293.833 100.5,283.167 100.5,272.5 Z"/></g>
<g><path style="opacity:1" fill="#565987" d="M 209.5,312.5 C 209.5,311.833 209.833,311.5 210.5,311.5C 211.315,312.429 212.148,313.429 213,314.5C 214.943,321.049 216.276,327.716 217,334.5C 220.433,341.165 222.933,348.165 224.5,355.5C 226.124,355.36 227.29,356.027 228,357.5C 228.498,360.482 228.665,363.482 228.5,366.5C 220.461,349.091 214.128,331.091 209.5,312.5 Z"/></g>
<g><path style="opacity:1" fill="#726fd7" d="M 367.5,330.5 C 366.489,332.402 366.322,334.402 367,336.5C 368.113,334.671 369.613,333.837 371.5,334C 369.415,335.743 367.748,337.743 366.5,340C 366.755,341.326 367.422,342.326 368.5,343C 368,343.5 367.5,344 367,344.5C 366.222,349.584 366.389,354.584 367.5,359.5C 367.5,360.167 367.5,360.833 367.5,361.5C 366.833,365.5 366.167,365.5 365.5,361.5C 365.5,360.5 365.5,359.5 365.5,358.5C 360.167,358.167 360.167,357.833 365.5,357.5C 365.5,356.5 365.5,355.5 365.5,354.5C 360.167,354.167 360.167,353.833 365.5,353.5C 365.5,350.5 365.5,347.5 365.5,344.5C 360.167,344.167 360.167,343.833 365.5,343.5C 365.5,341.833 365.5,340.167 365.5,338.5C 360.808,338.159 356.474,336.659 352.5,334C 356.522,334.83 360.522,335.996 364.5,337.5C 364.5,335.5 364.5,333.5 364.5,331.5C 362.585,331.784 360.919,331.451 359.5,330.5C 361.167,330.5 362.833,330.5 364.5,330.5C 364.337,328.143 364.503,325.81 365,323.5C 364.97,326.361 365.803,328.695 367.5,330.5 Z"/></g>
<g><path style="opacity:1" fill="#5c55b9" d="M 359.5,330.5 C 360.919,331.451 362.585,331.784 364.5,331.5C 364.5,333.5 364.5,335.5 364.5,337.5C 360.522,335.996 356.522,334.83 352.5,334C 356.474,336.659 360.808,338.159 365.5,338.5C 365.5,340.167 365.5,341.833 365.5,343.5C 360.167,343.833 360.167,344.167 365.5,344.5C 365.5,347.5 365.5,350.5 365.5,353.5C 360.167,353.833 360.167,354.167 365.5,354.5C 365.5,355.5 365.5,356.5 365.5,357.5C 360.167,357.833 360.167,358.167 365.5,358.5C 365.5,359.5 365.5,360.5 365.5,361.5C 363.418,361.528 361.584,360.861 360,359.5C 357.8,360.651 356.3,362.318 355.5,364.5C 354.508,364.672 353.842,364.338 353.5,363.5C 351.611,362.678 349.611,361.845 347.5,361C 345.934,358.674 344.268,356.508 342.5,354.5C 340.044,348.353 338.044,342.019 336.5,335.5C 337.315,336.429 338.148,337.429 339,338.5C 342.08,338.031 345.246,337.865 348.5,338C 349.645,334.878 350.645,331.711 351.5,328.5C 354.004,329.639 356.67,330.306 359.5,330.5 Z"/></g>
<g><path style="opacity:1" fill="#5f5da6" d="M 389.5,353.5 C 387.515,358.485 383.849,361.152 378.5,361.5C 378.5,362.833 378.5,364.167 378.5,365.5C 377.833,365.5 377.167,365.5 376.5,365.5C 376.873,359.347 374.539,358.014 369.5,361.5C 368.833,361.5 368.167,361.5 367.5,361.5C 367.5,360.833 367.5,360.167 367.5,359.5C 370.618,358.77 373.618,357.77 376.5,356.5C 376.312,358.103 376.812,359.437 378,360.5C 380.175,359.745 382.341,358.912 384.5,358C 385.651,355.8 387.318,354.3 389.5,353.5 Z"/></g>
<g><path style="opacity:1" fill="#b6bde8" d="M 365.5,361.5 C 366.167,365.5 366.833,365.5 367.5,361.5C 368.167,361.5 368.833,361.5 369.5,361.5C 368.766,362.708 368.433,364.041 368.5,365.5C 366.958,366.301 365.292,366.634 363.5,366.5C 364.234,365.292 364.567,363.959 364.5,362.5C 362.143,362.337 359.81,362.503 357.5,363C 356.944,363.383 356.611,363.883 356.5,364.5C 356.167,364.5 355.833,364.5 355.5,364.5C 356.3,362.318 357.8,360.651 360,359.5C 361.584,360.861 363.418,361.528 365.5,361.5 Z"/></g>
<g><path style="opacity:1" fill="#575a86" d="M 239.5,316.5 C 239.904,325.021 241.404,333.355 244,341.5C 247.603,352.81 251.103,364.143 254.5,375.5C 253.178,375.67 252.011,375.337 251,374.5C 249.039,367.315 247.372,359.982 246,352.5C 244.855,350.074 243.522,347.741 242,345.5C 242.045,340.534 241.045,335.868 239,331.5C 238.184,326.316 238.35,321.316 239.5,316.5 Z"/></g>
<g><path style="opacity:1" fill="#bcced7" d="M 304.5,343.5 C 307.494,349.417 309.494,355.75 310.5,362.5C 321.221,361.109 329.054,365.109 334,374.5C 335.73,382.109 335.896,389.776 334.5,397.5C 333.943,399.332 332.943,400.665 331.5,401.5C 331.167,401.5 330.833,401.5 330.5,401.5C 332.048,398.742 331.715,396.242 329.5,394C 321.173,393.5 312.84,393.334 304.5,393.5C 304.5,376.833 304.5,360.167 304.5,343.5 Z"/></g>
<g><path style="opacity:1" fill="#c8d4e1" d="M 363.5,366.5 C 360.612,367.01 358.279,366.344 356.5,364.5C 356.611,363.883 356.944,363.383 357.5,363C 359.81,362.503 362.143,362.337 364.5,362.5C 364.567,363.959 364.234,365.292 363.5,366.5 Z"/></g>
<g><path style="opacity:1" fill="#bbcdd7" d="M 209.5,312.5 C 214.128,331.091 220.461,349.091 228.5,366.5C 230.878,372.927 233.545,379.26 236.5,385.5C 237.7,386.292 239.033,386.292 240.5,385.5C 240.833,386.833 241.167,388.167 241.5,389.5C 240.5,390.833 239.5,392.167 238.5,393.5C 233.514,397.155 228.847,401.155 224.5,405.5C 223.957,405.56 223.624,405.893 223.5,406.5C 224.193,407.518 224.859,408.518 225.5,409.5C 224.833,409.5 224.167,409.5 223.5,409.5C 205.672,410.646 188.006,410.646 170.5,409.5C 183.5,409.5 196.5,409.5 209.5,409.5C 209.634,407.708 209.301,406.042 208.5,404.5C 209.097,404.265 209.43,403.765 209.5,403C 208.68,399.461 207.346,396.294 205.5,393.5C 205.5,391.5 205.5,389.5 205.5,387.5C 208.561,388.978 210.894,388.145 212.5,385C 211.344,382.56 211.344,380.06 212.5,377.5C 209.743,370.503 208.41,363.17 208.5,355.5C 207.797,342.509 207.463,329.509 207.5,316.5C 207.66,314.847 208.326,313.514 209.5,312.5 Z"/></g>
<g><path style="opacity:1" fill="#c6d1e5" d="M 376.5,365.5 C 373.728,366.767 371.061,366.767 368.5,365.5C 368.433,364.041 368.766,362.708 369.5,361.5C 374.539,358.014 376.873,359.347 376.5,365.5 Z"/></g>
<g><path style="opacity:1" fill="#84949f" d="M 342.5,354.5 C 344.268,356.508 345.934,358.674 347.5,361C 349.611,361.845 351.611,362.678 353.5,363.5C 352.5,363.5 351.5,363.5 350.5,363.5C 349.268,370.309 349.268,376.976 350.5,383.5C 350.5,384.833 350.5,386.167 350.5,387.5C 350.5,391.5 350.5,395.5 350.5,399.5C 350.5,402.833 350.5,406.167 350.5,409.5C 347.833,409.5 345.167,409.5 342.5,409.5C 342.5,391.167 342.5,372.833 342.5,354.5 Z"/></g>
<g><path style="opacity:1" fill="#bbced8" d="M 293.5,392.5 C 293.5,388.5 293.5,384.5 293.5,380.5C 292.167,380.5 290.833,380.5 289.5,380.5C 289.5,359.5 289.5,338.5 289.5,317.5C 291.5,317.5 293.5,317.5 295.5,317.5C 296.157,342.856 295.491,367.856 293.5,392.5 Z"/></g>
<g><path style="opacity:1" fill="#97a8b7" d="M 353.5,363.5 C 353.842,364.338 354.508,364.672 355.5,364.5C 355.833,364.5 356.167,364.5 356.5,364.5C 358.279,366.344 360.612,367.01 363.5,366.5C 365.292,366.634 366.958,366.301 368.5,365.5C 371.061,366.767 373.728,366.767 376.5,365.5C 377.167,365.5 377.833,365.5 378.5,365.5C 380.042,366.301 381.708,366.634 383.5,366.5C 383.817,370.702 383.483,374.702 382.5,378.5C 371.833,378.5 361.167,378.5 350.5,378.5C 350.5,380.167 350.5,381.833 350.5,383.5C 349.268,376.976 349.268,370.309 350.5,363.5C 351.5,363.5 352.5,363.5 353.5,363.5 Z"/></g>
<g><path style="opacity:1" fill="#b0bcd7" d="M 180.5,303.5 C 180.969,331.325 183.302,358.992 187.5,386.5C 186.883,386.389 186.383,386.056 186,385.5C 184.315,370.428 182.148,355.428 179.5,340.5C 179.387,328.218 179.72,315.885 180.5,303.5 Z"/></g>
<g><path style="opacity:1" fill="#a5b6c6" d="M 382.5,378.5 C 382.5,381.5 382.5,384.5 382.5,387.5C 371.833,387.5 361.167,387.5 350.5,387.5C 350.5,386.167 350.5,384.833 350.5,383.5C 350.5,381.833 350.5,380.167 350.5,378.5C 361.167,378.5 371.833,378.5 382.5,378.5 Z"/></g>
<g><path style="opacity:1" fill="#e3bab2" d="M 252.5,380.5 C 253.5,380.5 254.5,380.5 255.5,380.5C 255.833,383.167 256.167,385.833 256.5,388.5C 255.22,389.931 253.553,390.598 251.5,390.5C 250.726,391.147 249.726,391.48 248.5,391.5C 246.068,391.114 243.734,390.447 241.5,389.5C 241.167,388.167 240.833,386.833 240.5,385.5C 244.213,383.315 248.213,381.648 252.5,380.5 Z"/></g>
<g><path style="opacity:1" fill="#b8c3d7" d="M 207.5,316.5 C 207.463,329.509 207.797,342.509 208.5,355.5C 208.41,363.17 209.743,370.503 212.5,377.5C 211.344,380.06 211.344,382.56 212.5,385C 210.894,388.145 208.561,388.978 205.5,387.5C 200.833,387.5 196.167,387.5 191.5,387.5C 191.5,389.167 191.5,390.833 191.5,392.5C 185.913,394.962 180.58,397.962 175.5,401.5C 175.281,400.325 175.614,399.325 176.5,398.5C 180.675,396.916 184.341,394.582 187.5,391.5C 188.434,389.905 188.434,388.239 187.5,386.5C 194.5,386.5 201.5,386.5 208.5,386.5C 206.873,363.019 206.54,339.686 207.5,316.5 Z"/></g>
<g><path style="opacity:1" fill="#fcc2ab" d="M 251.5,390.5 C 249.071,390.116 246.737,389.449 244.5,388.5C 244.238,387.022 244.571,385.689 245.5,384.5C 248.333,383.067 251.333,382.4 254.5,382.5C 254.833,384.5 255.167,386.5 255.5,388.5C 253.62,388.229 252.287,388.896 251.5,390.5 Z"/></g>
<g><path style="opacity:1" fill="#394c5c" d="M 279.5,380.5 C 282.5,380.5 285.5,380.5 288.5,380.5C 288.833,380.5 289.167,380.5 289.5,380.5C 290.833,380.5 292.167,380.5 293.5,380.5C 293.5,384.5 293.5,388.5 293.5,392.5C 293.5,392.833 293.5,393.167 293.5,393.5C 287.167,393.5 280.833,393.5 274.5,393.5C 274.5,389.167 274.5,384.833 274.5,380.5C 276.167,380.5 277.833,380.5 279.5,380.5 Z"/></g>
<g><path style="opacity:1" fill="#96a8b6" d="M 350.5,387.5 C 361.167,387.5 371.833,387.5 382.5,387.5C 382.582,394.858 382.248,402.191 381.5,409.5C 371.833,409.5 362.167,409.5 352.5,409.5C 352.101,405.989 351.434,402.656 350.5,399.5C 350.5,395.5 350.5,391.5 350.5,387.5 Z"/></g>
<g><path style="opacity:1" fill="#f4bfab" d="M 205.5,387.5 C 205.5,389.5 205.5,391.5 205.5,393.5C 201.608,395.534 197.608,395.867 193.5,394.5C 193.167,394.5 192.833,394.5 192.5,394.5C 192.167,393.833 191.833,393.167 191.5,392.5C 191.5,390.833 191.5,389.167 191.5,387.5C 196.167,387.5 200.833,387.5 205.5,387.5 Z"/></g>
<g><path style="opacity:1" fill="#47426a" d="M 256.5,388.5 C 258.017,388.511 259.184,389.177 260,390.5C 260.608,392.066 261.442,393.4 262.5,394.5C 262.833,395.833 263.167,397.167 263.5,398.5C 260.794,398.575 258.127,398.908 255.5,399.5C 256.78,398.069 258.447,397.402 260.5,397.5C 260.5,396.167 260.5,394.833 260.5,393.5C 258.897,393.688 257.563,393.188 256.5,392C 258.595,391.444 258.762,390.944 257,390.5C 250.946,392.083 244.779,393.083 238.5,393.5C 239.5,392.167 240.5,390.833 241.5,389.5C 243.734,390.447 246.068,391.114 248.5,391.5C 249.726,391.48 250.726,391.147 251.5,390.5C 253.553,390.598 255.22,389.931 256.5,388.5 Z"/></g>
<g><path style="opacity:1" fill="#e0c77c" d="M 274.5,393.5 C 280.833,393.5 287.167,393.5 293.5,393.5C 294.5,393.5 295.5,393.5 296.5,393.5C 296.5,396.167 296.5,398.833 296.5,401.5C 293.833,401.5 291.167,401.5 288.5,401.5C 285.5,401.5 282.5,401.5 279.5,401.5C 274.5,401.5 269.5,401.5 264.5,401.5C 263.89,400.609 263.557,399.609 263.5,398.5C 263.167,397.167 262.833,395.833 262.5,394.5C 266.298,393.517 270.298,393.183 274.5,393.5 Z"/></g>
<g><path style="opacity:1" fill="#dfc87a" d="M 304.5,393.5 C 312.84,393.334 321.173,393.5 329.5,394C 331.715,396.242 332.048,398.742 330.5,401.5C 327.5,401.5 324.5,401.5 321.5,401.5C 315.5,401.5 309.5,401.5 303.5,401.5C 303.194,398.615 303.527,395.948 304.5,393.5 Z"/></g>
<g><path style="opacity:1" fill="#fad05d" d="M 264.5,394.5 C 274.5,394.5 284.5,394.5 294.5,394.5C 294.5,396.167 294.5,397.833 294.5,399.5C 284.5,399.5 274.5,399.5 264.5,399.5C 264.5,397.833 264.5,396.167 264.5,394.5 Z"/></g>
<g><path style="opacity:1" fill="#fad15c" d="M 306.5,394.5 C 313.841,394.334 321.174,394.5 328.5,395C 329.38,396.356 329.714,397.856 329.5,399.5C 321.833,399.5 314.167,399.5 306.5,399.5C 306.5,397.833 306.5,396.167 306.5,394.5 Z"/></g>
<g><path style="opacity:1" fill="#3e3e77" d="M 255.5,399.5 C 245.113,401.244 234.78,403.244 224.5,405.5C 228.847,401.155 233.514,397.155 238.5,393.5C 244.779,393.083 250.946,392.083 257,390.5C 258.762,390.944 258.595,391.444 256.5,392C 257.563,393.188 258.897,393.688 260.5,393.5C 260.5,394.833 260.5,396.167 260.5,397.5C 258.447,397.402 256.78,398.069 255.5,399.5 Z"/></g>
<g><path style="opacity:1" fill="#3f4170" d="M 191.5,392.5 C 191.833,393.167 192.167,393.833 192.5,394.5C 187.349,395.238 183.349,397.738 180.5,402C 182.433,402.251 184.266,402.751 186,403.5C 193.079,402.52 200.245,402.187 207.5,402.5C 207.5,401.5 207.5,400.5 207.5,399.5C 205.406,398.758 203.239,398.091 201,397.5C 197.859,398.322 194.693,398.989 191.5,399.5C 191.831,397.678 192.498,396.011 193.5,394.5C 197.608,395.867 201.608,395.534 205.5,393.5C 207.346,396.294 208.68,399.461 209.5,403C 209.43,403.765 209.097,404.265 208.5,404.5C 201.5,404.5 194.5,404.5 187.5,404.5C 182.305,404.821 177.305,404.487 172.5,403.5C 173.5,402.833 174.5,402.167 175.5,401.5C 180.58,397.962 185.913,394.962 191.5,392.5 Z"/></g>
<g><path style="opacity:1" fill="#3d3c79" d="M 192.5,394.5 C 192.833,394.5 193.167,394.5 193.5,394.5C 192.498,396.011 191.831,397.678 191.5,399.5C 194.693,398.989 197.859,398.322 201,397.5C 203.239,398.091 205.406,398.758 207.5,399.5C 207.5,400.5 207.5,401.5 207.5,402.5C 200.245,402.187 193.079,402.52 186,403.5C 184.266,402.751 182.433,402.251 180.5,402C 183.349,397.738 187.349,395.238 192.5,394.5 Z"/></g>
<g><path style="opacity:1" fill="#e7eaf0" d="M 263.5,398.5 C 263.557,399.609 263.89,400.609 264.5,401.5C 264.389,402.117 264.056,402.617 263.5,403C 257.933,404.595 252.266,405.762 246.5,406.5C 243.904,407.265 241.237,407.599 238.5,407.5C 234.364,409.183 230.031,409.85 225.5,409.5C 224.859,408.518 224.193,407.518 223.5,406.5C 223.624,405.893 223.957,405.56 224.5,405.5C 234.78,403.244 245.113,401.244 255.5,399.5C 258.127,398.908 260.794,398.575 263.5,398.5 Z"/></g>
<g><path style="opacity:1" fill="#aebeca" d="M 155.5,272.5 C 155.833,272.5 156.167,272.5 156.5,272.5C 156.5,283.167 156.5,293.833 156.5,304.5C 156.5,339.5 156.5,374.5 156.5,409.5C 161.167,409.5 165.833,409.5 170.5,409.5C 188.006,410.646 205.672,410.646 223.5,409.5C 222.223,411.148 221.223,412.982 220.5,415C 218.866,415.494 217.199,415.66 215.5,415.5C 215.5,414.5 215.5,413.5 215.5,412.5C 212.453,411.855 210.287,412.855 209,415.5C 189.489,415.138 171.489,415.138 155,415.5C 154.333,410.167 153.667,410.167 153,415.5C 151.846,413.043 150.512,413.043 149,415.5C 148.385,413.884 147.385,412.551 146,411.5C 134.581,412.488 123.081,412.821 111.5,412.5C 111.649,413.552 111.483,414.552 111,415.5C 103.043,415.084 95.7092,415.084 89,415.5C 87.1153,413.98 84.9486,412.98 82.5,412.5C 73.214,413.307 63.8807,413.807 54.5,414C 53.5704,414.991 52.4038,415.491 51,415.5C 45.0474,413.502 38.8807,413.002 32.5,414C 31.1667,415 31.1667,416 32.5,417C 170.5,417.667 308.5,417.667 446.5,417C 446.833,416 447.167,415 447.5,414C 440.833,413.833 434.167,413.667 427.5,413.5C 420.428,413.52 413.595,414.187 407,415.5C 402.692,415.525 397.692,414.858 392,413.5C 387.842,413.375 383.842,414.041 380,415.5C 378.093,413.416 376.427,413.416 375,415.5C 373.667,415.5 372.333,415.5 371,415.5C 369.112,413.078 367.112,413.078 365,415.5C 361.463,414.578 357.796,414.578 354,415.5C 352.775,415.138 351.609,414.638 350.5,414C 351.413,412.586 351.413,411.086 350.5,409.5C 350.5,406.167 350.5,402.833 350.5,399.5C 351.434,402.656 352.101,405.989 352.5,409.5C 362.167,409.5 371.833,409.5 381.5,409.5C 389.167,409.5 396.833,409.5 404.5,409.5C 420.167,409.5 435.833,409.5 451.5,409.5C 454.833,409.5 458.167,409.5 461.5,409.5C 461.789,413.106 461.456,416.606 460.5,420C 316.657,420.449 172.99,420.283 29.5,419.5C 29.5,416.5 29.5,413.5 29.5,410.5C 47.8364,410.667 66.1697,410.5 84.5,410C 90.5879,410.126 96.2545,409.292 101.5,407.5C 102.222,407.918 102.722,408.584 103,409.5C 105.342,409.283 107.508,409.283 109.5,409.5C 122.167,409.5 134.833,409.5 147.5,409.5C 150.167,409.5 152.833,409.5 155.5,409.5C 155.5,363.833 155.5,318.167 155.5,272.5 Z"/></g>
<g><path style="opacity:1" fill="#1f2c38" d="M 246.5,406.5 C 246.167,407.167 245.833,407.833 245.5,408.5C 242.69,410.178 240.357,409.845 238.5,407.5C 241.237,407.599 243.904,407.265 246.5,406.5 Z"/></g>
<g><path style="opacity:1" fill="#0f2331" d="M 321.5,401.5 C 324.5,401.5 327.5,401.5 330.5,401.5C 330.833,401.5 331.167,401.5 331.5,401.5C 331.5,402.167 331.5,402.833 331.5,403.5C 331.026,409.333 328.026,411 322.5,408.5C 321.631,406.283 321.298,403.95 321.5,401.5 Z"/></g>
<g><path style="opacity:1" fill="#bdcdd7" d="M 264.5,401.5 C 269.5,401.5 274.5,401.5 279.5,401.5C 279.5,401.833 279.5,402.167 279.5,402.5C 278.532,404.607 278.198,406.941 278.5,409.5C 267.321,409.828 256.321,409.495 245.5,408.5C 245.833,407.833 246.167,407.167 246.5,406.5C 252.266,405.762 257.933,404.595 263.5,403C 264.056,402.617 264.389,402.117 264.5,401.5 Z"/></g>
<g><path style="opacity:1" fill="#eeeff5" d="M 187.5,404.5 C 194.5,404.5 201.5,404.5 208.5,404.5C 209.301,406.042 209.634,407.708 209.5,409.5C 196.5,409.5 183.5,409.5 170.5,409.5C 170.167,408.167 169.833,406.833 169.5,405.5C 175.69,405.823 181.69,405.49 187.5,404.5 Z"/></g>
<g><path style="opacity:1" fill="#0d2030" d="M 279.5,401.5 C 282.5,401.5 285.5,401.5 288.5,401.5C 288.806,404.385 288.473,407.052 287.5,409.5C 284.833,409.5 282.167,409.5 279.5,409.5C 279.5,407.167 279.5,404.833 279.5,402.5C 279.5,402.167 279.5,401.833 279.5,401.5 Z"/></g>
<g><path style="opacity:1" fill="#9092b1" d="M 172.5,403.5 C 177.305,404.487 182.305,404.821 187.5,404.5C 181.69,405.49 175.69,405.823 169.5,405.5C 170.29,404.599 171.29,403.932 172.5,403.5 Z"/></g>
<g><path style="opacity:1" fill="#a5b6c7" d="M 279.5,402.5 C 279.5,404.833 279.5,407.167 279.5,409.5C 282.167,409.5 284.833,409.5 287.5,409.5C 287.97,410.693 288.97,411.36 290.5,411.5C 292.472,410.843 294.305,410.843 296,411.5C 304.862,409.974 313.696,408.974 322.5,408.5C 328.026,411 331.026,409.333 331.5,403.5C 332.467,404.806 333.801,405.473 335.5,405.5C 335.67,406.822 335.337,407.989 334.5,409C 337.146,409.497 339.813,409.664 342.5,409.5C 345.167,409.5 347.833,409.5 350.5,409.5C 351.413,411.086 351.413,412.586 350.5,414C 351.609,414.638 352.775,415.138 354,415.5C 357.796,414.578 361.463,414.578 365,415.5C 367.112,413.078 369.112,413.078 371,415.5C 372.333,415.5 373.667,415.5 375,415.5C 376.427,413.416 378.093,413.416 380,415.5C 383.842,414.041 387.842,413.375 392,413.5C 397.692,414.858 402.692,415.525 407,415.5C 413.595,414.187 420.428,413.52 427.5,413.5C 434.167,413.667 440.833,413.833 447.5,414C 447.167,415 446.833,416 446.5,417C 308.5,417.667 170.5,417.667 32.5,417C 31.1667,416 31.1667,415 32.5,414C 38.8807,413.002 45.0474,413.502 51,415.5C 52.4038,415.491 53.5704,414.991 54.5,414C 63.8807,413.807 73.214,413.307 82.5,412.5C 84.9486,412.98 87.1153,413.98 89,415.5C 95.7092,415.084 103.043,415.084 111,415.5C 111.483,414.552 111.649,413.552 111.5,412.5C 123.081,412.821 134.581,412.488 146,411.5C 147.385,412.551 148.385,413.884 149,415.5C 150.512,413.043 151.846,413.043 153,415.5C 153.667,410.167 154.333,410.167 155,415.5C 171.489,415.138 189.489,415.138 209,415.5C 210.287,412.855 212.453,411.855 215.5,412.5C 215.5,413.5 215.5,414.5 215.5,415.5C 217.199,415.66 218.866,415.494 220.5,415C 221.223,412.982 222.223,411.148 223.5,409.5C 224.167,409.5 224.833,409.5 225.5,409.5C 230.031,409.85 234.364,409.183 238.5,407.5C 240.357,409.845 242.69,410.178 245.5,408.5C 256.321,409.495 267.321,409.828 278.5,409.5C 278.198,406.941 278.532,404.607 279.5,402.5 Z"/></g>
<g><path style="opacity:0.992" fill="#bec8d0" d="M 277.5,466.5 C 278.978,466.238 280.311,466.571 281.5,467.5C 281.291,468.086 280.957,468.586 280.5,469C 282.891,469.287 285.224,469.787 287.5,470.5C 289.861,469.224 292.028,469.558 294,471.5C 296.333,468.833 298.667,468.833 301,471.5C 304.242,468.759 307.242,469.092 310,472.5C 310.72,470.888 310.554,469.388 309.5,468C 311.078,466.86 312.744,466.36 314.5,466.5C 315.429,467.689 315.762,469.022 315.5,470.5C 320.436,468.598 321.436,469.764 318.5,474C 318.759,475.261 319.426,476.261 320.5,477C 318.426,476.773 316.426,476.939 314.5,477.5C 313.679,474.553 313.179,471.553 313,468.5C 312.821,471.553 312.321,474.553 311.5,477.5C 310.808,476.975 310.308,476.308 310,475.5C 307.012,477.087 304.178,478.753 301.5,480.5C 301.662,478.473 301.495,476.473 301,474.5C 300.517,475.448 300.351,476.448 300.5,477.5C 297.956,477.896 295.789,477.229 294,475.5C 290.195,478.539 287.195,477.872 285,473.5C 284.51,474.793 284.343,476.127 284.5,477.5C 283.5,477.5 282.5,477.5 281.5,477.5C 280.833,470.833 280.167,470.833 279.5,477.5C 278.5,477.5 277.5,477.5 276.5,477.5C 275.165,473.594 275.498,469.928 277.5,466.5 Z M 305.5,472.5 C 308.125,473.466 308.125,474.466 305.5,475.5C 304.438,474.575 304.438,473.575 305.5,472.5 Z"/></g>
<g><path style="opacity:0.575" fill="#cdd5d9" d="M 232.5,467.5 C 234.402,470.337 235.069,473.671 234.5,477.5C 232.473,477.662 230.473,477.495 228.5,477C 226.662,474.697 224.328,474.031 221.5,475C 222.841,476.295 224.174,476.795 225.5,476.5C 222.546,478.147 220.38,477.481 219,474.5C 218.751,475.624 218.251,476.624 217.5,477.5C 216.548,475.955 216.215,474.288 216.5,472.5C 215.5,472.5 214.5,472.5 213.5,472.5C 213.785,474.288 213.452,475.955 212.5,477.5C 209.949,471.217 211.616,468.717 217.5,470C 218.126,470.75 218.626,471.584 219,472.5C 221.112,469.071 223.612,468.738 226.5,471.5C 228.849,470.457 230.849,469.124 232.5,467.5 Z M 230.5,471.5 C 232.898,472.882 233.065,474.549 231,476.5C 230.167,475.667 229.333,474.833 228.5,474C 229.381,473.292 230.047,472.458 230.5,471.5 Z"/></g>
<g><path style="opacity:0.584" fill="#ced5d9" d="M 183.5,467.5 C 185.117,468.589 185.95,470.256 186,472.5C 186.775,470.777 188.108,469.777 190,469.5C 192.333,470.833 194.667,470.833 197,469.5C 199.341,470.007 199.841,471.174 198.5,473C 199,473.5 199.5,474 200,474.5C 200.186,472.1 200.686,469.766 201.5,467.5C 202.298,469.078 202.798,470.744 203,472.5C 203.5,471.333 204.333,470.5 205.5,470C 207.18,469.966 208.68,469.799 210,469.5C 210.667,472.833 210.667,476.167 210,479.5C 208.274,480.576 206.441,480.743 204.5,480C 204.741,478.438 204.241,476.938 203,475.5C 202.692,476.308 202.192,476.975 201.5,477.5C 199.328,477.324 196.995,477.157 194.5,477C 194.167,476.667 193.833,476.333 193.5,476C 198.352,476.466 198.519,475.633 194,473.5C 192.266,474.249 190.433,474.749 188.5,475C 189.678,475.967 191.011,476.467 192.5,476.5C 190.051,477.91 187.884,477.576 186,475.5C 184.23,477.418 182.063,477.918 179.5,477C 178.231,474.861 178.231,472.695 179.5,470.5C 181.483,470.185 182.816,469.185 183.5,467.5 Z M 205.5,472.5 C 206.5,472.5 207.5,472.5 208.5,472.5C 208.5,473.5 208.5,474.5 208.5,475.5C 207.5,475.5 206.5,475.5 205.5,475.5C 205.5,474.5 205.5,473.5 205.5,472.5 Z M 180.5,472.5 C 181.5,472.5 182.5,472.5 183.5,472.5C 182.5,477.833 181.5,477.833 180.5,472.5 Z"/></g>
<g><path style="opacity:0.714" fill="#ccd2d7" d="M 238.5,467.5 C 240.67,468.749 243.004,469.749 245.5,470.5C 246.086,470.291 246.586,469.957 247,469.5C 248,471.167 249,472.833 250,474.5C 250.36,472.579 251.194,470.912 252.5,469.5C 252.833,470 253.167,470.5 253.5,471C 252.158,474.015 250.825,477.015 249.5,480C 248.365,480.749 247.365,480.583 246.5,479.5C 248.877,477.748 249.044,475.748 247,473.5C 245.304,476.909 242.471,478.242 238.5,477.5C 238.5,474.167 238.5,470.833 238.5,467.5 Z M 241.5,471.5 C 245.173,472.708 245.34,474.374 242,476.5C 240.212,474.977 240.045,473.31 241.5,471.5 Z"/></g>
<g><path style="opacity:1" fill="#bdc7cf" d="M 262.5,463.5 C 265.485,465.445 268.818,466.445 272.5,466.5C 272.295,469.988 271.461,473.321 270,476.5C 266.667,479.167 263.333,479.167 260,476.5C 258.716,473.47 257.549,470.47 256.5,467.5C 259.888,468.031 261.888,466.697 262.5,463.5 Z M 261.5,470.5 C 262.675,470.281 263.675,470.614 264.5,471.5C 262.948,472.798 261.948,472.465 261.5,470.5 Z"/></g>
</svg>
