<?xml version="1.0" encoding="UTF-8"?>
<!DOCTYPE svg PUBLIC "-//W3C//DTD SVG 1.1//EN" "http://www.w3.org/Graphics/SVG/1.1/DTD/svg11.dtd">
<svg xmlns="http://www.w3.org/2000/svg" version="1.1" width="512px" height="512px" style="shape-rendering:geometricPrecision; text-rendering:geometricPrecision; image-rendering:optimizeQuality; fill-rule:evenodd; clip-rule:evenodd" xmlns:xlink="http://www.w3.org/1999/xlink">
<g><path style="opacity:0.984" fill="#020202" d="M 210.5,-0.5 C 241.833,-0.5 273.167,-0.5 304.5,-0.5C 307.009,0.682431 308.343,2.68243 308.5,5.5C 308.5,12.1667 308.5,18.8333 308.5,25.5C 328.007,25.8303 347.341,25.497 366.5,24.5C 367.906,21.5865 369.906,19.0865 372.5,17C 423.336,29.8147 458.836,60.648 479,109.5C 486.557,129.508 489.557,150.174 488,171.5C 486.38,184.535 481.546,196.202 473.5,206.5C 482,225.5 490.5,244.5 499,263.5C 503.964,277.319 499.464,286.152 485.5,290C 480.845,290.499 476.179,290.666 471.5,290.5C 471.666,299.839 471.5,309.173 471,318.5C 466.033,324.469 460.699,330.135 455,335.5C 454.667,352.5 454.333,369.5 454,386.5C 453.215,388.286 452.049,389.786 450.5,391C 430.59,392.642 410.59,392.975 390.5,392C 371.857,383.93 354.024,374.43 337,363.5C 330.667,373.833 324.333,384.167 318,394.5C 317.333,409.5 317.333,424.5 318,439.5C 337.333,458.833 356.667,478.167 376,497.5C 378.459,502.797 377.625,507.464 373.5,511.5C 279.5,511.5 185.5,511.5 91.5,511.5C 86.4339,507.944 85.2672,503.278 88,497.5C 113,472.5 138,447.5 163,422.5C 163.333,379.833 163.667,337.167 164,294.5C 164.833,292.333 166.333,290.833 168.5,290C 178.161,289.5 187.828,289.334 197.5,289.5C 197.5,275.5 197.5,261.5 197.5,247.5C 192.874,248.3 189.04,246.966 186,243.5C 183.132,231.296 180.799,218.963 179,206.5C 177.255,205.044 175.422,203.711 173.5,202.5C 165.167,205.667 156.833,208.833 148.5,212C 147.572,212.388 146.905,213.055 146.5,214C 147.642,228.467 147.808,242.967 147,257.5C 146.261,260.573 144.428,262.74 141.5,264C 122.824,264.167 104.158,264.667 85.5,265.5C 75.4613,282.561 61.7946,286.061 44.5,276C 36.4484,268.508 33.6151,259.342 36,248.5C 41.3307,233.745 51.8307,227.578 67.5,230C 75.8169,232.484 81.8169,237.651 85.5,245.5C 100.152,246.499 114.818,246.833 129.5,246.5C 129,233.503 128.5,220.503 128,207.5C 121.633,197.8 116.133,187.633 111.5,177C 111.796,175.112 112.296,173.278 113,171.5C 116.833,168.333 120.667,165.167 124.5,162C 103.159,161.167 81.8255,161.334 60.5,162.5C 50.6172,179.556 36.9506,183.389 19.5,174C 7.69853,162.122 6.53186,149.288 16,135.5C 30.1499,123.56 43.8165,124.227 57,137.5C 58.5588,139.217 59.3921,141.217 59.5,143.5C 86.8682,143.951 114.202,143.284 141.5,141.5C 131.854,133.688 122.354,125.688 113,117.5C 112.023,115.26 111.523,112.927 111.5,110.5C 93.4969,110.667 75.4969,110.5 57.5,110C 56.0692,109.535 54.9025,108.701 54,107.5C 52.8674,93.9146 52.0341,80.248 51.5,66.5C 35.0194,56.8845 31.186,43.5511 40,26.5C 53.7054,12.6384 67.7054,12.305 82,25.5C 90.4508,39.2119 88.9508,51.7119 77.5,63C 75.4234,64.705 73.09,65.8717 70.5,66.5C 69.5067,75.3178 69.1734,84.3178 69.5,93.5C 87.008,93.83 104.341,93.4967 121.5,92.5C 124.44,87.0534 127.607,81.7201 131,76.5C 132.977,75.0951 135.143,74.0951 137.5,73.5C 149.912,77.8036 162.246,81.9702 174.5,86C 176.09,84.9542 177.59,83.7875 179,82.5C 180.799,70.0372 183.132,57.7038 186,45.5C 187.214,43.9512 188.714,42.7845 190.5,42C 195.823,41.5006 201.156,41.334 206.5,41.5C 206.333,28.8289 206.5,16.1623 207,3.5C 208.376,2.29493 209.542,0.961599 210.5,-0.5 Z M 292.5,37.5 C 292.916,39.7525 294.249,41.2525 296.5,42C 315.5,42.3333 334.5,42.6667 353.5,43C 346,53.1667 338.5,63.3333 331,73.5C 328.454,76.8597 326.621,80.5264 325.5,84.5C 315.161,84.6665 304.828,84.4998 294.5,84C 292.905,78.2369 289.239,74.7369 283.5,73.5C 271.353,77.4378 259.353,81.7711 247.5,86.5C 245.111,85.3978 243.277,83.7311 242,81.5C 240.308,69.3462 237.975,57.3462 235,45.5C 232.303,42.1295 228.803,40.7962 224.5,41.5C 224.5,33.5 224.5,25.5 224.5,17.5C 246.833,17.5 269.167,17.5 291.5,17.5C 291.176,24.3543 291.509,31.021 292.5,37.5 Z M 305.5,103.5 C 311.979,102.509 318.646,102.176 325.5,102.5C 325.5,113.5 325.5,124.5 325.5,135.5C 312.829,135.667 300.162,135.5 287.5,135C 294.627,129.541 301.461,123.708 308,117.5C 310.292,112.25 309.459,107.584 305.5,103.5 Z M 205.5,128.5 C 217.882,127.015 225.215,132.348 227.5,144.5C 226.167,154.5 220.5,160.167 210.5,161.5C 196.666,158.481 191.833,150.148 196,136.5C 198.731,133.232 201.898,130.565 205.5,128.5 Z M 287.5,154.5 C 299.989,153.505 312.656,153.171 325.5,153.5C 325.5,164.5 325.5,175.5 325.5,186.5C 318.825,186.666 312.158,186.5 305.5,186C 309.423,181.629 310.256,176.796 308,171.5C 301.413,165.467 294.579,159.801 287.5,154.5 Z M 351.5,237.5 C 339.833,237.5 328.167,237.5 316.5,237.5C 316.177,243.69 316.51,249.69 317.5,255.5C 323.176,255.334 328.843,255.501 334.5,256C 325.734,258.693 317.568,262.526 310,267.5C 308.571,274.719 308.071,282.053 308.5,289.5C 277.5,289.5 246.5,289.5 215.5,289.5C 215.5,275.5 215.5,261.5 215.5,247.5C 220.511,247.666 225.511,247.499 230.5,247C 232.624,245.878 234.457,244.378 236,242.5C 238.108,230.852 240.108,219.186 242,207.5C 243.277,205.269 245.111,203.602 247.5,202.5C 259.232,207.133 271.065,211.466 283,215.5C 288.812,214.527 292.645,211.193 294.5,205.5C 308.488,204.334 322.488,204.167 336.5,205C 341.211,211.589 346.045,218.089 351,224.5C 351.499,228.821 351.666,233.154 351.5,237.5 Z"/></g>
<g><path style="opacity:0.129" fill="#395540" d="M 292.5,37.5 C 291.509,31.021 291.176,24.3543 291.5,17.5C 269.167,17.5 246.833,17.5 224.5,17.5C 224.5,25.5 224.5,33.5 224.5,41.5C 223.507,33.3501 223.174,25.0168 223.5,16.5C 246.5,16.5 269.5,16.5 292.5,16.5C 292.5,23.5 292.5,30.5 292.5,37.5 Z"/></g>
<g><path style="opacity:0.639" fill="#324637" d="M 308.5,5.5 C 309.49,11.6446 309.823,17.9779 309.5,24.5C 328.5,24.5 347.5,24.5 366.5,24.5C 347.341,25.497 328.007,25.8303 308.5,25.5C 308.5,18.8333 308.5,12.1667 308.5,5.5 Z"/></g>
<g><path style="opacity:1" fill="#81b790" d="M 58.5,33.5 C 67.2071,33.0367 70.7071,37.0367 69,45.5C 66.4586,50.0685 62.6253,51.5685 57.5,50C 53.7235,47.0453 52.5568,43.212 54,38.5C 55.025,36.313 56.525,34.6464 58.5,33.5 Z"/></g>
<g><path style="opacity:1" fill="#e9e9e9" d="M 379.5,36.5 C 441.582,61.0827 471.749,106.749 470,173.5C 467.656,183.193 462.989,191.526 456,198.5C 454.517,201.702 454.183,205.036 455,208.5C 464.646,229.623 474.146,250.789 483.5,272C 475.5,272.333 467.5,272.667 459.5,273C 458.069,273.465 456.903,274.299 456,275.5C 454.549,285.729 454.049,296.062 454.5,306.5C 444.154,306.729 434.487,304.229 425.5,299C 421.783,295.615 417.783,292.615 413.5,290C 404.996,289.78 401.83,293.947 404,302.5C 414.489,313.662 427.322,320.495 442.5,323C 440.291,324.873 438.458,327.04 437,329.5C 436.5,344.83 436.333,360.163 436.5,375.5C 422.496,375.667 408.496,375.5 394.5,375C 371.022,363.432 348.355,350.599 326.5,336.5C 325.334,317.175 325.167,297.842 326,278.5C 338.657,272.947 351.49,267.78 364.5,263C 366.049,261.786 367.215,260.286 368,258.5C 368.667,244.833 368.667,231.167 368,217.5C 360,206.833 352,196.167 344,185.5C 343.333,152.5 343.333,119.5 344,86.5C 355.597,69.6284 367.431,52.9617 379.5,36.5 Z"/></g>
<g><path style="opacity:1" fill="#5c8367" d="M 200.5,59.5 C 207.2,59.17 213.866,59.5033 220.5,60.5C 222.558,71.8491 224.725,83.1824 227,94.5C 231.748,97.791 236.581,100.958 241.5,104C 243.695,105.373 246.029,105.706 248.5,105C 258.667,101.167 268.833,97.3333 279,93.5C 282.473,98.9818 285.973,104.482 289.5,110C 280.667,117.5 271.833,125 263,132.5C 261.903,136.384 261.403,140.384 261.5,144.5C 261.403,148.616 261.903,152.616 263,156.5C 271.833,164 280.667,171.5 289.5,179C 286.363,184.783 282.863,190.283 279,195.5C 268.286,191.388 257.453,187.722 246.5,184.5C 245.167,184.667 243.833,184.833 242.5,185C 237.833,187.667 233.167,190.333 228.5,193C 226.396,195.042 225.229,197.542 225,200.5C 223.282,210.143 221.782,219.81 220.5,229.5C 213.833,229.5 207.167,229.5 200.5,229.5C 198.885,218.474 197.051,207.474 195,196.5C 194.535,195.069 193.701,193.903 192.5,193C 187.833,190.333 183.167,187.667 178.5,185C 177.167,184.833 175.833,184.667 174.5,184.5C 163.577,187.363 152.91,191.03 142.5,195.5C 138.67,190.159 135.004,184.659 131.5,179C 138.5,173.333 145.5,167.667 152.5,162C 155.04,159.795 157.207,157.295 159,154.5C 159.667,147.5 159.667,140.5 159,133.5C 150.519,125.929 141.852,118.596 133,111.5C 133.086,108.298 134.086,105.298 136,102.5C 137.689,99.1085 139.856,96.1085 142.5,93.5C 153.231,97.7991 164.065,101.799 175,105.5C 180.462,102.731 185.962,99.8981 191.5,97C 193.487,95.6811 194.654,93.8477 195,91.5C 196.729,80.7943 198.562,70.1276 200.5,59.5 Z M 205.5,128.5 C 201.898,130.565 198.731,133.232 196,136.5C 191.833,150.148 196.666,158.481 210.5,161.5C 220.5,160.167 226.167,154.5 227.5,144.5C 225.215,132.348 217.882,127.015 205.5,128.5 Z"/></g>
<g><path style="opacity:1" fill="#676767" d="M 360.5,118.5 C 359.505,107.346 359.172,96.0123 359.5,84.5C 365.5,84.5 371.5,84.5 377.5,84.5C 377.5,96.1667 377.5,107.833 377.5,119.5C 371.642,119.822 365.975,119.489 360.5,118.5 Z"/></g>
<g><path style="opacity:1" fill="#000000" d="M 360.5,118.5 C 360.5,107.5 360.5,96.5 360.5,85.5C 365.833,85.5 371.167,85.5 376.5,85.5C 376.5,96.5 376.5,107.5 376.5,118.5C 371.167,118.5 365.833,118.5 360.5,118.5 Z"/></g>
<g><path style="opacity:0.247" fill="#3b5240" d="M 70.5,66.5 C 70.5,75.1667 70.5,83.8333 70.5,92.5C 87.5,92.5 104.5,92.5 121.5,92.5C 104.341,93.4967 87.008,93.83 69.5,93.5C 69.1734,84.3178 69.5067,75.3178 70.5,66.5 Z"/></g>
<g><path style="opacity:0.977" fill="#010101" d="M 203.5,110.5 C 231.673,109.839 245.173,123.506 244,151.5C 237.613,171.786 223.78,180.62 202.5,178C 183.257,171.362 174.757,157.862 177,137.5C 180.682,123.319 189.515,114.319 203.5,110.5 Z M 205.5,128.5 C 201.898,130.565 198.731,133.232 196,136.5C 191.833,150.148 196.666,158.481 210.5,161.5C 220.5,160.167 226.167,154.5 227.5,144.5C 225.215,132.348 217.882,127.015 205.5,128.5 Z"/></g>
<g><path style="opacity:1" fill="#80b68f" d="M 32.5,144.5 C 41.2071,144.037 44.7071,148.037 43,156.5C 40.7742,160.861 37.2742,162.361 32.5,161C 25.8696,155.55 25.8696,150.05 32.5,144.5 Z"/></g>
<g><path style="opacity:1" fill="#6c6c6c" d="M 360.5,136.5 C 365.975,135.511 371.642,135.178 377.5,135.5C 377.5,141.5 377.5,147.5 377.5,153.5C 371.5,153.5 365.5,153.5 359.5,153.5C 359.178,147.642 359.511,141.975 360.5,136.5 Z"/></g>
<g><path style="opacity:1" fill="#000000" d="M 360.5,136.5 C 365.833,136.5 371.167,136.5 376.5,136.5C 376.5,141.833 376.5,147.167 376.5,152.5C 371.167,152.5 365.833,152.5 360.5,152.5C 360.5,147.167 360.5,141.833 360.5,136.5 Z"/></g>
<g><path style="opacity:1" fill="#000000" d="M 376.5,170.5 C 376.5,175.833 376.5,181.167 376.5,186.5C 371.167,186.5 365.833,186.5 360.5,186.5C 360.5,181.167 360.5,175.833 360.5,170.5C 365.833,170.5 371.167,170.5 376.5,170.5 Z"/></g>
<g><path style="opacity:1" fill="#040404" d="M 433.5,170.5 C 438.635,169.426 442.468,171.093 445,175.5C 445.667,185.833 445.667,196.167 445,206.5C 444.315,209.057 442.815,210.891 440.5,212C 429.5,212.667 418.5,212.667 407.5,212C 400.606,206.159 400.939,200.825 408.5,196C 415.158,195.5 421.825,195.334 428.5,195.5C 428.334,188.825 428.5,182.158 429,175.5C 430.025,173.313 431.525,171.646 433.5,170.5 Z"/></g>
<g><path style="opacity:1" fill="#464646" d="M 376.5,170.5 C 377.489,175.975 377.822,181.642 377.5,187.5C 371.642,187.822 365.975,187.489 360.5,186.5C 365.833,186.5 371.167,186.5 376.5,186.5C 376.5,181.167 376.5,175.833 376.5,170.5 Z"/></g>
<g><path style="opacity:0.129" fill="#3e5c46" d="M 351.5,237.5 C 340.346,238.495 329.012,238.828 317.5,238.5C 317.5,244.167 317.5,249.833 317.5,255.5C 316.51,249.69 316.177,243.69 316.5,237.5C 328.167,237.5 339.833,237.5 351.5,237.5 Z"/></g>
<g><path style="opacity:0.549" fill="#39523f" d="M 266.5,238.5 C 260.833,238.5 255.167,238.5 249.5,238.5C 249.5,244.167 249.5,249.833 249.5,255.5C 248.51,249.69 248.177,243.69 248.5,237.5C 254.69,237.177 260.69,237.51 266.5,238.5 Z"/></g>
<g><path style="opacity:1" fill="#020302" d="M 266.5,238.5 C 266.5,244.167 266.5,249.833 266.5,255.5C 260.833,255.5 255.167,255.5 249.5,255.5C 249.5,249.833 249.5,244.167 249.5,238.5C 255.167,238.5 260.833,238.5 266.5,238.5 Z"/></g>
<g><path style="opacity:0.353" fill="#3d5743" d="M 300.5,238.5 C 294.833,238.5 289.167,238.5 283.5,238.5C 283.5,244.167 283.5,249.833 283.5,255.5C 282.51,249.69 282.177,243.69 282.5,237.5C 288.69,237.177 294.69,237.51 300.5,238.5 Z"/></g>
<g><path style="opacity:1" fill="#000100" d="M 300.5,238.5 C 300.5,244.167 300.5,249.833 300.5,255.5C 294.833,255.5 289.167,255.5 283.5,255.5C 283.5,249.833 283.5,244.167 283.5,238.5C 289.167,238.5 294.833,238.5 300.5,238.5 Z"/></g>
<g><path style="opacity:1" fill="#82b890" d="M 57.5,247.5 C 66.6571,246.489 70.4904,250.489 69,259.5C 64.9468,264.008 60.2801,264.674 55,261.5C 52.4246,256.034 53.258,251.367 57.5,247.5 Z"/></g>
<g><path style="opacity:1" fill="#a5a5a5" d="M 216.5,449.5 C 215.504,436.01 215.171,422.344 215.5,408.5C 209.5,408.5 203.5,408.5 197.5,408.5C 197.5,429.167 197.5,449.833 197.5,470.5C 190.96,478.395 184.293,486.228 177.5,494C 157.167,494.667 136.833,494.667 116.5,494C 138.029,472.805 159.195,451.305 180,429.5C 180.5,388.501 180.667,347.501 180.5,306.5C 197.833,306.5 215.167,306.5 232.5,306.5C 232.667,348.168 232.5,389.835 232,431.5C 226.624,437.372 221.457,443.372 216.5,449.5 Z"/></g>
<g><path style="opacity:1" fill="#dadada" d="M 249.5,307.5 C 254.833,307.5 260.167,307.5 265.5,307.5C 265.17,325.008 265.503,342.341 266.5,359.5C 267.072,361.255 267.906,362.922 269,364.5C 279.333,374.833 289.667,385.167 300,395.5C 300.494,397.134 300.66,398.801 300.5,400.5C 283.5,400.5 266.5,400.5 249.5,400.5C 249.5,369.5 249.5,338.5 249.5,307.5 Z"/></g>
<g><path style="opacity:1" fill="#a3a3a3" d="M 249.5,307.5 C 254.975,306.511 260.642,306.178 266.5,306.5C 266.5,324.167 266.5,341.833 266.5,359.5C 265.503,342.341 265.17,325.008 265.5,307.5C 260.167,307.5 254.833,307.5 249.5,307.5 Z"/></g>
<g><path style="opacity:1" fill="#cdcdcd" d="M 283.5,306.5 C 291.833,306.5 300.167,306.5 308.5,306.5C 308.333,318.505 308.5,330.505 309,342.5C 309.792,344.587 310.959,346.421 312.5,348C 315.943,349.618 318.943,351.785 321.5,354.5C 316.86,362.459 311.86,370.126 306.5,377.5C 298.848,370.348 291.348,363.015 284,355.5C 283.5,339.17 283.333,322.837 283.5,306.5 Z"/></g>
<g><path style="opacity:1" fill="#535353" d="M 197.5,340.5 C 203.5,340.5 209.5,340.5 215.5,340.5C 215.5,346.5 215.5,352.5 215.5,358.5C 209.5,358.5 203.5,358.5 197.5,358.5C 197.5,352.5 197.5,346.5 197.5,340.5 Z"/></g>
<g><path style="opacity:1" fill="#000000" d="M 198.5,341.5 C 203.833,341.5 209.167,341.5 214.5,341.5C 214.5,346.833 214.5,352.167 214.5,357.5C 209.167,357.5 203.833,357.5 198.5,357.5C 198.5,352.167 198.5,346.833 198.5,341.5 Z"/></g>
<g><path style="opacity:1" fill="#545454" d="M 197.5,374.5 C 203.5,374.5 209.5,374.5 215.5,374.5C 215.5,380.5 215.5,386.5 215.5,392.5C 209.5,392.5 203.5,392.5 197.5,392.5C 197.5,386.5 197.5,380.5 197.5,374.5 Z"/></g>
<g><path style="opacity:1" fill="#000000" d="M 198.5,375.5 C 203.833,375.5 209.167,375.5 214.5,375.5C 214.5,380.833 214.5,386.167 214.5,391.5C 209.167,391.5 203.833,391.5 198.5,391.5C 198.5,386.167 198.5,380.833 198.5,375.5 Z"/></g>
<g><path style="opacity:1" fill="#565656" d="M 216.5,449.5 C 216.44,450.043 216.107,450.376 215.5,450.5C 214.501,436.85 214.167,423.183 214.5,409.5C 209.167,409.5 203.833,409.5 198.5,409.5C 198.83,430.007 198.497,450.34 197.5,470.5C 197.5,449.833 197.5,429.167 197.5,408.5C 203.5,408.5 209.5,408.5 215.5,408.5C 215.171,422.344 215.504,436.01 216.5,449.5 Z"/></g>
<g><path style="opacity:1" fill="#c0c0c0" d="M 249.5,417.5 C 255.167,417.5 260.833,417.5 266.5,417.5C 266.5,443.167 266.5,468.833 266.5,494.5C 244.49,494.833 222.49,494.5 200.5,493.5C 217.229,474.941 233.396,455.941 249,436.5C 249.5,430.175 249.666,423.842 249.5,417.5 Z"/></g>
<g><path style="opacity:1" fill="#d9d9d9" d="M 283.5,417.5 C 289.167,417.5 294.833,417.5 300.5,417.5C 300.049,427.938 300.549,438.271 302,448.5C 317.167,463.667 332.333,478.833 347.5,494C 326.169,494.5 304.836,494.667 283.5,494.5C 283.5,468.833 283.5,443.167 283.5,417.5 Z"/></g>
</svg>
