<?xml version="1.0" encoding="UTF-8"?>
<!DOCTYPE svg PUBLIC "-//W3C//DTD SVG 1.1//EN" "http://www.w3.org/Graphics/SVG/1.1/DTD/svg11.dtd">
<svg xmlns="http://www.w3.org/2000/svg" version="1.1" width="512px" height="512px" style="shape-rendering:geometricPrecision; text-rendering:geometricPrecision; image-rendering:optimizeQuality; fill-rule:evenodd; clip-rule:evenodd" xmlns:xlink="http://www.w3.org/1999/xlink">
<g><path style="opacity:0.988" fill="#c1e3f7" d="M 207.5,-0.5 C 210.5,-0.5 213.5,-0.5 216.5,-0.5C 218.721,1.69323 220.054,4.35989 220.5,7.5C 219.505,18.3206 219.172,29.3206 219.5,40.5C 214.191,40.5919 209.191,40.5919 204.5,40.5C 204.333,27.8289 204.5,15.1623 205,2.5C 206.045,1.62656 206.878,0.626561 207.5,-0.5 Z"/></g>
<g><path style="opacity:0.937" fill="#c1e3f7" d="M 251.5,-0.5 C 254.167,-0.5 256.833,-0.5 259.5,-0.5C 260.458,0.961599 261.624,2.29493 263,3.5C 263.5,15.8288 263.667,28.1622 263.5,40.5C 258.167,40.5 252.833,40.5 247.5,40.5C 247.333,28.1622 247.5,15.8288 248,3.5C 249.032,1.97331 250.199,0.639972 251.5,-0.5 Z"/></g>
<g><path style="opacity:0.99" fill="#c1e3f7" d="M 294.5,-0.5 C 297.5,-0.5 300.5,-0.5 303.5,-0.5C 304.122,0.626561 304.955,1.62656 306,2.5C 306.5,15.1623 306.667,27.8289 306.5,40.5C 301.5,40.5 296.5,40.5 291.5,40.5C 291.828,29.3206 291.495,18.3206 290.5,7.5C 290.946,4.35989 292.279,1.69323 294.5,-0.5 Z"/></g>
<g><path style="opacity:0.995" fill="#a6d5f8" d="M 220.5,7.5 C 220.5,18.5 220.5,29.5 220.5,40.5C 229.5,40.5 238.5,40.5 247.5,40.5C 252.833,40.5 258.167,40.5 263.5,40.5C 267.833,40.5 272.167,40.5 276.5,40.5C 284.577,43.4147 289.744,49.0814 292,57.5C 292.667,90.1667 292.667,122.833 292,155.5C 290.532,163.639 286.032,169.472 278.5,173C 287.16,173.5 295.827,173.666 304.5,173.5C 300.366,174.485 296.032,174.818 291.5,174.5C 291.828,185.679 291.495,196.679 290.5,207.5C 290.5,196.5 290.5,185.5 290.5,174.5C 281.5,174.5 272.5,174.5 263.5,174.5C 258.167,174.5 252.833,174.5 247.5,174.5C 238.5,174.5 229.5,174.5 220.5,174.5C 220.5,185.5 220.5,196.5 220.5,207.5C 219.505,196.346 219.172,185.012 219.5,173.5C 214.5,173.5 209.5,173.5 204.5,173.5C 196.5,171.5 191.5,166.5 189.5,158.5C 188.551,153.26 188.218,147.927 188.5,142.5C 188.5,133.5 188.5,124.5 188.5,115.5C 188.5,110.167 188.5,104.833 188.5,99.5C 188.5,90.1667 188.5,80.8333 188.5,71.5C 188.267,66.1053 188.6,60.772 189.5,55.5C 191.602,47.6132 196.602,42.6132 204.5,40.5C 209.191,40.5919 214.191,40.5919 219.5,40.5C 219.172,29.3206 219.505,18.3206 220.5,7.5 Z"/></g>
<g><path style="opacity:1" fill="#8bc9ef" d="M 290.5,7.5 C 291.495,18.3206 291.828,29.3206 291.5,40.5C 296.5,40.5 301.5,40.5 306.5,40.5C 314.398,42.6132 319.398,47.6132 321.5,55.5C 322.4,60.772 322.733,66.1053 322.5,71.5C 322.5,80.8333 322.5,90.1667 322.5,99.5C 322.5,104.833 322.5,110.167 322.5,115.5C 322.5,124.5 322.5,133.5 322.5,142.5C 322.782,147.927 322.449,153.26 321.5,158.5C 320.01,165.323 316.01,169.99 309.5,172.5C 307.708,172.366 306.042,172.699 304.5,173.5C 295.827,173.666 287.16,173.5 278.5,173C 286.032,169.472 290.532,163.639 292,155.5C 292.667,122.833 292.667,90.1667 292,57.5C 289.744,49.0814 284.577,43.4147 276.5,40.5C 281.167,40.5 285.833,40.5 290.5,40.5C 290.5,29.5 290.5,18.5 290.5,7.5 Z"/></g>
<g><path style="opacity:0.997" fill="#455e7e" d="M 55.5,136.5 C 49.3554,135.51 43.0221,135.177 36.5,135.5C 37.4577,134.038 38.6244,132.705 40,131.5C 40.6667,113.833 40.6667,96.1667 40,78.5C 37.9231,68.3352 32.4231,60.6685 23.5,55.5C 39.4127,48.2662 53.2461,51.2662 65,64.5C 66.3333,67.1667 67.6667,69.8333 69,72.5C 70.6181,92.4484 70.9514,112.448 70,132.5C 68.786,134.049 67.286,135.215 65.5,136C 62.1832,136.498 58.8499,136.665 55.5,136.5 Z"/></g>
<g><path style="opacity:0.994" fill="#455e7e" d="M 489.5,136.5 C 483.355,135.51 477.022,135.177 470.5,135.5C 471.122,134.373 471.955,133.373 473,132.5C 473.667,113.5 473.667,94.5 473,75.5C 469.965,67.0545 464.798,60.3878 457.5,55.5C 470.105,49.3848 482.105,50.5515 493.5,59C 498.956,64.41 502.456,70.91 504,78.5C 504.667,96.1667 504.667,113.833 504,131.5C 503.167,133.667 501.667,135.167 499.5,136C 496.183,136.498 492.85,136.665 489.5,136.5 Z"/></g>
<g><path style="opacity:0.983" fill="#4e6c8e" d="M 23.5,55.5 C 32.4231,60.6685 37.9231,68.3352 40,78.5C 40.6667,96.1667 40.6667,113.833 40,131.5C 38.6244,132.705 37.4577,134.038 36.5,135.5C 31.3054,135.179 26.3054,135.513 21.5,136.5C 18.1501,136.665 14.8168,136.498 11.5,136C 9.33333,135.167 7.83333,133.667 7,131.5C 6.33333,113.833 6.33333,96.1667 7,78.5C 8.90796,68.1155 14.408,60.4488 23.5,55.5 Z"/></g>
<g><path style="opacity:0.979" fill="#c1e3f6" d="M 189.5,55.5 C 188.6,60.772 188.267,66.1053 188.5,71.5C 176.162,71.6665 163.829,71.4999 151.5,71C 148.634,69.6071 147.301,67.2738 147.5,64C 147.334,59.6516 149.334,56.985 153.5,56C 165.495,55.5001 177.495,55.3335 189.5,55.5 Z"/></g>
<g><path style="opacity:0.976" fill="#c1e3f6" d="M 321.5,55.5 C 333.505,55.3335 345.505,55.5001 357.5,56C 361.666,56.985 363.666,59.6516 363.5,64C 363.699,67.2738 362.366,69.6071 359.5,71C 347.171,71.4999 334.838,71.6665 322.5,71.5C 322.733,66.1053 322.4,60.772 321.5,55.5 Z"/></g>
<g><path style="opacity:0.988" fill="#4e6c8e" d="M 457.5,55.5 C 464.798,60.3878 469.965,67.0545 473,75.5C 473.667,94.5 473.667,113.5 473,132.5C 471.955,133.373 471.122,134.373 470.5,135.5C 465.305,135.179 460.305,135.513 455.5,136.5C 452.15,136.665 448.817,136.498 445.5,136C 443.714,135.215 442.214,134.049 441,132.5C 440.333,113.833 440.333,95.1667 441,76.5C 443.016,66.6624 448.516,59.6624 457.5,55.5 Z"/></g>
<g><path style="opacity:1" fill="#d4def3" d="M 234.5,82.5 C 248.171,82.3334 261.837,82.5001 275.5,83C 276.931,83.4652 278.097,84.2986 279,85.5C 279.667,99.8333 279.667,114.167 279,128.5C 278.692,129.308 278.192,129.975 277.5,130.5C 263.212,131.649 248.878,131.816 234.5,131C 233.692,130.692 233.025,130.192 232.5,129.5C 231.35,114.878 231.184,100.212 232,85.5C 233.045,84.6266 233.878,83.6266 234.5,82.5 Z"/></g>
<g><path style="opacity:0.947" fill="#c1e3f7" d="M 188.5,99.5 C 188.5,104.833 188.5,110.167 188.5,115.5C 176.495,115.667 164.495,115.5 152.5,115C 147.931,112.459 146.431,108.625 148,103.5C 149.167,102.333 150.333,101.167 151.5,100C 163.829,99.5001 176.162,99.3335 188.5,99.5 Z"/></g>
<g><path style="opacity:0.946" fill="#c1e3f7" d="M 322.5,99.5 C 334.838,99.3335 347.171,99.5001 359.5,100C 363.753,103.42 364.587,107.587 362,112.5C 361.097,113.701 359.931,114.535 358.5,115C 346.505,115.5 334.505,115.667 322.5,115.5C 322.5,110.167 322.5,104.833 322.5,99.5 Z"/></g>
<g><path style="opacity:0.964" fill="#ebf4ff" d="M 21.5,136.5 C 26.1667,136.5 30.8333,136.5 35.5,136.5C 35.5,146.167 35.5,155.833 35.5,165.5C 30.8333,165.5 26.1667,165.5 21.5,165.5C 21.5,155.833 21.5,146.167 21.5,136.5 Z"/></g>
<g><path style="opacity:0.998" fill="#d8e7f9" d="M 21.5,136.5 C 26.3054,135.513 31.3054,135.179 36.5,135.5C 43.0221,135.177 49.3554,135.51 55.5,136.5C 55.5,146.167 55.5,155.833 55.5,165.5C 48.8333,165.5 42.1667,165.5 35.5,165.5C 35.5,155.833 35.5,146.167 35.5,136.5C 30.8333,136.5 26.1667,136.5 21.5,136.5 Z"/></g>
<g><path style="opacity:0.989" fill="#deeafa" d="M 470.5,135.5 C 477.022,135.177 483.355,135.51 489.5,136.5C 489.5,146.167 489.5,155.833 489.5,165.5C 478.167,165.5 466.833,165.5 455.5,165.5C 455.5,155.833 455.5,146.167 455.5,136.5C 460.305,135.513 465.305,135.179 470.5,135.5 Z"/></g>
<g><path style="opacity:0.946" fill="#c0e3f7" d="M 188.5,142.5 C 188.218,147.927 188.551,153.26 189.5,158.5C 176.829,158.667 164.162,158.5 151.5,158C 147.247,154.58 146.413,150.413 149,145.5C 150.171,144.107 151.671,143.273 153.5,143C 165.162,142.5 176.829,142.333 188.5,142.5 Z"/></g>
<g><path style="opacity:0.948" fill="#c0e3f7" d="M 322.5,142.5 C 334.171,142.333 345.838,142.5 357.5,143C 362.906,144.98 364.739,148.814 363,154.5C 361.833,155.667 360.667,156.833 359.5,158C 346.838,158.5 334.171,158.667 321.5,158.5C 322.449,153.26 322.782,147.927 322.5,142.5 Z"/></g>
<g><path style="opacity:0.979" fill="#4f6d8f" d="M 21.5,165.5 C 26.1667,165.5 30.8333,165.5 35.5,165.5C 42.1667,165.5 48.8333,165.5 55.5,165.5C 49.6807,166.328 43.6807,166.828 37.5,167C 38.7014,167.903 39.5348,169.069 40,170.5C 40.6667,177.5 40.6667,184.5 40,191.5C 38.6244,192.705 37.4577,194.038 36.5,195.5C 31.3054,195.179 26.3054,195.513 21.5,196.5C 9.00118,198.332 4.00118,192.999 6.5,180.5C 4.17027,168.163 9.17027,163.163 21.5,165.5 Z"/></g>
<g><path style="opacity:0.988" fill="#4f6d8f" d="M 455.5,165.5 C 466.833,165.5 478.167,165.5 489.5,165.5C 483.347,166.328 477.013,166.828 470.5,167C 471.667,167.5 472.5,168.333 473,169.5C 473.667,177.167 473.667,184.833 473,192.5C 471.955,193.373 471.122,194.373 470.5,195.5C 465.305,195.179 460.305,195.513 455.5,196.5C 454.5,196.5 453.5,196.5 452.5,196.5C 449.208,191.54 445.208,187.207 440.5,183.5C 440.103,178.041 440.603,172.708 442,167.5C 442.75,166.874 443.584,166.374 444.5,166C 448.152,165.501 451.818,165.335 455.5,165.5 Z"/></g>
<g><path style="opacity:0.994" fill="#455e7e" d="M 489.5,165.5 C 501.83,163.163 506.83,168.163 504.5,180.5C 506.999,192.999 501.999,198.332 489.5,196.5C 483.355,195.51 477.022,195.177 470.5,195.5C 471.122,194.373 471.955,193.373 473,192.5C 473.667,184.833 473.667,177.167 473,169.5C 472.5,168.333 471.667,167.5 470.5,167C 477.013,166.828 483.347,166.328 489.5,165.5 Z"/></g>
<g><path style="opacity:0.987" fill="#c1e3f7" d="M 204.5,173.5 C 209.5,173.5 214.5,173.5 219.5,173.5C 219.172,185.012 219.505,196.346 220.5,207.5C 218.942,213.889 214.942,216.389 208.5,215C 207,214.167 205.833,213 205,211.5C 204.5,198.838 204.333,186.171 204.5,173.5 Z"/></g>
<g><path style="opacity:0.987" fill="#c1e3f7" d="M 309.5,172.5 C 308.791,173.404 307.791,173.737 306.5,173.5C 306.667,186.171 306.5,198.838 306,211.5C 301.878,216.397 297.378,216.73 292.5,212.5C 291.826,210.805 291.159,209.138 290.5,207.5C 291.495,196.679 291.828,185.679 291.5,174.5C 296.032,174.818 300.366,174.485 304.5,173.5C 306.042,172.699 307.708,172.366 309.5,172.5 Z"/></g>
<g><path style="opacity:0.938" fill="#c1e2f6" d="M 247.5,174.5 C 252.833,174.5 258.167,174.5 263.5,174.5C 263.667,186.505 263.5,198.505 263,210.5C 259.987,215.535 255.82,216.702 250.5,214C 249.299,213.097 248.465,211.931 248,210.5C 247.5,198.505 247.333,186.505 247.5,174.5 Z"/></g>
<g><path style="opacity:0.997" fill="#455e7e" d="M 55.5,165.5 C 59.1817,165.335 62.8484,165.501 66.5,166C 67.4162,166.374 68.2496,166.874 69,167.5C 70.0693,172.755 70.9026,178.089 71.5,183.5C 83.7206,178.443 95.054,179.943 105.5,188C 123,205.5 140.5,223 158,240.5C 159.301,242.365 159.635,244.365 159,246.5C 156.295,249.036 153.795,251.703 151.5,254.5C 146.167,259.167 141.167,264.167 136.5,269.5C 131.833,273.5 127.5,277.833 123.5,282.5C 121.84,284.248 119.84,284.748 117.5,284C 112.963,279.631 108.63,275.131 104.5,270.5C 117.201,255.961 118.701,240.295 109,223.5C 97.1667,210.333 84.6667,197.833 71.5,186C 69.7111,185.48 68.0444,185.813 66.5,187C 63.2203,189.775 60.5537,192.942 58.5,196.5C 57.5,196.5 56.5,196.5 55.5,196.5C 49.3554,195.51 43.0221,195.177 36.5,195.5C 37.4577,194.038 38.6244,192.705 40,191.5C 40.6667,184.5 40.6667,177.5 40,170.5C 39.5348,169.069 38.7014,167.903 37.5,167C 43.6807,166.828 49.6807,166.328 55.5,165.5 Z"/></g>
<g><path style="opacity:0.994" fill="#455e7e" d="M 440.5,183.5 C 445.208,187.207 449.208,191.54 452.5,196.5C 453.659,198.855 454.659,201.188 455.5,203.5C 455.5,207.833 455.5,212.167 455.5,216.5C 454.359,219.254 453.025,221.921 451.5,224.5C 447.464,228.534 443.798,232.868 440.5,237.5C 424.701,252.798 409.035,268.298 393.5,284C 391.16,284.748 389.16,284.248 387.5,282.5C 383.435,278.441 379.768,274.107 376.5,269.5C 391.132,255.369 405.632,241.035 420,226.5C 428.886,210.053 426.052,196.053 411.5,184.5C 415.771,181.554 420.604,180.221 426,180.5C 431.073,180.478 435.906,181.478 440.5,183.5 Z"/></g>
<g><path style="opacity:0.989" fill="#4e6c8e" d="M 104.5,270.5 C 93.1667,259.5 81.8333,248.5 70.5,237.5C 67.5643,232.895 63.8976,228.895 59.5,225.5C 58.15,222.428 56.8167,219.428 55.5,216.5C 55.5,212.167 55.5,207.833 55.5,203.5C 56.3414,201.188 57.3414,198.855 58.5,196.5C 60.5537,192.942 63.2203,189.775 66.5,187C 68.0444,185.813 69.7111,185.48 71.5,186C 84.6667,197.833 97.1667,210.333 109,223.5C 118.701,240.295 117.201,255.961 104.5,270.5 Z"/></g>
<g><path style="opacity:0.992" fill="#4f6c8f" d="M 411.5,184.5 C 426.052,196.053 428.886,210.053 420,226.5C 405.632,241.035 391.132,255.369 376.5,269.5C 371.11,264.106 365.444,259.106 359.5,254.5C 357.205,251.703 354.705,249.036 352,246.5C 351.365,244.365 351.699,242.365 353,240.5C 370.5,223 388,205.5 405.5,188C 407.405,186.579 409.405,185.412 411.5,184.5 Z"/></g>
<g><path style="opacity:0.964" fill="#ebf4ff" d="M 21.5,196.5 C 26.1667,196.5 30.8333,196.5 35.5,196.5C 35.5,206.167 35.5,215.833 35.5,225.5C 30.8333,225.5 26.1667,225.5 21.5,225.5C 21.5,215.833 21.5,206.167 21.5,196.5 Z"/></g>
<g><path style="opacity:0.998" fill="#d9e7f9" d="M 21.5,196.5 C 26.3054,195.513 31.3054,195.179 36.5,195.5C 43.0221,195.177 49.3554,195.51 55.5,196.5C 55.5,198.833 55.5,201.167 55.5,203.5C 55.5,207.833 55.5,212.167 55.5,216.5C 55.5,219.5 55.5,222.5 55.5,225.5C 48.8333,225.5 42.1667,225.5 35.5,225.5C 35.5,215.833 35.5,206.167 35.5,196.5C 30.8333,196.5 26.1667,196.5 21.5,196.5 Z"/></g>
<g><path style="opacity:0.989" fill="#deebfb" d="M 470.5,195.5 C 477.022,195.177 483.355,195.51 489.5,196.5C 489.5,206.167 489.5,215.833 489.5,225.5C 478.167,225.5 466.833,225.5 455.5,225.5C 455.5,222.5 455.5,219.5 455.5,216.5C 455.5,212.167 455.5,207.833 455.5,203.5C 455.5,201.167 455.5,198.833 455.5,196.5C 460.305,195.513 465.305,195.179 470.5,195.5 Z"/></g>
<g><path style="opacity:0.979" fill="#4f6d8f" d="M 21.5,225.5 C 26.1667,225.5 30.8333,225.5 35.5,225.5C 42.1667,225.5 48.8333,225.5 55.5,225.5C 49.6807,226.328 43.6807,226.828 37.5,227C 38.7014,227.903 39.5348,229.069 40,230.5C 40.6667,237.5 40.6667,244.5 40,251.5C 38.6244,252.705 37.4577,254.038 36.5,255.5C 31.3054,255.179 26.3054,255.513 21.5,256.5C 9.00118,258.332 4.00118,252.999 6.5,240.5C 4.17027,228.163 9.17027,223.163 21.5,225.5 Z"/></g>
<g><path style="opacity:0.999" fill="#455e7e" d="M 55.5,225.5 C 56.8333,225.5 58.1667,225.5 59.5,225.5C 63.8976,228.895 67.5643,232.895 70.5,237.5C 74.5652,251.41 69.5652,257.743 55.5,256.5C 49.3554,255.51 43.0221,255.177 36.5,255.5C 37.4577,254.038 38.6244,252.705 40,251.5C 40.6667,244.5 40.6667,237.5 40,230.5C 39.5348,229.069 38.7014,227.903 37.5,227C 43.6807,226.828 49.6807,226.328 55.5,225.5 Z"/></g>
<g><path style="opacity:0.986" fill="#4f6d8f" d="M 451.5,224.5 C 452.568,225.434 453.901,225.768 455.5,225.5C 466.833,225.5 478.167,225.5 489.5,225.5C 483.347,226.328 477.013,226.828 470.5,227C 471.667,227.5 472.5,228.333 473,229.5C 473.667,237.167 473.667,244.833 473,252.5C 471.955,253.373 471.122,254.373 470.5,255.5C 469.5,255.5 468.5,255.5 467.5,255.5C 463.298,255.183 459.298,255.517 455.5,256.5C 441.435,257.743 436.435,251.41 440.5,237.5C 443.798,232.868 447.464,228.534 451.5,224.5 Z"/></g>
<g><path style="opacity:0.994" fill="#455e7e" d="M 489.5,225.5 C 501.83,223.163 506.83,228.163 504.5,240.5C 506.999,252.999 501.999,258.332 489.5,256.5C 483.355,255.51 477.022,255.177 470.5,255.5C 471.122,254.373 471.955,253.373 473,252.5C 473.667,244.833 473.667,237.167 473,229.5C 472.5,228.333 471.667,227.5 470.5,227C 477.013,226.828 483.347,226.328 489.5,225.5 Z"/></g>
<g><path style="opacity:0.999" fill="#dceafc" d="M 151.5,254.5 C 184.799,287.299 217.965,320.299 251,353.5C 252.705,355.577 253.872,357.91 254.5,360.5C 255.825,388.821 255.825,417.154 254.5,445.5C 252.425,452.574 247.758,456.907 240.5,458.5C 239.833,458.5 239.167,458.5 238.5,458.5C 229.5,458.5 220.5,458.5 211.5,458.5C 218.651,455.508 223.151,450.174 225,442.5C 225.974,414.771 225.641,387.105 224,359.5C 223,357.833 222,356.167 221,354.5C 192.632,326.299 164.465,297.965 136.5,269.5C 141.167,264.167 146.167,259.167 151.5,254.5 Z"/></g>
<g><path style="opacity:0.996" fill="#ebf4fe" d="M 359.5,254.5 C 365.444,259.106 371.11,264.106 376.5,269.5C 379.768,274.107 383.435,278.441 387.5,282.5C 384.614,288.604 381.447,294.604 378,300.5C 377.28,302.112 377.446,303.612 378.5,305C 380.5,305.667 382.5,305.667 384.5,305C 401.167,300.333 417.833,295.667 434.5,291C 448.721,283.936 455.721,272.436 455.5,256.5C 459.298,255.517 463.298,255.183 467.5,255.5C 467.666,264.506 467.5,273.506 467,282.5C 465.937,287.564 463.937,292.231 461,296.5C 426.667,339.167 392.333,381.833 358,424.5C 357.5,435.828 357.333,447.162 357.5,458.5C 328.5,458.5 299.5,458.5 270.5,458.5C 267.984,458.245 265.65,457.411 263.5,456C 260.106,452.626 257.106,449.126 254.5,445.5C 255.825,417.154 255.825,388.821 254.5,360.5C 288.729,324.603 323.729,289.27 359.5,254.5 Z"/></g>
<g><path style="opacity:0.994" fill="#ebf4fe" d="M 21.5,256.5 C 26.1667,256.5 30.8333,256.5 35.5,256.5C 35.0155,274.695 43.3488,286.862 60.5,293C 76.9404,297.702 93.4404,302.202 110,306.5C 113.082,306.252 114.582,304.585 114.5,301.5C 120.48,304.211 126.647,305.211 133,304.5C 133.667,303.167 133.667,301.833 133,300.5C 129.553,294.604 126.386,288.604 123.5,282.5C 127.5,277.833 131.833,273.5 136.5,269.5C 164.465,297.965 192.632,326.299 221,354.5C 222,356.167 223,357.833 224,359.5C 225.641,387.105 225.974,414.771 225,442.5C 223.151,450.174 218.651,455.508 211.5,458.5C 189.758,458.178 168.091,458.512 146.5,459.5C 142.154,459.666 137.821,459.499 133.5,459C 133,458.5 132.5,458 132,457.5C 131.93,450.061 131.263,442.728 130,435.5C 95.2872,393.122 60.9538,350.456 27,307.5C 24.7388,303.05 23.0722,298.383 22,293.5C 21.5001,281.171 21.3335,268.838 21.5,256.5 Z"/></g>
<g><path style="opacity:0.996" fill="#dae8fa" d="M 21.5,256.5 C 26.3054,255.513 31.3054,255.179 36.5,255.5C 43.0221,255.177 49.3554,255.51 55.5,256.5C 55.4175,273.844 63.4175,285.677 79.5,292C 91.1557,295.275 102.822,298.442 114.5,301.5C 114.582,304.585 113.082,306.252 110,306.5C 93.4404,302.202 76.9404,297.702 60.5,293C 43.3488,286.862 35.0155,274.695 35.5,256.5C 30.8333,256.5 26.1667,256.5 21.5,256.5 Z"/></g>
<g><path style="opacity:0.998" fill="#dceafb" d="M 467.5,255.5 C 468.5,255.5 469.5,255.5 470.5,255.5C 477.022,255.177 483.355,255.51 489.5,256.5C 489.667,268.838 489.5,281.171 489,293.5C 487.928,298.383 486.261,303.05 484,307.5C 450.046,350.456 415.713,393.122 381,435.5C 379.737,442.728 379.07,450.061 379,457.5C 378.5,458 378,458.5 377.5,459C 373.179,459.499 368.846,459.666 364.5,459.5C 364.167,459.5 363.833,459.5 363.5,459.5C 361.735,458.539 359.735,458.205 357.5,458.5C 357.333,447.162 357.5,435.828 358,424.5C 392.333,381.833 426.667,339.167 461,296.5C 463.937,292.231 465.937,287.564 467,282.5C 467.5,273.506 467.666,264.506 467.5,255.5 Z"/></g>
<g><path style="opacity:1" fill="#47607f" d="M 175.5,417.5 C 184.428,411.572 187.595,403.239 185,392.5C 183.212,387.559 180.046,383.893 175.5,381.5C 176.058,380.21 177.058,379.377 178.5,379C 195.02,375.866 204.686,382.532 207.5,399C 206.748,412.885 199.415,420.385 185.5,421.5C 183.133,421.158 180.8,420.658 178.5,420C 177.058,419.623 176.058,418.79 175.5,417.5 Z"/></g>
<g><path style="opacity:1" fill="#47607f" d="M 314.5,417.5 C 323.428,411.572 326.595,403.239 324,392.5C 322.212,387.559 319.046,383.893 314.5,381.5C 315.058,380.21 316.058,379.377 317.5,379C 334.02,375.866 343.686,382.532 346.5,399C 345.748,412.885 338.415,420.385 324.5,421.5C 322.133,421.158 319.8,420.658 317.5,420C 316.058,419.623 315.058,418.79 314.5,417.5 Z"/></g>
<g><path style="opacity:1" fill="#506d8f" d="M 175.5,381.5 C 180.046,383.893 183.212,387.559 185,392.5C 187.595,403.239 184.428,411.572 175.5,417.5C 166.331,412.149 162.831,404.149 165,393.5C 166.957,388.05 170.457,384.05 175.5,381.5 Z"/></g>
<g><path style="opacity:1" fill="#506d8f" d="M 314.5,381.5 C 319.046,383.893 322.212,387.559 324,392.5C 326.595,403.239 323.428,411.572 314.5,417.5C 305.331,412.149 301.831,404.149 304,393.5C 305.957,388.05 309.457,384.05 314.5,381.5 Z"/></g>
<g><path style="opacity:0.991" fill="#506e8f" d="M 211.5,458.5 C 220.5,458.5 229.5,458.5 238.5,458.5C 229.348,459.494 220.015,459.827 210.5,459.5C 210.667,475.17 210.5,490.837 210,506.5C 208.975,508.687 207.475,510.354 205.5,511.5C 187.167,511.5 168.833,511.5 150.5,511.5C 148.856,510.684 147.69,509.35 147,507.5C 146.5,491.503 146.333,475.503 146.5,459.5C 168.091,458.512 189.758,458.178 211.5,458.5 Z"/></g>
<g><path style="opacity:1" fill="#455e7e" d="M 238.5,458.5 C 239.167,458.5 239.833,458.5 240.5,458.5C 240.667,475.17 240.5,491.837 240,508.5C 238.955,509.373 238.122,510.373 237.5,511.5C 226.833,511.5 216.167,511.5 205.5,511.5C 207.475,510.354 208.975,508.687 210,506.5C 210.5,490.837 210.667,475.17 210.5,459.5C 220.015,459.827 229.348,459.494 238.5,458.5 Z"/></g>
<g><path style="opacity:0.999" fill="#506d8f" d="M 270.5,458.5 C 299.5,458.5 328.5,458.5 357.5,458.5C 359.735,458.205 361.735,458.539 363.5,459.5C 353.833,459.5 344.167,459.5 334.5,459.5C 334.667,473.837 334.5,488.171 334,502.5C 333.049,506.939 330.549,509.939 326.5,511.5C 309.5,511.5 292.5,511.5 275.5,511.5C 273.866,510.028 272.366,508.362 271,506.5C 270.5,490.503 270.333,474.503 270.5,458.5 Z"/></g>
<g><path style="opacity:1" fill="#455e7e" d="M 363.5,459.5 C 363.833,459.5 364.167,459.5 364.5,459.5C 364.667,474.504 364.5,489.504 364,504.5C 363.033,507.621 361.2,509.954 358.5,511.5C 347.833,511.5 337.167,511.5 326.5,511.5C 330.549,509.939 333.049,506.939 334,502.5C 334.5,488.171 334.667,473.837 334.5,459.5C 344.167,459.5 353.833,459.5 363.5,459.5 Z"/></g>
</svg>
