<?xml version="1.0" encoding="UTF-8"?>
<!DOCTYPE svg PUBLIC "-//W3C//DTD SVG 1.1//EN" "http://www.w3.org/Graphics/SVG/1.1/DTD/svg11.dtd">
<svg xmlns="http://www.w3.org/2000/svg" version="1.1" width="512px" height="512px" style="shape-rendering:geometricPrecision; text-rendering:geometricPrecision; image-rendering:optimizeQuality; fill-rule:evenodd; clip-rule:evenodd" xmlns:xlink="http://www.w3.org/1999/xlink">
<g><path style="opacity:0.992" fill="#000000" d="M 24.5,7.5 C 50.5021,7.33336 76.5021,7.50003 102.5,8C 110.667,10.8333 116.167,16.3333 119,24.5C 119.667,66.5 119.667,108.5 119,150.5C 116.167,158.667 110.667,164.167 102.5,167C 76.5,167.667 50.5,167.667 24.5,167C 16.3333,164.167 10.8333,158.667 8,150.5C 7.33333,108.5 7.33333,66.5 8,24.5C 11.0191,16.3156 16.5191,10.649 24.5,7.5 Z"/></g>
<g><path style="opacity:0.993" fill="#000000" d="M 360.5,7.5 C 402.501,7.33334 444.501,7.50001 486.5,8C 494.667,10.8333 500.167,16.3333 503,24.5C 503.978,56.8941 503.645,89.2275 502,121.5C 498.686,128.149 493.519,132.649 486.5,135C 476.172,135.5 465.839,135.666 455.5,135.5C 455.5,140.833 455.5,146.167 455.5,151.5C 460.833,151.5 466.167,151.5 471.5,151.5C 471.5,156.833 471.5,162.167 471.5,167.5C 439.5,167.5 407.5,167.5 375.5,167.5C 375.5,162.167 375.5,156.833 375.5,151.5C 380.833,151.5 386.167,151.5 391.5,151.5C 391.5,146.167 391.5,140.833 391.5,135.5C 380.09,135.933 368.756,135.433 357.5,134C 350.851,130.686 346.351,125.519 344,118.5C 343.333,87.1667 343.333,55.8333 344,24.5C 347.019,16.3156 352.519,10.649 360.5,7.5 Z"/></g>
<g><path style="opacity:1" fill="#959ea9" d="M 28.5,23.5 C 51.8357,23.3334 75.169,23.5 98.5,24C 100.667,24.8333 102.167,26.3333 103,28.5C 103.499,32.1516 103.665,35.8183 103.5,39.5C 76.8333,39.5 50.1667,39.5 23.5,39.5C 23.3347,35.8183 23.5014,32.1516 24,28.5C 25.025,26.313 26.525,24.6464 28.5,23.5 Z"/></g>
<g><path style="opacity:1" fill="#68d5f3" d="M 364.5,23.5 C 404.586,23.0117 444.586,23.5117 484.5,25C 485.701,25.9025 486.535,27.0692 487,28.5C 487.5,48.1638 487.667,67.8305 487.5,87.5C 444.833,87.5 402.167,87.5 359.5,87.5C 359.333,67.8305 359.5,48.1638 360,28.5C 361.025,26.313 362.525,24.6464 364.5,23.5 Z"/></g>
<g><path style="opacity:0.923" fill="#000000" d="M 242.5,39.5 C 271.897,36.3386 297.23,44.8386 318.5,65C 314.333,69.1667 310.167,73.3333 306,77.5C 281.278,54.6935 253.445,50.1935 222.5,64C 216.035,67.6528 210.202,72.1528 205,77.5C 200.833,73.3333 196.667,69.1667 192.5,65C 206.638,51.4314 223.305,42.9314 242.5,39.5 Z"/></g>
<g><path style="opacity:1" fill="#69d6f3" d="M 23.5,55.5 C 50.1667,55.5 76.8333,55.5 103.5,55.5C 103.5,76.8333 103.5,98.1667 103.5,119.5C 76.8333,119.5 50.1667,119.5 23.5,119.5C 23.5,98.1667 23.5,76.8333 23.5,55.5 Z"/></g>
<g><path style="opacity:0.924" fill="#000000" d="M 244.5,71.5 C 264.149,68.8297 281.149,74.163 295.5,87.5C 291.833,91.8333 287.833,95.8333 283.5,99.5C 270.896,88.3078 256.563,85.4745 240.5,91C 235.761,93.2433 231.428,96.0767 227.5,99.5C 223.167,95.8333 219.167,91.8333 215.5,87.5C 223.631,79.2701 233.298,73.9367 244.5,71.5 Z"/></g>
<g><path style="opacity:0.904" fill="#000000" d="M 249.5,103.5 C 254.913,103.229 260.246,103.729 265.5,105C 268.576,105.911 270.909,107.744 272.5,110.5C 268.849,114.652 265.016,118.652 261,122.5C 257.333,119.833 253.667,119.833 250,122.5C 245.984,118.652 242.151,114.652 238.5,110.5C 241.427,106.877 245.094,104.544 249.5,103.5 Z"/></g>
<g><path style="opacity:1" fill="#cbd0d8" d="M 359.5,103.5 C 402.167,103.5 444.833,103.5 487.5,103.5C 487.665,107.182 487.499,110.848 487,114.5C 486.167,116.667 484.667,118.167 482.5,119C 443.167,119.667 403.833,119.667 364.5,119C 362.333,118.167 360.833,116.667 360,114.5C 359.501,110.848 359.335,107.182 359.5,103.5 Z"/></g>
<g><path style="opacity:1" fill="#959ea9" d="M 23.5,135.5 C 50.1667,135.5 76.8333,135.5 103.5,135.5C 103.665,139.182 103.499,142.848 103,146.5C 102.167,148.667 100.667,150.167 98.5,151C 75.1667,151.667 51.8333,151.667 28.5,151C 26.3333,150.167 24.8333,148.667 24,146.5C 23.5014,142.848 23.3347,139.182 23.5,135.5 Z"/></g>
<g><path style="opacity:0.968" fill="#000101" d="M 241.5,135.5 C 291,131.898 325.834,152.565 346,197.5C 348.018,203.385 349.518,209.385 350.5,215.5C 369.116,213.486 385.449,218.486 399.5,230.5C 420.285,213.773 442.951,210.94 467.5,222C 472.447,224.627 476.28,228.127 479,232.5C 475.318,236.349 471.485,240.016 467.5,243.5C 454.896,232.308 440.563,229.474 424.5,235C 419.761,237.243 415.428,240.077 411.5,243.5C 410.186,242.687 409.019,241.687 408,240.5C 410.825,246.854 413.159,253.521 415,260.5C 418.4,295.066 403.567,317.233 370.5,327C 299.167,327.667 227.833,327.667 156.5,327C 123.433,317.233 108.6,295.066 112,260.5C 118.101,234.692 134.268,219.692 160.5,215.5C 166.798,180.749 186.131,156.249 218.5,142C 226.163,139.338 233.829,137.172 241.5,135.5 Z"/></g>
<g><path style="opacity:1" fill="#a9b2bc" d="M 407.5,135.5 C 418.167,135.5 428.833,135.5 439.5,135.5C 439.5,140.833 439.5,146.167 439.5,151.5C 428.833,151.5 418.167,151.5 407.5,151.5C 407.5,146.167 407.5,140.833 407.5,135.5 Z"/></g>
<g><path style="opacity:1" fill="#e4e7eb" d="M 243.5,151.5 C 285.045,149.172 314.212,166.839 331,204.5C 334.523,215.214 336.356,226.214 336.5,237.5C 353.011,228.963 369.011,229.796 384.5,240C 402.013,256.966 404.18,275.799 391,296.5C 384.681,303.745 376.848,308.578 367.5,311C 296.789,311.987 226.123,311.654 155.5,310C 133.378,300.26 124.545,283.426 129,259.5C 137.723,239.05 153.223,229.717 175.5,231.5C 178.536,188.071 201.202,161.404 243.5,151.5 Z"/></g>
<g><path style="opacity:1" fill="#040404" d="M 245.5,167.5 C 248.833,167.5 252.167,167.5 255.5,167.5C 255.5,172.833 255.5,178.167 255.5,183.5C 233.709,184.653 218.542,195.32 210,215.5C 208.038,220.656 207.205,225.989 207.5,231.5C 202.167,231.5 196.833,231.5 191.5,231.5C 194.043,197.061 212.043,175.728 245.5,167.5 Z"/></g>
<g><path style="opacity:0.923" fill="#000000" d="M 58.5,183.5 C 87.8968,180.339 113.23,188.839 134.5,209C 130.333,213.167 126.167,217.333 122,221.5C 97.2782,198.694 69.4449,194.194 38.5,208C 32.035,211.653 26.2017,216.153 21,221.5C 16.8333,217.333 12.6667,213.167 8.5,209C 22.638,195.431 39.3047,186.931 58.5,183.5 Z"/></g>
<g><path style="opacity:0.923" fill="#000000" d="M 426.5,183.5 C 455.897,180.339 481.23,188.839 502.5,209C 498.333,213.167 494.167,217.333 490,221.5C 465.278,198.694 437.445,194.194 406.5,208C 400.035,211.653 394.202,216.153 389,221.5C 384.833,217.333 380.667,213.167 376.5,209C 390.638,195.431 407.305,186.931 426.5,183.5 Z"/></g>
<g><path style="opacity:0.924" fill="#000000" d="M 60.5,215.5 C 80.1494,212.83 97.1494,218.163 111.5,231.5C 107.833,235.833 103.833,239.833 99.5,243.5C 86.8959,232.308 72.5625,229.474 56.5,235C 51.7614,237.243 47.428,240.077 43.5,243.5C 39.1667,239.833 35.1667,235.833 31.5,231.5C 39.6312,223.27 49.2979,217.937 60.5,215.5 Z"/></g>
<g><path style="opacity:0.904" fill="#000000" d="M 65.5,247.5 C 70.9127,247.229 76.2461,247.729 81.5,249C 84.5755,249.911 86.9089,251.744 88.5,254.5C 84.8489,258.652 81.0156,262.652 77,266.5C 73.3333,263.833 69.6667,263.833 66,266.5C 61.9844,262.652 58.1511,258.652 54.5,254.5C 57.4272,250.877 61.0939,248.544 65.5,247.5 Z"/></g>
<g><path style="opacity:1" fill="#030303" d="M 185.5,247.5 C 199.853,246.253 209.686,252.253 215,265.5C 216.817,280.369 210.651,290.203 196.5,295C 182.082,296.535 172.582,290.368 168,276.5C 166.669,262.493 172.502,252.826 185.5,247.5 Z"/></g>
<g><path style="opacity:1" fill="#030303" d="M 249.5,247.5 C 263.853,246.253 273.686,252.253 279,265.5C 280.817,280.369 274.651,290.203 260.5,295C 246.082,296.535 236.582,290.368 232,276.5C 230.669,262.493 236.502,252.826 249.5,247.5 Z"/></g>
<g><path style="opacity:1" fill="#030303" d="M 313.5,247.5 C 327.853,246.253 337.686,252.253 343,265.5C 344.817,280.369 338.651,290.203 324.5,295C 310.082,296.535 300.582,290.368 296,276.5C 294.669,262.493 300.502,252.826 313.5,247.5 Z"/></g>
<g><path style="opacity:0.904" fill="#000000" d="M 433.5,247.5 C 438.913,247.229 444.246,247.729 449.5,249C 452.576,249.911 454.909,251.744 456.5,254.5C 452.849,258.652 449.016,262.652 445,266.5C 441.333,263.833 437.667,263.833 434,266.5C 429.984,262.652 426.151,258.652 422.5,254.5C 425.427,250.877 429.094,248.544 433.5,247.5 Z"/></g>
<g><path style="opacity:1" fill="#f37c69" d="M 188.5,263.5 C 196.658,262.823 200.158,266.49 199,274.5C 196.774,278.861 193.274,280.361 188.5,279C 184.139,276.774 182.639,273.274 184,268.5C 185.025,266.313 186.525,264.646 188.5,263.5 Z"/></g>
<g><path style="opacity:1" fill="#f37c69" d="M 252.5,263.5 C 260.658,262.823 264.158,266.49 263,274.5C 260.774,278.861 257.274,280.361 252.5,279C 248.139,276.774 246.639,273.274 248,268.5C 249.025,266.313 250.525,264.646 252.5,263.5 Z"/></g>
<g><path style="opacity:1" fill="#f37c69" d="M 316.5,263.5 C 324.658,262.823 328.158,266.49 327,274.5C 324.774,278.861 321.274,280.361 316.5,279C 312.139,276.774 310.639,273.274 312,268.5C 313.025,266.313 314.525,264.646 316.5,263.5 Z"/></g>
<g><path style="opacity:0.99" fill="#000000" d="M 40.5,343.5 C 82.5013,343.333 124.501,343.5 166.5,344C 174.667,346.833 180.167,352.333 183,360.5C 183.5,392.165 183.667,423.832 183.5,455.5C 194.307,455.975 199.641,461.641 199.5,472.5C 198.549,488.243 190.549,498.409 175.5,503C 127.5,503.667 79.5,503.667 31.5,503C 11.2249,495.95 4.05828,482.116 10,461.5C 13.4773,457.178 17.9773,455.178 23.5,455.5C 23.3334,423.832 23.5,392.165 24,360.5C 27.0191,352.316 32.5191,346.649 40.5,343.5 Z"/></g>
<g><path style="opacity:0.987" fill="#000000" d="M 376.5,343.5 C 413.168,343.333 449.835,343.5 486.5,344C 500.627,349.745 506.294,360.245 503.5,375.5C 503.333,380.5 503.167,385.5 503,390.5C 502.027,393.779 500.527,396.779 498.5,399.5C 500.527,402.221 502.027,405.221 503,408.5C 503.667,418.5 503.667,428.5 503,438.5C 502.027,441.779 500.527,444.779 498.5,447.5C 500.527,450.221 502.027,453.221 503,456.5C 503.667,466.5 503.667,476.5 503,486.5C 500.167,494.667 494.667,500.167 486.5,503C 449.833,503.667 413.167,503.667 376.5,503C 362.373,497.255 356.706,486.755 359.5,471.5C 359.667,466.5 359.833,461.5 360,456.5C 360.973,453.221 362.473,450.221 364.5,447.5C 360.04,440.183 358.373,432.183 359.5,423.5C 359.667,418.5 359.833,413.5 360,408.5C 360.973,405.221 362.473,402.221 364.5,399.5C 362.473,396.779 360.973,393.779 360,390.5C 359.333,380.5 359.333,370.5 360,360.5C 363.019,352.316 368.519,346.649 376.5,343.5 Z"/></g>
<g><path style="opacity:1" fill="#cbd0d8" d="M 44.5,359.5 C 84.5856,359.012 124.586,359.512 164.5,361C 165.701,361.903 166.535,363.069 167,364.5C 167.5,394.832 167.667,425.165 167.5,455.5C 124.833,455.5 82.1667,455.5 39.5,455.5C 39.3334,425.165 39.5,394.832 40,364.5C 41.025,362.313 42.525,360.646 44.5,359.5 Z"/></g>
<g><path style="opacity:1" fill="#fbd66f" d="M 380.5,359.5 C 414.502,359.333 448.502,359.5 482.5,360C 484.667,360.833 486.167,362.333 487,364.5C 487.667,371.833 487.667,379.167 487,386.5C 486.167,388.667 484.667,390.167 482.5,391C 448.5,391.667 414.5,391.667 380.5,391C 378.333,390.167 376.833,388.667 376,386.5C 375.333,379.167 375.333,371.833 376,364.5C 377.025,362.313 378.525,360.646 380.5,359.5 Z"/></g>
<g><path style="opacity:0.923" fill="#000000" d="M 242.5,367.5 C 271.897,364.339 297.23,372.839 318.5,393C 314.333,397.167 310.167,401.333 306,405.5C 281.278,382.694 253.445,378.194 222.5,392C 216.035,395.653 210.202,400.153 205,405.5C 200.833,401.333 196.667,397.167 192.5,393C 206.638,379.431 223.305,370.931 242.5,367.5 Z"/></g>
<g><path style="opacity:1" fill="#000000" d="M 55.5,375.5 C 87.5,375.5 119.5,375.5 151.5,375.5C 151.5,396.833 151.5,418.167 151.5,439.5C 119.5,439.5 87.5,439.5 55.5,439.5C 55.5,418.167 55.5,396.833 55.5,375.5 Z"/></g>
<g><path style="opacity:1" fill="#69d6f3" d="M 71.5,391.5 C 92.8333,391.5 114.167,391.5 135.5,391.5C 135.5,402.167 135.5,412.833 135.5,423.5C 114.167,423.5 92.8333,423.5 71.5,423.5C 71.5,412.833 71.5,402.167 71.5,391.5 Z"/></g>
<g><path style="opacity:0.924" fill="#000000" d="M 244.5,399.5 C 264.149,396.83 281.149,402.163 295.5,415.5C 291.833,419.833 287.833,423.833 283.5,427.5C 270.896,416.308 256.563,413.474 240.5,419C 235.761,421.243 231.428,424.077 227.5,427.5C 223.167,423.833 219.167,419.833 215.5,415.5C 223.631,407.27 233.298,401.937 244.5,399.5 Z"/></g>
<g><path style="opacity:1" fill="#fbd66f" d="M 380.5,407.5 C 414.502,407.333 448.502,407.5 482.5,408C 484.667,408.833 486.167,410.333 487,412.5C 487.667,419.833 487.667,427.167 487,434.5C 486.167,436.667 484.667,438.167 482.5,439C 448.5,439.667 414.5,439.667 380.5,439C 378.333,438.167 376.833,436.667 376,434.5C 375.333,427.167 375.333,419.833 376,412.5C 377.025,410.313 378.525,408.646 380.5,407.5 Z"/></g>
<g><path style="opacity:0.904" fill="#000000" d="M 249.5,431.5 C 254.913,431.229 260.246,431.729 265.5,433C 268.576,433.911 270.909,435.744 272.5,438.5C 268.849,442.652 265.016,446.652 261,450.5C 257.333,447.833 253.667,447.833 250,450.5C 245.984,446.652 242.151,442.652 238.5,438.5C 241.427,434.877 245.094,432.544 249.5,431.5 Z"/></g>
<g><path style="opacity:1" fill="#fbd66f" d="M 380.5,455.5 C 414.502,455.333 448.502,455.5 482.5,456C 484.667,456.833 486.167,458.333 487,460.5C 487.667,467.833 487.667,475.167 487,482.5C 486.167,484.667 484.667,486.167 482.5,487C 448.5,487.667 414.5,487.667 380.5,487C 378.333,486.167 376.833,484.667 376,482.5C 375.333,475.167 375.333,467.833 376,460.5C 377.025,458.313 378.525,456.646 380.5,455.5 Z"/></g>
<g><path style="opacity:1" fill="#959ea9" d="M 23.5,471.5 C 76.8333,471.5 130.167,471.5 183.5,471.5C 183.077,479.424 179.077,484.591 171.5,487C 125.833,487.667 80.1667,487.667 34.5,487C 27.4955,484.168 23.8289,479.001 23.5,471.5 Z"/></g>
</svg>
